<svg id="Layer_1" height="512" viewBox="0 0 128 128" width="512" xmlns="http://www.w3.org/2000/svg"><g><g><g><g><g><g><path d="m65.803 60.89v-33.734h-3.607v33.734l1.804 1.032z" fill="#d6a041"/></g></g></g><g><g><g><path d="m62.196 67.11v33.734h3.607v-33.734l-1.803-1.032z" fill="#d6a041"/></g></g></g><g><g><g><path d="m98.885 81.889-31.255-17.889-1.827 1.046v2.064l31.29 17.91z" fill="#d6a041"/></g></g></g><g><g><g><path d="m62.196 60.89-31.289-17.91-1.792 3.131 31.254 17.889 1.827-1.046z" fill="#d6a041"/></g></g></g><g><g><g><path d="m67.63 64 30.369-17.382-1.792-3.131-30.404 17.403v2.064z" fill="#d6a041"/></g></g></g><g><g><g><path d="m60.369 64-30.368 17.383 1.792 3.13 30.403-17.403v-2.064z" fill="#d6a041"/></g></g></g></g><g><g><g><g><g><circle cx="104.617" cy="40.699" fill="#96ceb4" r="12.158"/></g></g><g><g><path d="m104.618 54.108c-.012 0-.021 0-.032 0-3.582-.009-6.946-1.412-9.473-3.95s-3.913-5.909-3.904-9.49 1.411-6.946 3.949-9.472c2.531-2.519 5.89-3.905 9.459-3.905h.032c7.394.018 13.394 6.047 13.377 13.44l-1.251-.003 1.251.003c-.017 7.382-6.029 13.377-13.408 13.377zm-.001-24.316c-2.903 0-5.635 1.127-7.693 3.176-2.065 2.055-3.206 4.792-3.213 7.705-.008 2.913 1.12 5.655 3.176 7.72s4.792 3.206 7.705 3.213h.026c2.903 0 5.635-1.127 7.693-3.176 2.065-2.055 3.206-4.792 3.213-7.705.014-6.014-4.867-10.918-10.881-10.933-.008 0-.017 0-.026 0z" fill="#ffcc5c"/></g></g></g><g><g><g><path d="m108.495 45.679c2.141-1.258 3.584-3.573 3.59-6.233.009-4.006-3.235-7.262-7.248-7.271-4.012-.009-7.272 3.231-7.282 7.237-.006 2.628 1.393 4.927 3.486 6.204-1.218 1.039-1.996 2.58-2 4.305 0 .082.009.162.012.243 1.28.755 2.723 1.26 4.268 1.444.13.016.261.026.392.037.295.024.591.046.892.047.384.001.762-.018 1.136-.056.139-.014.274-.043.411-.062 1.55-.215 2.994-.749 4.267-1.538.001-.03.005-.059.005-.089.006-1.7-.745-3.224-1.929-4.268z" fill="#71a58a"/></g></g></g></g><g><g><g><g><circle cx="104.507" cy="87.493" fill="#96ceb4" r="12.158"/></g></g><g><g><path d="m104.508 100.901c-.011 0-.021 0-.032 0-3.582-.008-6.945-1.411-9.473-3.95-2.526-2.539-3.913-5.909-3.905-9.491.019-7.383 6.031-13.377 13.408-13.377h.032c7.394.018 13.395 6.047 13.378 13.441-.019 7.383-6.03 13.377-13.408 13.377zm-.001-24.316c-6.002 0-10.893 4.876-10.907 10.881-.007 2.914 1.121 5.655 3.177 7.72 2.055 2.065 4.792 3.206 7.705 3.212h.026c6.002 0 10.892-4.875 10.906-10.881.014-6.014-4.867-10.919-10.882-10.933-.009.001-.017.001-.025.001zm12.158 10.936h.01z" fill="#ffcc5c"/></g></g></g><g><g><g><path d="m108.385 92.473c2.141-1.258 3.584-3.573 3.59-6.233.009-4.006-3.235-7.262-7.248-7.271-4.012-.009-7.272 3.231-7.282 7.237-.006 2.628 1.393 4.927 3.486 6.204-1.218 1.039-1.996 2.58-2 4.305 0 .082.009.162.012.243 1.28.755 2.723 1.26 4.268 1.444.13.016.261.026.392.037.295.024.591.046.892.047.384.001.762-.018 1.136-.056.139-.014.274-.043.411-.062 1.55-.215 2.994-.749 4.267-1.538 0-.03.005-.059.005-.089.005-1.701-.745-3.224-1.929-4.268z" fill="#71a58a"/></g></g></g></g><g><g><g><g><circle cx="23.493" cy="40.507" fill="#96ceb4" r="12.158"/></g></g><g><g><path d="m23.494 53.917c-.012 0-.021 0-.032 0-7.394-.018-13.395-6.047-13.378-13.441.019-7.382 6.03-13.377 13.408-13.377h.032c3.582.008 6.945 1.411 9.473 3.95 2.526 2.539 3.913 5.909 3.905 9.491-.018 7.382-6.031 13.377-13.408 13.377zm-.002-24.316c-6.002 0-10.892 4.875-10.906 10.881-.014 6.014 4.867 10.919 10.882 10.933h.025c6.002 0 10.893-4.876 10.907-10.881.007-2.914-1.121-5.655-3.177-7.72-2.055-2.065-4.792-3.206-7.705-3.212-.008-.001-.017-.001-.026-.001zm12.159 10.935h.01z" fill="#ffcc5c"/></g></g></g><g><g><g><path d="m27.371 45.488c2.141-1.258 3.584-3.573 3.59-6.233.009-4.006-3.235-7.262-7.248-7.271s-7.272 3.231-7.282 7.237c-.006 2.628 1.393 4.927 3.486 6.204-1.218 1.039-1.996 2.58-2 4.305 0 .082.009.162.012.243 1.28.755 2.723 1.26 4.268 1.444.13.016.261.026.392.037.295.024.591.046.892.047.384.001.762-.018 1.136-.056.139-.014.274-.043.411-.062 1.55-.215 2.994-.749 4.267-1.538.001-.03.005-.059.005-.089.005-1.701-.745-3.224-1.929-4.268z" fill="#71a58a"/></g></g></g></g><g><g><g><g><circle cx="23.383" cy="87.301" fill="#96ceb4" r="12.158"/></g></g><g><g><path d="m23.383 100.71c-.011 0-.021 0-.032 0-7.394-.018-13.394-6.047-13.377-13.44.018-7.383 6.029-13.377 13.408-13.377h.032c3.582.009 6.946 1.412 9.473 3.95s3.913 5.909 3.904 9.49-1.411 6.946-3.949 9.472c-2.531 2.519-5.89 3.905-9.459 3.905zm-.001-24.316c-2.903 0-5.635 1.127-7.693 3.176-2.065 2.055-3.206 4.792-3.213 7.705-.014 6.014 4.867 10.918 10.881 10.933h.026c2.903 0 5.635-1.127 7.693-3.176 2.065-2.055 3.206-4.792 3.213-7.705.008-2.913-1.12-5.655-3.176-7.72s-4.792-3.206-7.705-3.213c-.009 0-.017 0-.026 0z" fill="#ffcc5c"/></g></g></g><g><g><g><path d="m27.26 92.281c2.141-1.258 3.584-3.573 3.59-6.233.009-4.006-3.235-7.262-7.248-7.271-4.012-.009-7.272 3.231-7.282 7.237-.006 2.628 1.393 4.927 3.486 6.204-1.218 1.039-1.996 2.58-2 4.305 0 .082.009.162.012.243 1.28.755 2.723 1.26 4.268 1.444.13.016.261.026.392.037.295.024.591.046.892.047.384.001.762-.018 1.136-.056.139-.014.274-.043.411-.062 1.55-.215 2.994-.749 4.267-1.538.001-.03.005-.059.005-.089.006-1.7-.744-3.224-1.929-4.268z" fill="#71a58a"/></g></g></g></g></g><g><g><g><g><g><circle cx="64" cy="109.357" fill="#96ceb4" r="12.158"/></g></g><g><g><path d="m64 122.767c-7.394 0-13.409-6.016-13.409-13.409s6.015-13.409 13.409-13.409 13.409 6.015 13.409 13.409-6.015 13.409-13.409 13.409zm0-24.316c-6.015 0-10.907 4.893-10.907 10.907s4.892 10.907 10.907 10.907 10.907-4.893 10.907-10.907-4.892-10.907-10.907-10.907z" fill="#ffcc5c"/></g></g></g><g><g><g><path d="m67.889 114.328c2.138-1.263 3.576-3.581 3.576-6.241 0-4.006-3.253-7.254-7.265-7.254s-7.265 3.248-7.265 7.254c0 2.628 1.405 4.923 3.501 6.196-1.216 1.042-1.989 2.584-1.989 4.31 0 .082.009.162.012.243 1.282.752 2.726 1.254 4.272 1.434.13.015.261.026.392.036.295.024.591.045.892.045.384 0 .762-.02 1.136-.058.139-.014.274-.043.411-.063 1.549-.218 2.992-.756 4.263-1.548 0-.03.004-.059.004-.089.001-1.702-.753-3.223-1.94-4.265z" fill="#71a58a"/></g></g></g></g><g><g><g><g><circle cx="64" cy="18.643" fill="#96ceb4" r="12.158"/></g></g><g><g><path d="m64 32.051c-7.394 0-13.409-6.015-13.409-13.409s6.015-13.409 13.409-13.409 13.409 6.016 13.409 13.409-6.015 13.409-13.409 13.409zm0-24.316c-6.015 0-10.907 4.893-10.907 10.907s4.892 10.907 10.907 10.907 10.907-4.893 10.907-10.907-4.892-10.907-10.907-10.907z" fill="#ffcc5c"/></g></g></g><g><g><g><path d="m67.889 23.614c2.138-1.263 3.576-3.581 3.576-6.241 0-4.006-3.253-7.254-7.265-7.254s-7.265 3.248-7.265 7.254c0 2.628 1.405 4.923 3.501 6.196-1.216 1.042-1.989 2.584-1.989 4.31 0 .082.009.162.012.243 1.282.752 2.726 1.254 4.272 1.434.13.015.261.026.392.036.295.024.591.045.892.045.384 0 .762-.02 1.136-.058.139-.014.274-.043.411-.063 1.549-.218 2.992-.756 4.263-1.548 0-.03.004-.059.004-.089.001-1.702-.753-3.224-1.94-4.265z" fill="#71a58a"/></g></g></g></g></g></g><g><g><g><g><path d="m39.358 51.771 24.712-14.187 24.642 14.307-.07 28.494-24.712 14.187-24.642-14.307z" fill="#d6a041"/></g></g></g><g><g><g><path d="m39.358 49.693 24.712-14.187 24.642 14.307-.07 28.494-24.712 14.187-24.642-14.307z" fill="#ffcc5c"/></g></g></g><g><g><g><path d="m44.148 52.473 19.908-11.429 19.852 11.527-.056 22.956-19.908 11.429-19.852-11.527z" fill="#fff"/></g></g></g><g><g><g><path d="m45.782 53.422 18.269-10.488 18.218 10.578-.051 21.066-18.269 10.488-18.218-10.578z" fill="#ffeead"/></g></g></g><g><g><g><g><g><g><path d="m67.402 61.765c-2.704-2.058-4.035-3.067-4.035-4.035 0-.283.161-.606.525-.606.323 0 1.049 1.533 1.332 1.533l5.528-.283c.282-.04.444-.202.444-.443 0-3.551-2.26-6.618-5.972-7.385 0-2.381 0-2.623-.323-2.623h-2.946c-.161 0-.282.161-.282.363v2.219c-3.753.767-5.771 3.995-5.771 7.062 0 2.905 1.493 5.286 3.793 6.941 3.188 2.3 4.156 3.187 4.156 4.237 0 .525-.363.888-.888.888-.929 0-1.574-.848-1.856-2.26-.081-.363-.202-.444-.444-.444l-5.125.283c-.202.04-.322.161-.322.363 0 4.762 2.219 7.546 6.456 8.313 0 2.421 0 2.704.322 2.704h2.906c.161 0 .323-.161.323-.323v-2.34c3.753-.727 6.012-3.471 6.012-7.505 0-2.503-1.331-4.763-3.833-6.659z" fill="#ffcc5c"/></g></g></g></g></g></g></g></g></svg>