<svg height="504pt" viewBox="0 -56 504 504" width="504pt" xmlns="http://www.w3.org/2000/svg"><path d="m482.300781 322.992188h-460.601562c-9.773438 0-17.699219-7.925782-17.699219-17.699219v-283.59375c0-9.773438 7.925781-17.699219 17.699219-17.699219h460.601562c9.773438 0 17.699219 7.925781 17.699219 17.699219v283.59375c0 9.773437-7.925781 17.699219-17.699219 17.699219zm0 0" fill="#f4efed"/><path d="m482.300781 4h-20c9.773438 0 17.699219 7.925781 17.699219 17.699219v283.59375c0 9.773437-7.925781 17.699219-17.699219 17.699219h20c9.773438 0 17.699219-7.925782 17.699219-17.699219v-283.59375c0-9.773438-7.925781-17.699219-17.699219-17.699219zm0 0" fill="#d6d1cf"/><path d="m21.699219 322.992188h20c-9.773438 0-17.699219-7.925782-17.699219-17.699219v-283.59375c0-9.773438 7.925781-17.699219 17.699219-17.699219h-20c-9.773438 0-17.699219 7.925781-17.699219 17.699219v283.59375c0 9.773437 7.925781 17.699219 17.699219 17.699219zm0 0" fill="#fff"/><path d="m413.800781 388.710938h-323.601562v-23.707032c0-9.777344 7.921875-17.699218 17.699219-17.699218h288.203124c9.777344 0 17.699219 7.921874 17.699219 17.699218zm0 0" fill="#7bac51"/><path d="m396.101562 347.304688h-20c9.777344 0 17.699219 7.921874 17.699219 17.699218v23.710938h20v-23.710938c0-9.777344-7.921875-17.699218-17.699219-17.699218zm0 0" fill="#5d8e33"/><path d="m107.898438 347.304688h20c-9.777344 0-17.699219 7.921874-17.699219 17.699218v23.710938h-20v-23.710938c0-9.777344 7.921875-17.699218 17.699219-17.699218zm0 0" fill="#99ca6f"/><path d="m157.007812 322.992188h189.984376v24.3125h-189.984376zm0 0" fill="#5d8e33"/><path d="m20 78.40625c-2.207031 0-4-1.789062-4-4v-24c0-2.207031 1.792969-4 4-4s4 1.792969 4 4v24c0 2.210938-1.792969 4-4 4zm0 0" fill="#690589"/><path d="m413.800781 392.710938h-323.601562c-2.210938 0-4-1.789063-4-4v-23.707032c0-11.964844 9.734375-21.699218 21.699219-21.699218h288.207031c11.964843 0 21.699219 9.734374 21.699219 21.699218v23.707032c-.003907 2.210937-1.792969 4-4.003907 4zm-319.601562-8h315.605469v-19.707032c0-7.554687-6.148438-13.699218-13.703126-13.699218h-288.203124c-7.554688 0-13.703126 6.144531-13.703126 13.699218v19.707032zm0 0" fill="#690589"/><path d="m346.992188 351.304688h-189.984376c-2.210937 0-4-1.792969-4-4v-24.3125c0-2.207032 1.789063-4 4-4h189.984376c2.210937 0 4 1.792968 4 4v24.3125c0 2.207031-1.789063 4-4 4zm-185.984376-8h181.984376v-16.3125h-181.984376zm0 0" fill="#690589"/><path d="m482.300781 326.992188h-460.601562c-11.964844 0-21.699219-9.734376-21.699219-21.699219v-283.59375c0-11.964844 9.734375-21.699219 21.699219-21.699219h460.601562c11.964844 0 21.699219 9.734375 21.699219 21.699219v283.59375c0 11.964843-9.734375 21.699219-21.699219 21.699219zm-460.601562-318.992188c-7.554688 0-13.699219 6.144531-13.699219 13.699219v283.59375c0 7.554687 6.144531 13.699219 13.699219 13.699219h460.601562c7.554688 0 13.699219-6.144532 13.699219-13.699219v-283.59375c0-7.554688-6.144531-13.699219-13.699219-13.699219zm0 0" fill="#690589"/><path d="m382.125 185.8125v-43.589844h-24.121094c-2.800781-13.699218-8.210937-26.445312-15.65625-37.726562l17.078125-17.082032-30.824219-30.820312-17.078124 17.078125c-11.285157-7.449219-24.027344-12.855469-37.726563-15.65625v-24.125h-43.589844v24.121094c-13.703125 2.800781-26.445312 8.210937-37.730469 15.660156l-17.078124-17.082031-30.824219 30.824218 17.078125 17.078126c-7.445313 11.28125-12.855469 24.027343-15.65625 37.726562h-24.121094v43.589844h24.121094c2.800781 13.703125 8.210937 26.449218 15.65625 37.730468l-17.078125 17.078126 30.824219 30.824218 17.078124-17.078125c11.28125 7.445313 24.027344 12.855469 37.726563 15.65625v24.121094h43.589844v-24.121094c13.703125-2.800781 26.445312-8.210937 37.730469-15.65625l17.078124 17.078125 30.824219-30.824218-17.078125-17.078126c7.445313-11.28125 12.855469-24.027343 15.65625-37.730468h24.121094zm-130.125 48.78125c-38.976562 0-70.574219-31.601562-70.574219-70.578125s31.597657-70.574219 70.574219-70.574219 70.574219 31.597656 70.574219 70.574219-31.597657 70.578125-70.574219 70.578125zm0 0" fill="#fcc24c"/><g fill="#690589"><path d="m273.792969 298.140625h-43.589844c-2.207031 0-4-1.789063-4-4v-20.90625c-11.730469-2.757813-22.863281-7.378906-33.171875-13.769531l-14.804688 14.804687c-1.5 1.5-4.15625 1.5-5.65625 0l-30.824218-30.824219c-.75-.75-1.171875-1.769531-1.171875-2.828124 0-1.0625.421875-2.078126 1.171875-2.828126l14.804687-14.808593c-6.390625-10.308594-11.011719-21.441407-13.769531-33.171875h-20.90625c-2.210938 0-4-1.789063-4-4v-43.589844c0-2.207031 1.789062-4 4-4h20.90625c2.757812-11.730469 7.378906-22.863281 13.769531-33.171875l-14.804687-14.804687c-.75-.75-1.171875-1.769532-1.171875-2.828126 0-1.058593.421875-2.078124 1.171875-2.828124l30.824218-30.824219c1.5625-1.5625 4.09375-1.5625 5.65625 0l14.808594 14.804687c10.308594-6.390625 21.441406-11.011718 33.171875-13.769531v-20.90625c0-2.207031 1.789063-4 4-4h43.589844c2.207031 0 4 1.792969 4 4v20.90625c11.726563 2.757813 22.859375 7.378906 33.171875 13.769531l14.804688-14.804687c1.5-1.5 4.15625-1.5 5.65625 0l30.824218 30.824219c1.558594 1.5625 1.558594 4.09375 0 5.65625l-14.804687 14.804687c6.390625 10.3125 11.011719 21.441406 13.769531 33.171875h20.910156c2.207032 0 4 1.792969 4 4v43.589844c0 2.210937-1.792968 4-4 4h-20.910156c-2.757812 11.730468-7.375 22.867187-13.769531 33.171875l14.804687 14.808593c1.558594 1.5625 1.558594 4.09375 0 5.65625l-30.824218 30.824219c-1.5625 1.558594-4.09375 1.558594-5.65625 0l-14.804688-14.804687c-10.308594 6.390625-21.441406 11.011718-33.171875 13.769531v20.90625c-.003906 2.210937-1.792969 4-4.003906 4zm-39.585938-8h35.589844v-20.121094c0-1.898437 1.335937-3.539062 3.199219-3.917969 12.964844-2.652343 25.191406-7.726562 36.324218-15.078124 1.582032-1.046876 3.6875-.832032 5.03125.511718l14.253907 14.25 25.164062-25.167968-14.25-14.25c-1.34375-1.34375-1.554687-3.445313-.507812-5.03125 7.351562-11.136719 12.421875-23.359376 15.078125-36.324219.378906-1.863281 2.015625-3.199219 3.917968-3.199219h20.121094v-35.589844h-20.121094c-1.902343 0-3.539062-1.335937-3.917968-3.199218-2.65625-12.96875-7.726563-25.1875-15.078125-36.324219-1.046875-1.585938-.835938-3.6875.507812-5.03125l14.25-14.253907-25.164062-25.164062-14.253907 14.25c-1.339843 1.34375-3.441406 1.5625-5.03125.511719-11.140624-7.355469-23.363281-12.425781-36.324218-15.078125-1.863282-.382813-3.199219-2.019532-3.199219-3.917969v-20.125h-35.589844v20.125c0 1.898437-1.335937 3.535156-3.199219 3.917969-12.964843 2.652344-25.191406 7.722656-36.324218 15.078125-1.585938 1.042969-3.691406.832031-5.035156-.511719l-14.25-14.25-25.167969 25.164062 14.25 14.25c1.34375 1.34375 1.558593 3.449219.511719 5.035157-7.351563 11.136719-12.425782 23.355469-15.078126 36.324219-.378906 1.859374-2.019531 3.195312-3.917968 3.195312h-20.121094v35.589844h20.121094c1.902344 0 3.539062 1.335937 3.917968 3.199218 2.65625 12.964844 7.726563 25.1875 15.078126 36.324219 1.046874 1.585938.835937 3.691407-.507813 5.03125l-14.253906 14.253907 25.167969 25.164062 14.25-14.25c1.34375-1.34375 3.449218-1.558594 5.035156-.507812 11.132812 7.351562 23.359375 12.421874 36.324218 15.078124 1.863282.378907 3.199219 2.015626 3.199219 3.917969zm17.792969-51.546875c-41.121094 0-74.574219-33.457031-74.574219-74.578125s33.453125-74.574219 74.574219-74.574219 74.574219 33.453125 74.574219 74.574219-33.453125 74.578125-74.574219 74.578125zm0-141.152344c-36.710938 0-66.574219 29.863282-66.574219 66.574219s29.863281 66.578125 66.574219 66.578125 66.574219-29.867188 66.574219-66.578125-29.863281-66.574219-66.574219-66.574219zm0 0"/><path d="m231.3125 176.453125h-17.019531l-3.433594 9.105469c-.628906 1.542968-2.101563 2.453125-3.640625 2.453125-.488281 0-.910156-.070313-1.332031-.210938-2.03125-.769531-3.011719-3.011719-2.308594-5.042969l15.476563-41.25c.632812-1.542968 2.171874-2.523437 3.710937-2.453124 1.613281-.070313 3.082031.910156 3.710937 2.453124l15.480469 41.25c.699219 2.03125-.28125 4.273438-2.3125 5.042969-.351562.140625-.839843.210938-1.332031.210938-1.539062 0-3.011719-.910157-3.570312-2.453125zm-2.871094-7.707031-5.675781-15.054688-5.671875 15.054688zm0 0"/><path d="m267.941406 168.957031h-8.617187v15.199219c0 2.101562-1.75 3.851562-3.921875 3.851562-2.101563 0-3.851563-1.75-3.851563-3.851562v-41.320312c0-2.171876 1.75-3.855469 3.851563-3.855469h12.535156c8.335938 0 15.058594 6.726562 15.058594 15.058593.003906 8.195313-6.71875 14.917969-15.054688 14.917969zm-8.613281-7.773437h8.613281c4.0625 0 7.214844-3.222656 7.285156-7.144532-.070312-4.0625-3.21875-7.28125-7.285156-7.28125h-8.613281zm0 0"/><path d="m292.871094 142.835938c0-2.171876 1.683594-3.855469 3.855468-3.855469 2.097657 0 3.921876 1.679687 3.921876 3.855469v41.320312c0 2.171875-1.824219 3.851562-3.921876 3.851562-2.171874 0-3.855468-1.679687-3.855468-3.851562zm0 0"/><path d="m446.503906 248.59375h-31.910156c-7.71875 0-14-6.28125-14-14v-141.152344c0-7.722656 6.28125-14 14-14h31.910156c2.207032 0 4 1.789063 4 4 0 2.207032-1.792968 4-4 4h-31.910156c-3.308594 0-6 2.691406-6 6v141.152344c0 3.304688 2.691406 6 6 6h31.910156c2.207032 0 4 1.789062 4 4 0 2.207031-1.792968 4-4 4zm0 0"/><path d="m446.503906 168.015625h-64.378906c-2.207031 0-4-1.792969-4-4s1.792969-4 4-4h64.378906c2.207032 0 4 1.792969 4 4s-1.792968 4-4 4zm0 0"/></g><path d="m466.789062 83.441406c0 11.203125-9.082031 20.285156-20.285156 20.285156-11.207031 0-20.289062-9.082031-20.289062-20.285156 0-11.207031 9.082031-20.289062 20.289062-20.289062 11.203125 0 20.285156 9.082031 20.285156 20.289062zm0 0" fill="#5d8e33"/><path d="m446.503906 107.726562c-6.488281 0-12.589844-2.523437-17.175781-7.113281-9.46875-9.46875-9.46875-24.878906 0-34.347656 4.585937-4.585937 10.6875-7.113281 17.175781-7.113281 6.484375 0 12.585938 2.527344 17.171875 7.113281 4.589844 4.585937 7.117188 10.6875 7.117188 17.175781 0 6.488282-2.527344 12.585938-7.117188 17.171875-4.585937 4.589844-10.6875 7.113281-17.171875 7.113281zm0-40.574218c-4.351562 0-8.445312 1.695312-11.519531 4.769531-6.351563 6.351563-6.351563 16.683594 0 23.035156 3.074219 3.078125 7.167969 4.769531 11.519531 4.769531 4.351563 0 8.441406-1.691406 11.515625-4.769531 3.078125-3.078125 4.773438-7.164062 4.773438-11.515625 0-4.351562-1.695313-8.441406-4.773438-11.519531-3.074219-3.074219-7.164062-4.769531-11.515625-4.769531zm0 0" fill="#690589"/><path d="m466.789062 164.015625c0 11.207031-9.082031 20.289063-20.285156 20.289063-11.207031 0-20.289062-9.082032-20.289062-20.289063 0-11.203125 9.082031-20.289063 20.289062-20.289063 11.203125 0 20.285156 9.085938 20.285156 20.289063zm0 0" fill="#e12579"/><path d="m446.503906 188.304688c-6.488281 0-12.589844-2.527344-17.175781-7.113282-9.46875-9.472656-9.46875-24.878906 0-34.347656 4.585937-4.585938 10.6875-7.113281 17.175781-7.113281 6.484375 0 12.585938 2.527343 17.171875 7.113281 4.589844 4.585938 7.117188 10.6875 7.117188 17.175781s-2.527344 12.585938-7.117188 17.171875c-4.585937 4.585938-10.6875 7.113282-17.171875 7.113282zm0-40.578126c-4.351562 0-8.445312 1.695313-11.519531 4.769532-6.351563 6.351562-6.351563 16.6875 0 23.035156 3.074219 3.078125 7.167969 4.769531 11.519531 4.769531 4.351563 0 8.441406-1.691406 11.515625-4.769531 3.078125-3.078125 4.773438-7.164062 4.773438-11.515625s-1.695313-8.441406-4.773438-11.519531c-3.074219-3.074219-7.164062-4.769532-11.515625-4.769532zm0 0" fill="#690589"/><path d="m466.789062 244.59375c0 11.203125-9.082031 20.285156-20.285156 20.285156-11.207031 0-20.289062-9.082031-20.289062-20.285156 0-11.207031 9.082031-20.289062 20.289062-20.289062 11.203125 0 20.285156 9.082031 20.285156 20.289062zm0 0" fill="#5d8e33"/><path d="m446.503906 268.878906c-6.488281 0-12.589844-2.523437-17.175781-7.113281-9.46875-9.46875-9.46875-24.878906 0-34.347656 4.585937-4.589844 10.6875-7.113281 17.175781-7.113281 6.484375 0 12.585938 2.523437 17.171875 7.113281 4.589844 4.585937 7.117188 10.6875 7.117188 17.175781 0 6.484375-2.527344 12.585938-7.117188 17.171875-4.585937 4.589844-10.6875 7.113281-17.171875 7.113281zm0-40.574218c-4.351562 0-8.445312 1.691406-11.519531 4.769531-6.351563 6.351562-6.351563 16.683593 0 23.035156 3.074219 3.078125 7.167969 4.769531 11.519531 4.769531 4.351563 0 8.441406-1.691406 11.515625-4.769531 3.078125-3.078125 4.773438-7.164063 4.773438-11.515625 0-4.355469-1.695313-8.441406-4.773438-11.519531-3.074219-3.078125-7.164062-4.769531-11.515625-4.769531zm0 0" fill="#690589"/><path d="m89.40625 248.59375h-31.910156c-2.207032 0-4-1.792969-4-4 0-2.210938 1.792968-4 4-4h31.910156c3.308594 0 6-2.695312 6-6v-141.152344c0-3.308594-2.691406-6-6-6h-31.910156c-2.207032 0-4-1.792968-4-4 0-2.210937 1.792968-4 4-4h31.910156c7.71875 0 14 6.277344 14 14v141.152344c0 7.71875-6.28125 14-14 14zm0 0" fill="#690589"/><path d="m121.875 168.015625h-64.378906c-2.207032 0-4-1.792969-4-4s1.792968-4 4-4h64.378906c2.207031 0 4 1.792969 4 4s-1.792969 4-4 4zm0 0" fill="#690589"/><path d="m77.785156 83.441406c0 11.203125-9.082031 20.285156-20.289062 20.285156-11.203125 0-20.285156-9.082031-20.285156-20.285156 0-11.207031 9.082031-20.289062 20.285156-20.289062 11.207031 0 20.289062 9.082031 20.289062 20.289062zm0 0" fill="#99ca6f"/><path d="m57.496094 107.726562c-6.484375 0-12.585938-2.523437-17.171875-7.113281-4.589844-4.585937-7.117188-10.683593-7.117188-17.171875 0-6.488281 2.527344-12.585937 7.117188-17.175781 4.585937-4.585937 10.6875-7.113281 17.171875-7.113281 6.488281 0 12.589844 2.527344 17.175781 7.113281 9.46875 9.46875 9.46875 24.878906 0 34.347656-4.585937 4.589844-10.6875 7.113281-17.175781 7.113281zm0-40.574218c-4.351563 0-8.441406 1.695312-11.515625 4.769531-3.078125 3.078125-4.773438 7.167969-4.773438 11.519531 0 4.351563 1.695313 8.4375 4.773438 11.515625 3.074219 3.078125 7.164062 4.769531 11.515625 4.769531 4.351562 0 8.445312-1.691406 11.519531-4.769531 6.351563-6.347656 6.351563-16.683593 0-23.035156-3.074219-3.074219-7.167969-4.769531-11.519531-4.769531zm-14.34375 1.941406h.019531zm0 0" fill="#690589"/><path d="m77.785156 164.015625c0 11.207031-9.082031 20.289063-20.289062 20.289063-11.203125 0-20.285156-9.082032-20.285156-20.289063 0-11.203125 9.082031-20.289063 20.285156-20.289063 11.207031 0 20.289062 9.085938 20.289062 20.289063zm0 0" fill="#ff61b5"/><path d="m57.496094 188.304688c-6.484375 0-12.585938-2.527344-17.171875-7.113282-4.589844-4.585937-7.117188-10.6875-7.117188-17.171875 0-6.488281 2.527344-12.585937 7.117188-17.175781 4.585937-4.585938 10.6875-7.113281 17.171875-7.113281 6.488281 0 12.589844 2.527343 17.175781 7.113281 9.46875 9.46875 9.46875 24.875 0 34.347656-4.585937 4.585938-10.6875 7.113282-17.175781 7.113282zm0-40.578126c-4.351563 0-8.441406 1.695313-11.515625 4.769532-3.078125 3.078125-4.773438 7.167968-4.773438 11.519531s1.695313 8.441406 4.773438 11.515625c3.074219 3.078125 7.164062 4.769531 11.515625 4.769531 4.351562 0 8.445312-1.691406 11.519531-4.769531 6.351563-6.347656 6.351563-16.683594 0-23.035156-3.074219-3.074219-7.167969-4.769532-11.519531-4.769532zm-14.34375 1.945313h.019531zm0 0" fill="#690589"/><path d="m77.785156 244.59375c0 11.203125-9.082031 20.285156-20.289062 20.285156-11.203125 0-20.285156-9.082031-20.285156-20.285156 0-11.207031 9.082031-20.289062 20.285156-20.289062 11.207031 0 20.289062 9.082031 20.289062 20.289062zm0 0" fill="#99ca6f"/><path d="m57.496094 268.878906c-6.484375 0-12.585938-2.523437-17.171875-7.113281-4.589844-4.585937-7.117188-10.6875-7.117188-17.171875 0-6.488281 2.527344-12.585938 7.117188-17.175781 4.585937-4.589844 10.6875-7.113281 17.171875-7.113281 6.488281 0 12.589844 2.523437 17.175781 7.113281 9.46875 9.46875 9.46875 24.878906 0 34.347656-4.585937 4.589844-10.6875 7.113281-17.175781 7.113281zm0-40.574218c-4.351563 0-8.441406 1.691406-11.515625 4.769531-3.078125 3.078125-4.773438 7.164062-4.773438 11.519531 0 4.351562 1.695313 8.4375 4.773438 11.515625 3.074219 3.078125 7.164062 4.769531 11.515625 4.769531 4.351562 0 8.445312-1.691406 11.519531-4.769531 6.351563-6.347656 6.351563-16.683594 0-23.035156-3.074219-3.078125-7.167969-4.769531-11.519531-4.769531zm-14.34375 1.941406h.019531zm0 0" fill="#690589"/></svg>