<svg height="512pt" viewBox="-13 0 511 512" width="512pt" xmlns="http://www.w3.org/2000/svg"><path d="m150.570312 0c-97.105468 44.136719-132.414062 8.828125-132.414062 8.828125 0 26.898437 56.308594 110.089844 83.15625 148.222656 8.738281-17.96875 22.871094-32.753906 40.429688-42.292969 7.90625-4.84375 14.667968-11.34375 19.816406-19.058593-6.117188-37.296875-10.988282-95.699219-10.988282-95.699219zm0 0" fill="#5dc382"/><path d="m47.285156 74.753906c-25.238281-11.019531-46.785156-21.789062-46.785156-21.789062.773438 15.066406 3.746094 29.9375 8.828125 44.136718 6.179687 18.636719 56.089844 54.734376 85.132813 74.496094.972656-1.351562 2.019531-2.644531 3.140624-3.875.941407-3.652344 2.183594-7.222656 3.710938-10.671875-14.046875-19.949219-36.105469-52.207031-54.027344-82.296875zm0 0" fill="#23b972"/><path d="m39.871094 131.027344c6.253906 20.652344 10.800781 41.78125 13.59375 63.179687 9.851562.101563 19.671875 1.097657 29.34375 2.976563 2.230468-9.195313 6.179687-17.878906 11.644531-25.601563-15.539063-10.566406-36.996094-25.8125-54.582031-40.554687zm0 0" fill="#5d9069"/><path d="m406.570312 229.515625c-22.660156-3.636719-45.796874-3.058594-68.246093 1.707031l-2.375 7.121094c-19.488281 16.429688-37.644531 34.371094-54.308594 53.65625 46.742187 7.5625 134.222656 78.757812 142.582031 78.757812h26.484375c0-26.480468 35.308594-132.414062 35.308594-132.414062-26.691406-.582031-53.277344-3.535156-79.445313-8.828125zm0 0" fill="#5dc382"/><path d="m423.085938 370.386719c-12.472657-3.890625-96.0625-71.042969-141.445313-78.386719l.40625-.433594c-5.757813 6.75-12.792969 12.296875-20.699219 16.320313l83.429688 133.492187s79.445312-17.65625 97.101562-44.136718zm0 0" fill="#23b972"/><path d="m263.5625 306.933594c-.792969.355468-1.5.707031-2.207031.972656l3.796875 6.003906 25.332031 40.515625-7.5 7.503907-44.140625 35.3125-2.558594 5.207031c-4.445312 8.785156-8.191406 17.90625-11.210937 27.277343-2.929688 8.710938-6.53125 17.183594-10.769531 25.335938l-23.570313 47.140625c-2.980469 5.996094-9.101563 9.792969-15.800781 9.796875h-134.445313c-6.355469-.015625-12.210937-3.441406-15.335937-8.976562-3.125-5.535157-3.03125-12.324219.242187-17.769532l61.4375-102.488281c23.472657-39.441406 24.644531-88.277344 3.089844-128.796875-6.082031-10.070312-9.511719-21.519531-9.972656-33.277344-.917969-19.238281 5.378906-38.125 17.652343-52.96875 8.828126-35.308594 44.140626-52.964844 44.140626-52.964844 9.929687-6.464843 18.238281-15.136718 24.273437-25.335937 1.792969-2.792969 4.417969-4.957031 7.503906-6.179687 6.703125-3.027344 14.582031-1.585938 19.773438 3.621093l1.589843 1.589844 17.480469 11.5625c5.515625 3.722656 8.820313 9.941406 8.828125 16.597656v6.972657l.617188-.617188c4.910156-4.914062 12.417968-6.125 18.625-3l15.976562 8.03125c5.476563 2.699219 8.9375 8.285156 8.917969 14.390625v7.679687l14.652344 7.324219c11.851562 5.917969 17.539062 19.660157 13.332031 32.222657l-1.503906 4.589843 10.949218 3.621094c9.945313 3.339844 18.164063 10.480469 22.863282 19.859375l10.328125 20.65625c-19.507813 16.40625-37.664063 34.351562-54.289063 53.671875-5.285156 5.816406-11.382812 10.839844-18.097656 14.917969zm0 0" fill="#fedebb"/><g fill="#f5a585"><path d="m265.152344 313.910156c-.382813 2.300782-1.691406 4.34375-3.621094 5.648438-1.472656 1.035156-3.230469 1.589844-5.03125 1.589844-2.882812-.023438-5.582031-1.4375-7.238281-3.796876-27.453125-39.28125-95.425781-107.429687-96.132813-108.050781-2.6875-2.710937-3.328125-6.839843-1.589844-10.238281 3.792969-8.726562 3.792969-18.636719 0-27.367188-1.992187-3.984374-.707031-8.828124 3.003907-11.296874 37.339843-24.984376 30.808593-52.613282 18.976562-77.15625 6.703125-3.027344 14.582031-1.585938 19.773438 3.621093l1.589843 1.589844c8.121094 22.332031 11.742188 54.996094-24.894531 82.625 2.886719 9.777344 2.828125 20.183594-.175781 29.925781 15.449219 15.625 68.945312 70.710938 93.75 105.929688.085938.089844.085938.179687.175781.265625 1.355469 1.957031 1.863281 4.375 1.414063 6.710937zm0 0"/><path d="m177.050781 220.691406c-4.875 0-8.828125-3.953125-8.828125-8.828125 0-28.496093 41.09375-86.847656 45.78125-93.40625 2.832032-3.96875 8.347656-4.890625 12.316406-2.054687 3.964844 2.832031 4.886719 8.34375 2.054688 12.3125-16.429688 23.015625-42.496094 65.933594-42.496094 83.148437 0 4.875-3.953125 8.828125-8.828125 8.828125zm0 0"/><path d="m203.535156 247.171875c-4.101562.007813-7.664062-2.808594-8.609375-6.796875-.941406-3.988281.984375-8.101562 4.652344-9.929688 7.636719-3.816406 21.480469-27.527343 31.585937-44.84375 7.785157-14.882812 17.140626-28.886718 27.914063-41.773437 3.464844-3.34375 8.96875-3.296875 12.375.105469 3.40625 3.40625 3.453125 8.914062.105469 12.375-9.601563 11.886718-18.027344 24.679687-25.148438 38.199218-16.542968 28.34375-27.425781 45.972657-38.9375 51.738282-1.222656.609375-2.570312.925781-3.9375.925781zm0 0"/><path d="m238.84375 291.308594c-4.875 0-8.828125-3.949219-8.828125-8.824219 0-19.421875 17.179687-56.144531 55.554687-94.519531 3.460938-3.34375 8.96875-3.296875 12.375.109375 3.402344 3.402343 3.453126 8.910156.105469 12.375-32.722656 32.722656-50.378906 66.691406-50.378906 82.035156 0 4.875-3.953125 8.824219-8.828125 8.824219zm0 0"/><path d="m256.5 317.792969c-4.875 0-8.828125-3.953125-8.828125-8.828125s3.953125-8.828125 8.828125-8.828125c5.976562 0 20.03125-15.332031 31.320312-27.664063 12.984376-15.015625 27.320313-28.800781 42.832032-41.191406 2.523437-1.890625 5.863281-2.292969 8.761718-1.054688 2.902344 1.238282 4.921876 3.929688 5.296876 7.0625.378906 3.132813-.941407 6.226563-3.464844 8.117188-14.625 11.75-28.148438 24.800781-40.40625 39-17.761719 19.378906-30.59375 33.386719-44.339844 33.386719zm0 0"/><path d="m203.535156 388.414062c-3.363281.019532-6.441406-1.875-7.945312-4.882812-15.449219-30.894531-55.242188-39.351562-55.613282-39.433594-4.65625-1.070312-7.613281-5.65625-6.671874-10.339844.941406-4.683593 5.441406-7.769531 10.148437-6.960937 1.976563.390625 48.550781 10.117187 67.972656 48.84375 1.367188 2.734375 1.222657 5.984375-.386719 8.585937-1.605468 2.601563-4.445312 4.1875-7.503906 4.1875zm0 0"/></g></svg>