<?xml version="1.0" encoding="iso-8859-1"?>
<!-- Generator: Adobe Illustrator 21.0.0, SVG Export Plug-In . SVG Version: 6.00 Build 0)  -->
<svg version="1.1" id="Capa_1" xmlns="http://www.w3.org/2000/svg" xmlns:xlink="http://www.w3.org/1999/xlink" x="0px" y="0px"
	 viewBox="0 0 512 512" style="enable-background:new 0 0 512 512;" xml:space="preserve">
<g>
	<path style="fill:#4FBA6F;" d="M414.897,422.695h61.793c19.501,0,35.31-15.809,35.31-35.31V69.591
		c0-19.501-15.809-35.31-35.31-35.31H35.31C15.809,34.281,0,50.09,0,69.591v317.793c0,19.501,15.809,35.31,35.31,35.31h291.31"/>
	<path style="fill:#C03A2B;" d="M414.897,343.247v125.652c-0.003,3.178-1.713,6.11-4.479,7.675c-2.766,1.566-6.16,1.524-8.886-0.11
		l-26.236-15.731c-2.793-1.674-6.281-1.674-9.075,0l-26.236,15.731c-2.726,1.634-6.12,1.676-8.886,0.11
		c-2.766-1.566-4.477-4.497-4.479-7.675V343.247H414.897z"/>
	<g>
		<path style="fill:#ECF0F1;" d="M74.284,83.592c3.316,3.306,5.175,7.799,5.164,12.482c0,4.875,3.952,8.828,8.828,8.828
			c4.875,0,8.828-3.952,8.828-8.828c0-19.501-15.809-35.31-35.31-35.31s-35.31,15.809-35.31,35.31s15.809,35.31,35.31,35.31
			c9.751,0,17.655,7.904,17.655,17.655c0,9.751-7.904,17.655-17.655,17.655s-17.655-7.904-17.655-17.655
			c0-4.875-3.952-8.828-8.828-8.828s-8.828,3.952-8.828,8.828c0,19.501,15.809,35.31,35.31,35.31s35.31-15.809,35.31-35.31
			s-15.809-35.31-35.31-35.31c-7.144,0.002-13.584-4.301-16.317-10.901c-2.733-6.6-1.219-14.197,3.835-19.245
			C56.304,76.921,67.296,76.925,74.284,83.592z"/>
		<path style="fill:#ECF0F1;" d="M162.56,83.592c3.316,3.306,5.175,7.799,5.164,12.482c0,4.875,3.952,8.828,8.828,8.828
			s8.828-3.952,8.828-8.828c0-19.501-15.809-35.31-35.31-35.31s-35.31,15.809-35.31,35.31s15.809,35.31,35.31,35.31
			c9.751,0,17.655,7.904,17.655,17.655c0,9.751-7.904,17.655-17.655,17.655s-17.655-7.904-17.655-17.655
			c0-4.875-3.952-8.828-8.828-8.828c-4.875,0-8.828,3.952-8.828,8.828c0,19.501,15.809,35.31,35.31,35.31s35.31-15.809,35.31-35.31
			s-15.809-35.31-35.31-35.31c-7.144,0.002-13.584-4.301-16.317-10.901s-1.219-14.197,3.835-19.245
			C144.58,76.921,155.572,76.925,162.56,83.592z"/>
		<path style="fill:#ECF0F1;" d="M264.828,166.695H220.69V69.591c0-4.875-3.952-8.828-8.828-8.828c-4.875,0-8.828,3.952-8.828,8.828
			v97.103c0,9.751,7.904,17.655,17.655,17.655h44.138c4.875,0,8.828-3.952,8.828-8.828S269.703,166.695,264.828,166.695z"/>
	</g>
	<g>
		<path style="fill:#4C8056;" d="M35.31,219.66h26.483c4.875,0,8.828-3.952,8.828-8.828c0-4.875-3.952-8.828-8.828-8.828H35.31
			c-4.875,0-8.828,3.952-8.828,8.828C26.483,215.708,30.435,219.66,35.31,219.66z"/>
		<path style="fill:#4C8056;" d="M97.103,219.66h132.414c4.875,0,8.828-3.952,8.828-8.828c0-4.875-3.952-8.828-8.828-8.828H97.103
			c-4.875,0-8.828,3.952-8.828,8.828C88.276,215.708,92.228,219.66,97.103,219.66z"/>
		<path style="fill:#4C8056;" d="M229.517,246.143h-26.483c-4.875,0-8.828,3.952-8.828,8.828c0,4.875,3.952,8.828,8.828,8.828
			h26.483c4.875,0,8.828-3.952,8.828-8.828C238.345,250.095,234.393,246.143,229.517,246.143z"/>
		<path style="fill:#4C8056;" d="M35.31,263.798h132.414c4.875,0,8.828-3.952,8.828-8.828c0-4.875-3.952-8.828-8.828-8.828H35.31
			c-4.875,0-8.828,3.952-8.828,8.828C26.483,259.846,30.435,263.798,35.31,263.798z"/>
		<path style="fill:#4C8056;" d="M229.517,290.281H35.31c-4.875,0-8.828,3.952-8.828,8.828s3.952,8.828,8.828,8.828h194.207
			c4.875,0,8.828-3.952,8.828-8.828S234.393,290.281,229.517,290.281z"/>
		<path style="fill:#4C8056;" d="M57.379,343.247h150.069c12.188,0,22.069,9.881,22.069,22.069l0,0
			c0,12.188-9.881,22.069-22.069,22.069H57.379c-12.188,0-22.069-9.881-22.069-22.069l0,0
			C35.31,353.127,45.191,343.247,57.379,343.247z"/>
	</g>
	<path style="fill:#E64C3C;" d="M376.196,179.142l24.126-7.812c8.257-2.685,17.24,1.032,21.186,8.766l11.538,22.581
		c1.686,3.311,4.378,6.003,7.689,7.689l22.581,11.538c7.734,3.946,11.451,12.929,8.766,21.186l-7.812,24.126
		c-1.139,3.536-1.139,7.34,0,10.876l7.812,24.126c2.685,8.257-1.032,17.24-8.766,21.186l-22.581,11.538
		c-3.311,1.686-6.003,4.378-7.689,7.689l-11.538,22.581c-3.946,7.734-12.929,11.451-21.186,8.766l-24.126-7.812
		c-3.536-1.139-7.34-1.139-10.876,0l-24.126,7.812c-8.257,2.685-17.24-1.032-21.186-8.766l-11.538-22.581
		c-1.686-3.311-4.378-6.003-7.689-7.689l-22.581-11.538c-7.734-3.946-11.451-12.929-8.766-21.186l7.812-24.126
		c1.139-3.536,1.139-7.34,0-10.876l-7.812-24.126c-2.685-8.257,1.032-17.24,8.766-21.186l22.581-11.538
		c3.311-1.686,6.003-4.378,7.689-7.689l11.538-22.581c3.946-7.734,12.929-11.451,21.186-8.766l24.126,7.812
		C368.857,180.281,372.661,180.281,376.196,179.142z"/>
	<circle style="fill:#F0C419;" cx="370.759" cy="272.626" r="61.793"/>
</g>
<g>
</g>
<g>
</g>
<g>
</g>
<g>
</g>
<g>
</g>
<g>
</g>
<g>
</g>
<g>
</g>
<g>
</g>
<g>
</g>
<g>
</g>
<g>
</g>
<g>
</g>
<g>
</g>
<g>
</g>
</svg>
