<svg height="512" viewBox="0 0 64 64" width="512" xmlns="http://www.w3.org/2000/svg"><g id="cloud-server-shield-protect-database"><path d="m17 33a10 10 0 0 1 -.83-19.96 11.984 11.984 0 0 1 22.15-4.14 7.988 7.988 0 0 1 11.22 4.44 9.993 9.993 0 0 1 -2.54 19.66z" fill="#57a4ff"/><g fill="#2488ff"><path d="m37.73 8.01a7.95 7.95 0 0 0 -3.41.89 11.97 11.97 0 0 0 -8.33-5.73 11.955 11.955 0 0 1 11.74 4.84z"/><path d="m57 23a10 10 0 0 1 -10 10h-4a9.993 9.993 0 0 0 2.54-19.66 8.008 8.008 0 0 0 -5.54-5.08 7.779 7.779 0 0 1 2-.26 8 8 0 0 1 7.54 5.34 9.991 9.991 0 0 1 7.46 9.66z"/><path d="m40 8.26a8.1 8.1 0 0 0 -1.68.64 10.548 10.548 0 0 0 -.59-.89 2.437 2.437 0 0 1 .27-.01 7.779 7.779 0 0 1 2 .26z"/></g><path d="m10 49h44v12h-44z" fill="#fee9ab"/><path d="m10 37h44v12h-44z" fill="#ff7956"/><path d="m50 49h4v12h-4z" fill="#ffde55"/><path d="m50 37h4v12h-4z" fill="#ff5023"/><path d="m43 19v8.69a12.1 12.1 0 0 1 -3.93 8.88l-.47.43-6.6 6-6.6-6-.47-.43a12.1 12.1 0 0 1 -3.93-8.88v-8.69l11-4z" fill="#ffde55"/><circle cx="32" cy="55" fill="#2488ff" r="2"/><circle cx="24" cy="43" fill="#9cdd05" r="2"/><circle cx="24" cy="55" fill="#ff3051" r="2"/><circle cx="16" cy="43" fill="#ff3051" r="2"/><path d="m26 43a2 2 0 0 1 -3 1.73 2 2 0 0 0 0-3.46 2 2 0 0 1 3 1.73z" fill="#5eac24"/><path d="m18 43a2 2 0 0 1 -3 1.73 2 2 0 0 0 0-3.46 2 2 0 0 1 3 1.73z" fill="#cd2a00"/><path d="m26 55a2 2 0 0 1 -3 1.73 2 2 0 0 0 0-3.46 2 2 0 0 1 3 1.73z" fill="#cd2a00"/><circle cx="16" cy="55" fill="#9cdd05" r="2"/><path d="m43 19v8.69a12 12 0 0 1 -3.93 8.88l-7.07 6.43-2-1.82 5.07-4.61a12 12 0 0 0 3.93-8.88v-8.69l-9-3.27 2-.73z" fill="#ebbf00"/><path d="m18 55a2 2 0 0 1 -3 1.73 2 2 0 0 0 0-3.46 2 2 0 0 1 3 1.73z" fill="#5eac24"/><path d="m34 55a2 2 0 0 1 -3 1.73 2 2 0 0 0 0-3.46 2 2 0 0 1 3 1.73z" fill="#006df0"/><path d="m16 40a3 3 0 1 0 3 3 3 3 0 0 0 -3-3zm0 4a1 1 0 1 1 1-1 1 1 0 0 1 -1 1z"/><path d="m54 36h-13.02a13.675 13.675 0 0 0 1.38-2h4.64a10.991 10.991 0 0 0 3.29-21.48 8.991 8.991 0 0 0 -11.6-4.89 12.979 12.979 0 0 0 -23.36 4.5 11 11 0 0 0 1.67 21.87h4.64a13.675 13.675 0 0 0 1.38 2h-13.02a1 1 0 0 0 -1 1v24a1 1 0 0 0 1 1h44a1 1 0 0 0 1-1v-24a1 1 0 0 0 -1-1zm-33.25-4h-3.75a9 9 0 0 1 -.75-17.96 1.009 1.009 0 0 0 .91-.84 10.982 10.982 0 0 1 20.3-3.79 1 1 0 0 0 1.32.38 6.988 6.988 0 0 1 9.82 3.88 1.006 1.006 0 0 0 .69.64 8.992 8.992 0 0 1 -2.29 17.69h-3.75a13.065 13.065 0 0 0 .75-4.31v-8.69a.992.992 0 0 0 -.66-.94l-11-4a.993.993 0 0 0 -.68 0l-11 4a.992.992 0 0 0 -.66.94v8.69a13.065 13.065 0 0 0 .75 4.31zm1.25-4.31v-7.99l10-3.64 10 3.64v7.99a11.02 11.02 0 0 1 -3.6 8.14l-6.4 5.82-6.4-5.82a11.02 11.02 0 0 1 -3.6-8.14zm31 32.31h-42v-10h42zm0-12h-42v-10h14.01l6.32 5.74a.993.993 0 0 0 1.34 0l6.32-5.74h14.01z"/><path d="m49 40h2v2h-2z"/><path d="m49 44h2v2h-2z"/><path d="m16 58a3 3 0 1 0 -3-3 3 3 0 0 0 3 3zm0-4a1 1 0 1 1 -1 1 1 1 0 0 1 1-1z"/><path d="m24 58a3 3 0 1 0 -3-3 3 3 0 0 0 3 3zm0-4a1 1 0 1 1 -1 1 1 1 0 0 1 1-1z"/><path d="m24 40a3 3 0 1 0 3 3 3 3 0 0 0 -3-3zm0 4a1 1 0 1 1 1-1 1 1 0 0 1 -1 1z"/><path d="m32 58a3 3 0 1 0 -3-3 3 3 0 0 0 3 3zm0-4a1 1 0 1 1 -1 1 1 1 0 0 1 1-1z"/><path d="m49 52h2v2h-2z"/><path d="m49 56h2v2h-2z"/><path d="m43 52h2v2h-2z"/><path d="m43 56h2v2h-2z"/><path d="m37 52h2v2h-2z"/><path d="m37 56h2v2h-2z"/><path d="m43 40h2v2h-2z"/><path d="m43 44h2v2h-2z"/><path d="m37 44h2v2h-2z"/><path d="m2 42v13a1 1 0 0 0 1 1h4v-2h-3v-11h3v-2h-4a1 1 0 0 0 -1 1z"/><path d="m61 41h-4v2h3v11h-3v2h4a1 1 0 0 0 1-1v-13a1 1 0 0 0 -1-1z"/><path d="m27.707 27.293-1.414 1.414 4 4a1 1 0 0 0 1.414 0l7-7-1.414-1.414-6.293 6.293z"/></g></svg>