<svg id="Capa_1" enable-background="new 0 0 512 512" height="512" viewBox="0 0 512 512" width="512" xmlns="http://www.w3.org/2000/svg"><g><g><path d="m512 85.333h-512v-64.52c0-11.495 9.318-20.813 20.813-20.813h470.374c11.495 0 20.813 9.318 20.813 20.813z" fill="#80b4fb"/></g><g><path d="m491.187 0h-31.22c11.495 0 20.813 9.318 20.813 20.813v64.52h31.22v-64.52c0-11.495-9.318-20.813-20.813-20.813z" fill="#61a2f9"/></g><g><path d="m0 85.333h512v405.854c0 11.495-9.318 20.813-20.813 20.813h-470.374c-11.495 0-20.813-9.318-20.813-20.813z" fill="#e4f6ff"/></g><g><path d="m480.78 85.333v405.854c0 11.495-9.318 20.813-20.813 20.813h31.22c11.495 0 20.813-9.318 20.813-20.813v-405.854z" fill="#b9e4ef"/></g><g><path d="m87.415 179.055v-20.939c0-3.414 2.767-6.181 6.181-6.181h75.052c3.414 0 6.181 2.767 6.181 6.181v20.939c0 3.414-2.767 6.181-6.181 6.181h-75.052c-3.414 0-6.181-2.768-6.181-6.181z" fill="#e278b1"/></g><g><path d="m208.13 179.055v-20.939c0-3.414 2.767-6.181 6.181-6.181h258.207c3.414 0 6.181 2.767 6.181 6.181v20.939c0 3.414-2.767 6.181-6.181 6.181h-258.207c-3.414 0-6.181-2.768-6.181-6.181z" fill="#9bb9c1"/></g><g><path d="m33.301 245.656v-20.939c0-3.414 2.767-6.181 6.181-6.181h75.052c3.414 0 6.181 2.767 6.181 6.181v20.939c0 3.414-2.767 6.181-6.181 6.181h-75.052c-3.414 0-6.181-2.767-6.181-6.181z" fill="#e278b1"/></g><g><path d="m154.016 245.656v-20.939c0-3.414 2.767-6.181 6.181-6.181h133.329c3.414 0 6.181 2.767 6.181 6.181v20.939c0 3.414-2.767 6.181-6.181 6.181h-133.329c-3.413 0-6.181-2.767-6.181-6.181z" fill="#ffe07d"/></g><g><path d="m333.008 245.656v-20.939c0-3.414 2.767-6.181 6.181-6.181h133.329c3.414 0 6.181 2.767 6.181 6.181v20.939c0 3.414-2.767 6.181-6.181 6.181h-133.329c-3.414 0-6.181-2.767-6.181-6.181z" fill="#ffe07d"/></g><g><path d="m33.301 312.258v-20.939c0-3.414 2.767-6.181 6.181-6.181h75.052c3.414 0 6.181 2.767 6.181 6.181v20.939c0 3.414-2.767 6.181-6.181 6.181h-75.052c-3.414 0-6.181-2.767-6.181-6.181z" fill="#e278b1"/></g><g><path d="m154.016 312.258v-20.939c0-3.414 2.767-6.181 6.181-6.181h206.174c3.414 0 6.181 2.767 6.181 6.181v20.939c0 3.414-2.767 6.181-6.181 6.181h-206.174c-3.413 0-6.181-2.767-6.181-6.181z" fill="#9bb9c1"/></g><g><path d="m33.301 378.86v-20.939c0-3.414 2.767-6.181 6.181-6.181h75.052c3.414 0 6.181 2.767 6.181 6.181v20.939c0 3.414-2.767 6.181-6.181 6.181h-75.052c-3.414 0-6.181-2.768-6.181-6.181z" fill="#e278b1"/></g><g><path d="m154.016 378.86v-20.939c0-3.414 2.767-6.181 6.181-6.181h174.955c3.414 0 6.181 2.767 6.181 6.181v20.939c0 3.414-2.767 6.181-6.181 6.181h-174.955c-3.413 0-6.181-2.768-6.181-6.181z" fill="#ffe07d"/></g><g><path d="m33.301 445.461v-20.939c0-3.414 2.767-6.181 6.181-6.181h75.052c3.414 0 6.181 2.767 6.181 6.181v20.939c0 3.414-2.767 6.181-6.181 6.181h-75.052c-3.414 0-6.181-2.767-6.181-6.181z" fill="#e278b1"/></g><g><path d="m154.016 445.461v-20.939c0-3.414 2.767-6.181 6.181-6.181h233.231c3.414 0 6.181 2.767 6.181 6.181v20.939c0 3.414-2.767 6.181-6.181 6.181h-233.231c-3.413 0-6.181-2.767-6.181-6.181z" fill="#9bb9c1"/></g><g><circle cx="444.358" cy="42.667" fill="#a2f4c1" r="12.488"/></g><g><circle cx="401.691" cy="42.667" fill="#ffe07d" r="12.488"/></g><g><circle cx="359.024" cy="42.667" fill="#e278b1" r="12.488"/></g><g><path d="m54.109 192.963c-1.693 0-3.397-.554-4.821-1.694l-20.813-16.65c-1.833-1.466-2.9-3.686-2.9-6.033s1.067-4.567 2.9-6.033l20.813-16.65c3.331-2.667 8.193-2.126 10.86 1.207 2.665 3.332 2.126 8.194-1.207 10.86l-13.271 10.617 13.271 10.617c3.332 2.665 3.872 7.528 1.207 10.86-1.527 1.906-3.773 2.899-6.039 2.899z" fill="#80b4fb"/></g><g><path d="m432.915 459.369c-2.267 0-4.512-.992-6.038-2.9-2.665-3.332-2.126-8.194 1.207-10.86l13.271-10.617-13.271-10.617c-3.333-2.665-3.872-7.528-1.207-10.86 2.666-3.332 7.528-3.873 10.86-1.207l20.813 16.65c1.833 1.466 2.9 3.686 2.9 6.033s-1.067 4.567-2.9 6.033l-20.813 16.65c-1.424 1.141-3.129 1.695-4.822 1.695z" fill="#80b4fb"/></g></g></svg>