<?xml version="1.0"?>
<svg xmlns="http://www.w3.org/2000/svg" viewBox="0 0 64 64" width="512" height="512"><g id="copyright"><path d="M47,10V59a2.006,2.006,0,0,1-2,2H5a2.006,2.006,0,0,1-2-2V5A2.006,2.006,0,0,1,5,3H40v7Z" style="fill:#ebe5dd"/><path d="M47,10V59a2.006,2.006,0,0,1-2,2H41a2.006,2.006,0,0,0,2-2V10Z" style="fill:#c0ab91"/><path d="M35,16c0,.65-.61,1.17-1.25,1.68a4.318,4.318,0,0,0-1.36,1.38c-.45,1.1.51,3.18-.32,4.01s-2.91-.13-4.01.32a4.318,4.318,0,0,0-1.38,1.36C26.17,25.39,25.65,26,25,26s-1.17-.61-1.68-1.25a4.318,4.318,0,0,0-1.38-1.36c-1.1-.45-3.18.51-4.01-.32s.13-2.91-.32-4.01a4.318,4.318,0,0,0-1.36-1.38C15.61,17.17,15,16.65,15,16c0-1.22,2.17-2,2.61-3.06.45-1.1-.51-3.18.32-4.01s2.91.13,4.01-.32C23,8.17,23.78,6,25,6s2,2.17,3.06,2.61c1.1.45,3.18-.51,4.01.32s-.13,2.91.32,4.01C32.83,14,35,14.78,35,16Z" style="fill:#ffde55"/><circle cx="25" cy="16" r="4" style="fill:#ff7956"/><path d="M61,26v9.71a19.978,19.978,0,0,1-8.38,16.27L47,56l-5.62-4.02c-.43-.31-.85-.63-1.25-.98a19.656,19.656,0,0,1-3.63-4,19.127,19.127,0,0,1-2.11-4,18.247,18.247,0,0,1-1.11-4A18.978,18.978,0,0,1,33,35.71V26l2.12-.91h.01l4.22-1.81L47,20Z" style="fill:#e0e0e2"/><path d="M61,26v9.71a19.978,19.978,0,0,1-8.38,16.27L47,56l-2-1.43,3.62-2.59A19.978,19.978,0,0,0,57,35.71V26L45,20.86,47,20Z" style="fill:#c6c5ca"/><path d="M57,29v6.31A16,16,0,0,1,51,47.8L47,51l-4-3.2a16,16,0,0,1-6-12.49V29l10-4Z" style="fill:#57a4ff"/><path d="M57,29v6.31A16,16,0,0,1,51,47.8L47,51l-2-1.6,2-1.6a16,16,0,0,0,6-12.49V29l-8-3.2,2-.8Z" style="fill:#2488ff"/><polygon points="47 10 40 10 40 3 47 10" style="fill:#a78966"/><path d="M39.35,23.28l-4.22,1.81h-.01L33,26v5.07l-6.32-6.32a4.318,4.318,0,0,1,1.38-1.36c1.1-.45,3.18.51,4.01-.32s-.13-2.91.32-4.01a4.318,4.318,0,0,1,1.36-1.38Z" style="fill:#ff7956"/><path d="M23.32,24.75l-6.81,6.81-.7-6.37-6.37-.7,6.81-6.81a4.318,4.318,0,0,1,1.36,1.38c.45,1.1-.51,3.18.32,4.01s2.91-.13,4.01.32A4.318,4.318,0,0,1,23.32,24.75Z" style="fill:#ff7956"/><path d="M61.39,25.08,48,19.34V10a1.033,1.033,0,0,0-.29-.71l-7-7A1.033,1.033,0,0,0,40,2H5A3.009,3.009,0,0,0,2,5V59a3.009,3.009,0,0,0,3,3H45a3.009,3.009,0,0,0,3-3V56.51l5.21-3.71A21.063,21.063,0,0,0,62,35.71V26A1,1,0,0,0,61.39,25.08ZM41,5.41,44.59,9H41ZM46,59a1,1,0,0,1-1,1H5a1,1,0,0,1-1-1V5A1,1,0,0,1,5,4H39v6a1,1,0,0,0,1,1h6v8.34l-6.42,2.75-4.37-4.37A2.482,2.482,0,0,0,36,16c0-1.18-.98-1.95-1.76-2.57a3.91,3.91,0,0,1-.92-.87,3.617,3.617,0,0,1,.02-1.35c.11-1.03.24-2.19-.56-2.99s-1.97-.67-2.99-.56a3.562,3.562,0,0,1-1.34.02,3.726,3.726,0,0,1-.88-.92C26.95,5.97,26.18,5,25,5s-1.95.98-2.57,1.76a3.91,3.91,0,0,1-.87.92,3.617,3.617,0,0,1-1.35-.02c-1.03-.11-2.19-.24-2.99.56s-.67,1.96-.56,2.99a3.562,3.562,0,0,1,.02,1.34,3.726,3.726,0,0,1-.92.88C14.97,14.05,14,14.82,14,16a2.482,2.482,0,0,0,.79,1.72L8.73,23.78a1,1,0,0,0-.23,1.04.986.986,0,0,0,.83.66l5.57.62.62,5.57a.986.986,0,0,0,.66.83.96.96,0,0,0,.33.06,1.007,1.007,0,0,0,.71-.29l6.06-6.06a2.267,2.267,0,0,0,3.44,0L32,31.48v4.23A21.816,21.816,0,0,0,32.13,38H8v2H32.45c.15.68.32,1.34.52,2H8v2H33.72a21.844,21.844,0,0,0,.99,2H8v2H35.99a19.585,19.585,0,0,0,1.64,2H8v2H39.75c.34.27.69.54,1.04.8L46,56.51ZM17.22,23.78c.8.8,1.96.67,2.99.56a3.785,3.785,0,0,1,1.34-.02,1.384,1.384,0,0,1,.42.36l-4.69,4.7-.48-4.3a1,1,0,0,0-.88-.88l-4.3-.48,4.7-4.69a1.371,1.371,0,0,1,.36.41,3.617,3.617,0,0,1-.02,1.35C16.55,21.82,16.42,22.98,17.22,23.78Zm3.91-1.52a10.939,10.939,0,0,0-1.14.09,3.84,3.84,0,0,1-1.35.02,3.629,3.629,0,0,1,.01-1.36,4.688,4.688,0,0,0-.12-2.33A4.544,4.544,0,0,0,17,17c-.33-.26-1-.79-1-1s.67-.74,1-1a4.544,4.544,0,0,0,1.53-1.68,4.688,4.688,0,0,0,.12-2.33,3.84,3.84,0,0,1-.02-1.35,3.629,3.629,0,0,1,1.36.01,4.688,4.688,0,0,0,2.33-.12A4.544,4.544,0,0,0,24,8c.26-.33.79-1,1-1s.74.67,1,1a4.544,4.544,0,0,0,1.68,1.53,4.688,4.688,0,0,0,2.33.12,3.84,3.84,0,0,1,1.35-.02,3.629,3.629,0,0,1-.01,1.36,4.688,4.688,0,0,0,.12,2.33A4.544,4.544,0,0,0,33,15c.33.26,1,.79,1,1s-.67.74-1,1a4.544,4.544,0,0,0-1.53,1.68,4.688,4.688,0,0,0-.12,2.33,3.84,3.84,0,0,1,.02,1.35,3.854,3.854,0,0,1-1.36-.01,4.688,4.688,0,0,0-2.33.12A4.544,4.544,0,0,0,26,24c-.26.33-.79,1-1,1s-.74-.67-1-1a4.544,4.544,0,0,0-1.68-1.53A3.021,3.021,0,0,0,21.13,22.26Zm7.31,2.06a3.617,3.617,0,0,1,1.35.02c1.02.11,2.19.24,2.99-.56s.67-1.96.56-2.99a3.562,3.562,0,0,1-.02-1.34,1.384,1.384,0,0,1,.36-.42l3.92,3.91-4.99,2.14A1,1,0,0,0,32,26v2.66l-3.97-3.98A1.371,1.371,0,0,1,28.44,24.32ZM60,35.71a19.023,19.023,0,0,1-7.96,15.46L47,54.77l-5.04-3.6A19.023,19.023,0,0,1,34,35.71V26.66l13-5.57,13,5.57Z"/><path d="M46.629,24.071l-10,4A1,1,0,0,0,36,29v6.31a16.914,16.914,0,0,0,6.38,13.275l3.995,3.2a1,1,0,0,0,1.25,0l3.995-3.2A16.914,16.914,0,0,0,58,35.31V29a1,1,0,0,0-.629-.929l-10-4A1,1,0,0,0,46.629,24.071ZM56,29.677V35.31a14.922,14.922,0,0,1-5.63,11.712L47,49.72l-3.37-2.7A14.922,14.922,0,0,1,38,35.31V29.677l9-3.6Z"/><path d="M42.707,37.293l-1.414,1.414,3,3A1,1,0,0,0,45,42h.033a1,1,0,0,0,.72-.341l7-8-1.506-1.316-6.3,7.2Z"/><path d="M30,16a5,5,0,1,0-5,5A5.006,5.006,0,0,0,30,16Zm-8,0a3,3,0,1,1,3,3A3,3,0,0,1,22,16Z"/></g></svg>
