<svg id="Layer_1" enable-background="new 0 0 512 512" height="512" viewBox="0 0 512 512" width="512" xmlns="http://www.w3.org/2000/svg"><g><path d="m18.573 346.15 462.855 2.839c9.103-25.637 14.074-53.231 14.074-81.99 0-135.311-109.691-245.002-245.002-245.002s-245.001 109.69-245.001 245.001c0 27.699 4.603 54.321 13.074 79.152z" fill="#4ce088"/><path d="m18.573 79.25v266.9c8.236 24.139 20.135 46.582 35.033 66.667.013.015 57.881 69.842 201.561 69.842l171.079-44.988c24.28-25.002 43.28-55.159 55.183-88.682v-269.739z" fill="#9181f2"/><path d="m18.573 346.15c8.236 24.139 20.135 46.582 35.033 66.667.012.014 51.536 62.158 178.021 69.187-.795-95.037-8.68-273.257-56.71-270.688-65.446 3.5-69.769-46-69.769-46v-84.066l-1.585-2h-84.99v266.9z" fill="#816ae2"/><path d="m132.928 51.47c0 16.447-13.333 29.78-29.78 29.78h378.28v-29.78z" fill="#d3dcfb"/><path d="m18.574 51.47v29.78h86.575c16.447 0 29.78-13.333 29.78-29.78z" fill="#4fabf7"/><path d="m18.574 81.25h86.575c-17.715-8.898-7.741-28-7.741-28-.847-.582-1.571-1.177-2.203-1.78h-76.63v29.78z" fill="#1886ea"/><path d="m464.386 0h-428.77c-9.412 0-17.043 7.63-17.043 17.043v36.207h462.855v-36.207c.001-9.413-7.63-17.043-17.042-17.043z" fill="#3c58a0"/><path d="m93.579 0h-57.963c-9.412 0-17.043 7.63-17.043 17.043v36.207h78.834c-10.289-7.064-3.828-16.123-3.828-16.123s8.613-12.392 0-21.004c-8.612-8.613 0-16.123 0-16.123z" fill="#2a428c"/><circle cx="62.733" cy="26.625" fill="#ff4155" r="10.502"/><circle cx="93.579" cy="26.625" fill="#ffdd40" r="10.502"/><circle cx="124.426" cy="26.625" fill="#4ce088" r="10.502"/><g><path d="m387.003 34.125h-221.552c-4.142 0-7.5-3.357-7.5-7.5s3.358-7.5 7.5-7.5h221.552c4.142 0 7.5 3.357 7.5 7.5s-3.358 7.5-7.5 7.5z" fill="#1c2e7a"/></g><g><path d="m441.051 34.125h-19.119c-4.142 0-7.5-3.357-7.5-7.5s3.358-7.5 7.5-7.5h19.119c4.142 0 7.5 3.357 7.5 7.5s-3.358 7.5-7.5 7.5z" fill="#1c2e7a"/></g><g><path d="m207.848 419.062c12.027 9.339 26.868 14.412 42.154 14.412 15.285 0 30.127-5.073 42.153-14.412 8.914-6.922 18.425-16.344 26.747-28.215-2.229-.643-4.482-1.252-6.763-1.824-2.579-.646-4.846-2.198-6.309-4.262-6.746-9.517-8.615-24.23-8.982-34.9-4.732 5.512-9.699 10.122-14.444 13.807-19.031 14.78-45.801 14.76-64.808 0-4.746-3.685-9.712-8.295-14.444-13.807-.376 10.907-2.318 26.04-9.437 35.528-1.215 1.619-3.086 2.942-5.33 3.498-2.456.608-4.884 1.262-7.288 1.957 8.324 11.873 17.836 21.296 26.751 28.218z" fill="#fcad6d"/></g><path d="m217.597 363.669c-4.746-3.685-9.712-8.295-14.444-13.807-.376 10.907-2.318 26.04-9.437 35.528-1.215 1.619-3.086 2.942-5.33 3.498-2.456.608-4.884 1.262-7.288 1.957 8.323 11.872 17.835 21.295 26.749 28.217 3.09 2.4 6.369 4.513 9.79 6.335 26.663-14.082 33.464-35.475 34.543-50.697-12.168.499-24.474-3.181-34.583-11.031z" fill="#fd995b"/><g><g><path d="m234.333 128.207c-47.051 6.411-51.522 33.087-51.543 42.874-.005 2.053-1.142 3.955-2.987 4.853-24.474 11.906-11.279 69.287-11.279 69.287 2.458.164 6.144 2.273 8.063 3.202.47-2.924 1.237-5.803 2.32-8.585.825-2.12 1.857-4.262 3.147-6.286 2.238-3.511 3.258-7.654 2.953-11.795-.88-11.971-1.57-34.445 14.232-41.555 13.386-6.023 29.807-2.536 40.279.947 6.801 2.261 14.167 2.261 20.968 0 10.472-3.482 26.892-6.97 40.279-.947 15.756 7.089 15.109 29.45 14.239 41.452-.303 4.173.69 8.358 2.945 11.896 1.332 2.089 2.388 4.304 3.227 6.491 1.042 2.719 1.783 5.528 2.242 8.381 2.418-1.172 6.989-3.562 9.946-3.144.362-12.547 1.52-26.073 1.52-26.073 13.942-68.288-49.891-97.9-100.551-90.998z" fill="#2a428c"/><path d="m234.333 128.207c-47.051 6.411-51.522 33.087-51.543 42.874-.005 2.053-1.142 3.955-2.987 4.853-24.474 11.906-11.279 69.287-11.279 69.287 2.458.164 6.144 2.273 8.063 3.202.47-2.924 1.237-5.803 2.32-8.585.825-2.12 1.857-4.262 3.147-6.286 2.238-3.511 3.258-7.654 2.953-11.795-.88-11.971-1.57-34.445 14.232-41.555 13.386-6.023 29.807-2.536 40.279.947 2.865.953 5.83 1.479 8.811 1.629-.457-.783-.944-1.561-1.49-2.328-20.185-28.37 7.873-49.043 13.288-52.656-8.685-.864-17.419-.728-25.794.413z" fill="#1c2e7a"/></g><path d="m337.537 246.909c-3.665-3.358-10.964-1.656-14.12.4.692 4.306.731 8.711.134 13.061l-3.725 27.126c0 2.187-.069 4.332-.195 6.44 9.082 2.739 13.593-5.414 14.353-11.009.327-2.409.862-4.783 1.604-7.099 2.415-7.545 11.13-20.505 1.949-28.919z" fill="#fcad6d"/><path d="m162.465 246.909c3.665-3.358 10.964-1.656 14.12.4-.691 4.306-.731 8.711-.133 13.061l3.725 27.126c0 2.187.069 4.332.196 6.44-9.082 2.739-13.593-5.414-14.353-11.009-.327-2.409-.862-4.783-1.604-7.099-2.417-7.545-11.132-20.505-1.951-28.919z" fill="#fd995b"/><path d="m322.288 238.929c-.838-2.187-1.895-4.402-3.227-6.491-2.255-3.538-3.248-7.724-2.945-11.896.869-12.002.403-35.477-15.353-42.566-13.386-6.023-29.806-2.536-40.277.946-6.8 2.262-14.171 2.262-20.971 0-10.472-3.482-26.891-6.969-40.277-.946-15.801 7.11-16.225 30.698-15.346 42.669.304 4.141-.715 8.283-2.953 11.795-1.29 2.024-2.322 4.166-3.147 6.286-2.677 6.878-3.458 14.337-2.455 21.64l3.725 27.132c0 39.007 20.822 65.52 38.534 79.274 9.245 7.179 20.654 11.079 32.404 11.079s23.159-3.9 32.404-11.079c17.712-13.754 38.534-40.267 38.534-79.274l3.725-27.126c.994-7.233.241-14.619-2.375-21.443z" fill="#f9ba8f"/><g><path d="m269.325 366.77c-17.712-13.754-38.534-40.267-38.534-79.274l-3.725-27.132c-1.003-7.303-.222-14.762 2.455-21.64.825-2.12 1.857-4.262 3.147-6.286 2.238-3.512 3.257-7.654 2.953-11.795-.795-10.824-.522-31.143 11.217-40.194-2.478-.237-4.936-.735-7.323-1.529-10.472-3.482-26.891-6.969-40.277-.946-15.801 7.11-16.225 30.698-15.346 42.669.304 4.141-.715 8.283-2.953 11.795-1.29 2.024-2.322 4.166-3.147 6.286-2.677 6.878-3.458 14.337-2.455 21.64l3.725 27.132c0 39.007 20.822 65.52 38.534 79.274 9.245 7.179 20.654 11.079 32.404 11.079 9.111 0 18.013-2.354 25.864-6.755-2.273-1.275-4.463-2.712-6.539-4.324z" fill="#fcad6d"/></g></g><path d="m380.801 417.055c-6.045-.494-9.261-2.839-16.387-6.857-14.841-8.369-30.21-15.044-46.955-19.738-8.179 11.756-17.564 21.067-26.352 27.892-11.728 9.107-26.201 14.054-41.106 14.054-14.906 0-29.379-4.947-41.107-14.054-8.79-6.826-18.178-16.14-26.357-27.899-16.676 4.683-32.149 11.4-46.95 19.746-7.125 4.017-10.342 6.362-16.387 6.857-12.187.996-22.295 4.246-30.695 9.038v24.675c43.184 38.097 99.882 61.231 161.996 61.231 68.949 0 131.234-28.493 175.756-74.333-10.447-11-25.06-18.944-45.456-20.612z" fill="#ff4155"/><path d="m208.353 429.666c3.817-1.517 7.301-3.17 10.5-4.926-3.485-1.825-6.822-3.953-9.958-6.388-8.79-6.826-18.178-16.14-26.357-27.899-16.676 4.683-32.149 11.4-46.95 19.746-7.125 4.017-10.342 6.362-16.387 6.857-12.187.996-22.295 4.246-30.695 9.038v24.675c16.758 14.785 35.559 27.303 55.914 37.103 2.55-30.852 15.312-38.885 63.933-58.206z" fill="#e80054"/><path d="m361.796 119.892v57.245c0 5.704 4.624 10.328 10.329 10.328h124.047c5.704 0 10.329-4.624 10.329-10.328v-57.245c0-5.704-4.624-10.328-10.329-10.328h-124.047c-5.704 0-10.329 4.624-10.329 10.328z" fill="#ff4155"/><path d="m506.501 171.626v-51.734c0-5.704-4.624-10.328-10.329-10.328h-23.142s-8.399 7.047 0 15.445v37.805l18.187 3.367s3.831 10.288 15.284 5.445z" fill="#ff7186"/><path d="m372.125 109.564c-5.704 0-10.329 4.624-10.329 10.328v57.245c0 5.704 4.624 10.328 10.329 10.328h66.541c-5.581-8.791 2.721-15.122 2.721-15.122l-14.858-47.164c-8.294-4.905-6.723-12.025-5.203-15.615z" fill="#e80054"/><path d="m240.427 322.193h-83.294c-8.107 0-14.74 6.633-14.74 14.74 0 8.107 6.633 14.74 14.74 14.74h83.294c8.107 0 14.74-6.633 14.74-14.74 0-8.107-6.633-14.74-14.74-14.74z" fill="#e9efff"/><path d="m240.427 400.186h-83.294c-8.107 0-14.74 6.633-14.74 14.74 0 8.107 6.633 14.74 14.74 14.74h83.294c8.107 0 14.74-6.633 14.74-14.74 0-8.107-6.633-14.74-14.74-14.74z" fill="#e9efff"/><path d="m240.427 244.199h-83.294c-8.107 0-14.74 6.633-14.74 14.74 0 8.107 6.633 14.74 14.74 14.74h83.294c8.107 0 14.74-6.633 14.74-14.74 0-8.107-6.633-14.74-14.74-14.74z" fill="#e9efff"/><g fill="#d3dcfb"><path d="m193.613 336.933c0-8.107 6.633-14.74 14.74-14.74h-51.22c-8.107 0-14.74 6.633-14.74 14.74 0 8.107 6.633 14.74 14.74 14.74h51.22c-8.107-.001-14.74-6.634-14.74-14.74z"/><path d="m193.613 414.926c0-8.107 6.633-14.74 14.74-14.74h-51.22c-8.107 0-14.74 6.633-14.74 14.74 0 8.107 6.633 14.74 14.74 14.74h51.22c-8.107 0-14.74-6.633-14.74-14.74z"/><path d="m193.613 258.939c0-8.107 6.633-14.74 14.74-14.74h-51.22c-8.107 0-14.74 6.633-14.74 14.74 0 8.107 6.633 14.74 14.74 14.74h51.22c-8.107 0-14.74-6.633-14.74-14.74z"/></g><g><g><path d="m386.736 172.347c-3.972 0-4.235-.045-4.67-.12-2.88-.494-4.985-2.991-4.985-5.913v-35.467c0-3.314 2.686-6 6-6s6 2.687 6 6v29.493c1.979-.005 4.241-.015 6.396-.026h.034c3.298 0 5.981 2.664 5.999 5.967.019 3.314-2.653 6.015-5.966 6.033-4.098.023-6.887.033-8.808.033z" fill="#e9efff"/></g></g><g><g><path d="m412.403 172.343c-3.313 0-6-2.686-6-6v-35.496c0-3.314 2.687-6 6-6s6 2.687 6 6v35.496c0 3.314-2.686 6-6 6z" fill="#e9efff"/></g></g><g><g><path d="m485.217 172.181h-14.82c-3.314 0-6-2.687-6-6v-35.172c0-3.313 2.686-6 6-6h14.82c3.314 0 6 2.687 6 6 0 3.314-2.686 6-6 6h-8.82v23.172h8.82c3.314 0 6 2.686 6 6s-2.687 6-6 6z" fill="#e9efff"/></g><g><path d="m484.124 154.595h-13.727c-3.314 0-6-2.687-6-6s2.686-6 6-6h13.727c3.313 0 6 2.687 6 6 0 3.314-2.686 6-6 6z" fill="#e9efff"/></g></g><g><g><path d="m441.387 172.343c-2.872 0-5.443-1.811-6.408-4.52l-12.151-35.008c-1.086-3.131.57-6.55 3.701-7.636 3.13-1.088 6.549.572 7.636 3.7l7.114 20.498 6.763-20.356c1.045-3.146 4.442-4.843 7.585-3.803 3.145 1.045 4.847 4.441 3.802 7.586l-11.59 34.888c-.945 2.778-3.514 4.631-6.405 4.651-.015 0-.031 0-.047 0z" fill="#e9efff"/></g></g><path d="m89.435 379.03c-19.116 0-34.736 14.944-35.829 33.786 5.821 7.847 12.107 15.326 18.806 22.411l23.111 12.792c11.55-2.069 20.664-9.162 20.664-9.162 5.686-6.352 9.144-14.737 9.144-23.932 0-19.824-16.071-35.895-35.896-35.895z" fill="#ffdd40"/><path d="m122.901 427.931c-17.835 2.392-18.31-13.875-18.31-13.875s-8.9-23.569-13.329-27.997c-2.646-2.647-1.826-5.297-.737-7.002-.363-.011-.725-.028-1.09-.028-19.116 0-34.736 14.944-35.829 33.786 5.821 7.847 12.107 15.326 18.806 22.411l23.111 12.792c11.55-2.069 20.664-9.162 20.664-9.162 2.849-3.181 5.138-6.875 6.714-10.925z" fill="#ffb332"/><g><path d="m79.837 437.484c2.738 2.126 6.118 3.281 9.598 3.281s6.859-1.155 9.598-3.281c1.271-.987 2.595-2.203 3.873-3.632-.738-.238-1.488-.456-2.257-.649-.465-.116-.874-.396-1.139-.769-1.218-1.718-1.555-4.373-1.621-6.298-.854.995-1.75 1.827-2.607 2.492-3.435 2.667-8.266 2.664-11.696 0-.856-.665-1.753-1.497-2.607-2.492-.068 1.968-.418 4.699-1.703 6.412-.219.292-.557.531-.962.631-.8.198-1.582.424-2.352.673 1.28 1.429 2.604 2.645 3.875 3.632z" fill="#fcad6d"/><path d="m88.548 430.582c-1.764-.164-3.491-.813-4.961-1.954-.856-.665-1.752-1.497-2.606-2.492-.068 1.968-.419 4.699-1.703 6.412-.219.292-.557.531-.962.631-.799.198-1.582.424-2.352.673 1.279 1.43 2.603 2.646 3.874 3.633 1.721 1.336 3.695 2.288 5.788 2.811 2.022-3.162 2.718-6.875 2.922-9.714z" fill="#fd995b"/></g><path d="m110.083 437.025c-2.459-1.386-4.998-2.514-7.735-3.345-1.257 1.428-2.567 2.631-3.821 3.605-2.594 2.014-5.795 3.109-9.092 3.109s-6.498-1.094-9.092-3.109c-1.254-.974-2.563-2.176-3.821-3.605-1.42.433-2.792.95-4.128 1.539 5.132 5.432 10.506 10.634 16.111 15.579.31.008.617.025.929.025 10.63 0 20.18-4.622 26.752-11.965-.954-.296-1.999-.501-3.147-.595-1.089-.09-1.67-.513-2.956-1.238z" fill="#3c58a0"/><path d="m89.435 292.596c14.266 0 26.752-9.726 26.752-9.726 5.686-6.352 9.144-14.737 9.144-23.932 0-19.825-16.071-35.896-35.896-35.896s-35.896 16.071-35.896 35.896c0 9.194 3.459 17.58 9.144 23.931 0 .001 12.486 9.727 26.752 9.727z" fill="#4fabf7"/><path d="m100.613 263.19s-5.25-30.125-9.351-33.117c-3.939-2.874-.919-6.701-.673-7-.384-.012-.767-.029-1.154-.029-19.825 0-35.896 16.071-35.896 35.896 0 9.194 3.458 17.58 9.143 23.931 0 0 12.486 9.726 26.752 9.726s26.752-9.725 26.752-9.725c3.431-3.833 6.044-8.411 7.582-13.457-12.513 5.517-23.155-6.225-23.155-6.225z" fill="#1886ea"/><g><path d="m79.837 281.497c2.738 2.126 6.118 3.281 9.598 3.281s6.859-1.155 9.598-3.281c1.271-.987 2.595-2.203 3.873-3.633-.738-.237-1.488-.456-2.257-.649-.465-.116-.874-.397-1.139-.769-1.218-1.717-1.555-4.373-1.621-6.298-.854.995-1.75 1.827-2.607 2.492-3.435 2.667-8.266 2.664-11.696 0-.856-.665-1.753-1.497-2.607-2.492-.068 1.968-.418 4.699-1.703 6.412-.219.292-.557.531-.962.631-.8.198-1.582.424-2.352.673 1.28 1.43 2.604 2.646 3.875 3.633z" fill="#fcad6d"/></g><path d="m89.388 274.638c-2.051-.01-4.099-.675-5.801-1.997-.856-.665-1.752-1.497-2.606-2.492-.068 1.968-.419 4.699-1.703 6.412-.219.292-.557.531-.962.631-.799.198-1.582.424-2.352.673 1.279 1.43 2.603 2.646 3.874 3.633 1.542 1.198 3.292 2.075 5.145 2.623 2.948-2.968 4.022-6.851 4.405-9.483z" fill="#fd995b"/><path d="m113.04 282.275c-1.091-.089-1.671-.512-2.957-1.237-2.458-1.386-4.998-2.514-7.735-3.345-1.257 1.429-2.567 2.631-3.821 3.605-2.594 2.014-5.795 3.109-9.092 3.109s-6.498-1.094-9.092-3.109c-1.254-.974-2.563-2.176-3.821-3.605-2.729.831-5.284 1.963-7.736 3.345-1.286.725-1.866 1.148-2.957 1.237-1.148.094-2.193.298-3.147.595 6.573 7.343 16.122 11.965 26.752 11.965s20.18-4.622 26.753-11.965c-.953-.297-1.999-.501-3.147-.595z" fill="#3c58a0"/><path d="m89.435 371.342c15.056 0 26.854-10.592 26.854-10.592 5.624-6.337 9.042-14.677 9.042-23.817 0-19.825-16.071-35.896-35.896-35.896s-35.896 16.071-35.896 35.896c0 9.14 3.418 17.48 9.042 23.817.001 0 11.798 10.592 26.854 10.592z" fill="#4ce088"/><path d="m121.914 352.213c-5.254 1.843-10.657-1.368-14.197-3.751-4.98-3.353-8.729-36.522-14.163-40.051-3.565-2.315-3.124-5.446-2.401-7.331-.57-.027-1.142-.043-1.719-.043-19.825 0-35.896 16.071-35.896 35.896 0 9.14 3.418 17.48 9.042 23.817.001.001 11.798 10.592 26.854 10.592s26.854-10.592 26.854-10.592c2.261-2.547 4.157-5.422 5.626-8.537z" fill="#30c16b"/><g><g><path d="m86.607 230.147c-8.491 1.157-9.298 5.971-9.302 7.738-.001.37-.206.714-.539.876-4.417 2.149-2.035 12.504-2.035 12.504.444.03 1.109.41 1.455.578.085-.528.223-1.047.419-1.549.149-.383.335-.769.568-1.134.404-.634.588-1.381.533-2.129-.159-2.16-.283-6.216 2.568-7.499 2.416-1.087 5.379-.458 7.269.171 1.227.408 2.557.408 3.784 0 1.89-.629 4.853-1.258 7.269-.171 2.843 1.279 2.727 5.315 2.57 7.481-.055.753.124 1.508.532 2.147.24.377.431.777.582 1.171.188.491.322.998.405 1.512.436-.212 1.261-.643 1.795-.567.065-2.264.274-4.705.274-4.705 2.516-12.326-9.004-17.67-18.147-16.424z" fill="#2a428c"/><path d="m86.607 230.147c-8.491 1.157-9.298 5.971-9.302 7.738-.001.37-.206.714-.539.876-4.417 2.149-2.035 12.504-2.035 12.504.444.03 1.109.41 1.455.578.085-.528.223-1.047.419-1.549.149-.383.335-.769.568-1.134.404-.634.588-1.381.533-2.129-.159-2.16-.283-6.216 2.568-7.499 2.416-1.087 5.379-.458 7.269.171.517.172 1.052.267 1.59.294-.082-.141-.17-.282-.269-.42-3.643-5.12 1.421-8.851 2.398-9.503-1.567-.158-3.143-.133-4.655.073z" fill="#1c2e7a"/></g><path d="m105.233 251.569c-.661-.606-1.979-.299-2.548.072.125.777.132 1.572.024 2.357l-.672 4.895c0 .395-.013.782-.035 1.162 1.639.494 2.453-.977 2.59-1.987.059-.435.156-.863.289-1.281.436-1.361 2.009-3.7.352-5.218z" fill="#fcad6d"/><path d="m73.637 251.569c.661-.606 1.979-.299 2.548.072-.125.777-.132 1.572-.024 2.357l.672 4.895c0 .395.012.782.035 1.162-1.639.494-2.453-.977-2.59-1.987-.059-.435-.156-.863-.289-1.281-.436-1.361-2.009-3.7-.352-5.218z" fill="#fd995b"/><path d="m102.481 250.129c-.151-.395-.342-.794-.582-1.171-.407-.639-.586-1.394-.532-2.147.157-2.166.073-6.402-2.771-7.682-2.416-1.087-5.379-.458-7.269.171-1.227.408-2.557.408-3.785 0-1.89-.628-4.853-1.258-7.269-.171-2.852 1.283-2.928 5.54-2.77 7.7.055.747-.129 1.495-.533 2.129-.233.365-.419.752-.568 1.134-.483 1.241-.624 2.587-.443 3.905l.672 4.897c0 7.04 3.758 11.824 6.954 14.307 1.669 1.296 3.728 1.999 5.848 1.999s4.18-.704 5.848-1.999c3.196-2.482 6.954-7.267 6.954-14.307l.672-4.895c.182-1.306.046-2.639-.426-3.87z" fill="#f9ba8f"/><g><path d="m92.923 273.2c-3.196-2.482-6.954-7.267-6.954-14.307l-.672-4.897c-.181-1.318-.04-2.664.443-3.905.149-.383.335-.769.568-1.134.404-.634.588-1.381.533-2.129-.143-1.953-.094-5.62 2.024-7.254-.447-.043-.891-.133-1.321-.276-1.89-.628-4.853-1.258-7.269-.171-2.852 1.283-2.928 5.54-2.77 7.7.055.747-.129 1.495-.533 2.129-.233.365-.419.752-.568 1.134-.483 1.241-.624 2.587-.443 3.905l.672 4.897c0 7.04 3.758 11.824 6.954 14.307 1.669 1.296 3.728 1.999 5.848 1.999 1.644 0 3.251-.425 4.668-1.219-.411-.229-.806-.488-1.18-.779z" fill="#fcad6d"/></g></g><g><g><path d="m86.607 386.134c-8.491 1.157-9.298 5.971-9.302 7.737-.001.37-.206.714-.539.876-4.417 2.149-2.035 12.504-2.035 12.504.444.03 1.109.41 1.455.578.085-.528.223-1.047.419-1.549.149-.383.335-.769.568-1.134.404-.634.588-1.381.533-2.129-.159-2.16-.283-6.216 2.568-7.499 2.416-1.087 5.379-.458 7.269.171 1.227.408 2.557.408 3.784 0 1.89-.629 4.853-1.258 7.269-.171 2.843 1.28 2.727 5.315 2.57 7.481-.055.753.124 1.508.531 2.147.24.377.431.777.582 1.171.188.491.322.998.405 1.513.436-.211 1.261-.643 1.795-.567.065-2.264.274-4.705.274-4.705 2.517-12.326-9.003-17.67-18.146-16.424z" fill="#2a428c"/><path d="m86.607 386.134c-8.491 1.157-9.298 5.971-9.302 7.737-.001.37-.206.714-.539.876-4.417 2.149-2.035 12.504-2.035 12.504.444.03 1.109.41 1.455.578.085-.528.223-1.047.419-1.549.149-.383.335-.769.568-1.134.404-.634.588-1.381.533-2.129-.159-2.16-.283-6.216 2.568-7.499 2.416-1.087 5.379-.458 7.269.171.517.172 1.052.267 1.59.294-.082-.141-.17-.282-.269-.42-3.643-5.12 1.421-8.851 2.398-9.503-1.567-.157-3.144-.132-4.655.074z" fill="#1c2e7a"/></g><path d="m105.232 407.556c-.661-.606-1.979-.299-2.548.072.125.777.132 1.572.024 2.357l-.672 4.896c0 .395-.012.782-.035 1.162 1.639.494 2.453-.977 2.59-1.987.059-.435.156-.863.29-1.281.435-1.362 2.008-3.701.351-5.219z" fill="#fcad6d"/><path d="m73.637 407.556c.661-.606 1.979-.299 2.548.072-.125.777-.132 1.572-.024 2.357l.672 4.896c0 .395.012.782.035 1.162-1.639.494-2.453-.977-2.59-1.987-.059-.435-.156-.863-.29-1.281-.435-1.362-2.008-3.701-.351-5.219z" fill="#fd995b"/><path d="m102.48 406.116c-.151-.395-.342-.794-.582-1.171-.407-.639-.586-1.394-.532-2.147.157-2.166.073-6.402-2.771-7.682-2.416-1.087-5.379-.458-7.269.171-1.227.408-2.557.408-3.785 0-1.89-.628-4.853-1.258-7.269-.171-2.852 1.283-2.928 5.54-2.769 7.7.055.747-.129 1.495-.533 2.129-.233.365-.419.752-.568 1.134-.483 1.241-.624 2.587-.443 3.905l.672 4.897c0 7.04 3.758 11.824 6.954 14.306 1.669 1.296 3.728 1.999 5.848 1.999s4.179-.704 5.848-1.999c3.197-2.482 6.954-7.267 6.954-14.306l.672-4.896c.181-1.305.045-2.638-.427-3.869z" fill="#f9ba8f"/><g><path d="m92.922 429.187c-3.197-2.482-6.954-7.267-6.954-14.306l-.672-4.897c-.181-1.318-.04-2.664.443-3.905.149-.383.335-.769.568-1.134.404-.634.588-1.381.533-2.129-.144-1.953-.094-5.62 2.024-7.254-.447-.043-.891-.133-1.322-.276-1.89-.629-4.853-1.258-7.269-.171-2.852 1.283-2.928 5.54-2.769 7.7.055.747-.129 1.495-.533 2.129-.233.365-.419.752-.568 1.134-.483 1.241-.624 2.587-.443 3.905l.672 4.897c0 7.04 3.758 11.824 6.954 14.306 1.669 1.296 3.728 1.999 5.848 1.999 1.644 0 3.251-.425 4.668-1.219-.41-.229-.805-.488-1.18-.779z" fill="#fcad6d"/></g></g><path d="m102.585 331.672c.031 1.717-.138 3.475-.322 4.648-.866 3.818-2.117 7.143-3.717 9.881-.726 1.241-1.631 2.37-2.69 3.354l-.136.126v.855c0 .887.345 1.706.931 2.461 3.283-.199 6.074-.863 8.274-1.621 2.648-.912 3.807-4.051 2.361-6.45-3.407-5.647-2.899-13.255-2.899-13.255h-1.802z" fill="#2a428c"/><path d="m107.286 344.927c-.32-.53-.605-1.077-.859-1.633-3.965 2.3-5.55-.959-5.55-.959s-.102-.15-.29-.43c-.599 1.557-1.28 2.993-2.041 4.296-.726 1.241-1.631 2.37-2.69 3.354l-.136.126v.855c0 .887.345 1.706.931 2.461 3.283-.199 6.074-.863 8.274-1.621 2.648-.912 3.807-4.051 2.361-6.449z" fill="#1c2e7a"/><path d="m73.912 351.376c2.2.758 4.991 1.422 8.274 1.621.587-.755.931-1.575.931-2.461v-1.05l-.13-.125c-.97-.936-1.806-1.999-2.484-3.16-1.601-2.74-2.851-6.063-3.716-9.877-.189-1.106-.361-2.893-.323-4.652h-2.014s.508 7.608-2.899 13.255c-1.446 2.398-.287 5.537 2.361 6.449z" fill="#1c2e7a"/><g><path d="m97.218 309.748c-2.041-1.053-4.579-1.784-7.693-1.784-3.113 0-5.652.731-7.693 1.784-4.468 2.305-7.222 6.883-7.222 11.822v6.093.002c.705-.017 1.485.214 1.987.549.185-.605.438-1.13.781-1.516.308-.347.502-.777.515-1.237.053-1.759.514-5.916 3.612-7.507.863-.443 1.917-.105 2.402.735 1.866 3.235 6.218 7.498 15.897 5.681.687-.129 1.332.382 1.353 1.08v.011c.014.46.207.889.515 1.237.342.386.596.91.781 1.516.502-.335 1.282-.566 1.987-.549v-.002-6.093c0-4.939-2.754-9.517-7.222-11.822z" fill="#2a428c"/></g><path d="m89.339 323.285c-4.797-9.164 4.216-14.874 4.216-14.874-1.221-.283-2.561-.447-4.029-.447-3.113 0-5.652.731-7.693 1.784-4.468 2.305-7.222 6.883-7.222 11.822v6.093.002c.705-.017 1.484.214 1.987.549.185-.605.438-1.13.781-1.516.308-.347.502-.777.515-1.237.053-1.759.514-5.916 3.612-7.507.863-.443 1.917-.105 2.402.735 1.009 1.749 2.747 3.796 5.657 5.023-.077-.142-.152-.285-.226-.427z" fill="#1c2e7a"/><path d="m76.474 336.383s-.809-5.12.123-8.169c-.845-.564-2.479-.839-3.213-.12-1.504 1.47-.402 3.691.125 5.093.162.431.266.866.314 1.303.103.948.617 2.336 2.748 2.303-.032-.137-.065-.271-.097-.41z" fill="#fd995b"/><path d="m105.666 328.094c-.735-.718-2.368-.443-3.213.12.932 3.049.123 8.169.123 8.169-.032.139-.064.273-.097.41 2.132.033 2.646-1.355 2.748-2.303.047-.436.152-.872.314-1.303.527-1.403 1.629-3.623.125-5.093z" fill="#fcad6d"/><path d="m75.957 357.224c2.387 4.085 6.001 7.262 10.453 9.188 1.994.862 4.28.862 6.274 0 4.451-1.926 8.066-5.103 10.453-9.188.09-.155.177-.316.264-.477-3.746-1.439-7.234-3.489-7.234-6.173 0-.936 0-.655 0-1.261-1.631 1.458-4.428 3.316-6.732 3.372-2.304-.056-5.101-1.914-6.732-3.372 0 1.739.462 3.832-5.005 6.486-.645.313-1.334.607-2.041.882.099.183.197.367.3.543z" fill="#fcad6d"/><path d="m89.435 352.685c-2.304-.056-5.101-1.914-6.732-3.372 0 1.739.462 3.833-5.005 6.486-.644.313-1.334.607-2.041.882.099.182.197.366.3.542 1.705 2.918 4.045 5.361 6.86 7.227 4.864-3.283 6.315-8.344 6.705-11.776-.028.002-.058.01-.087.011z" fill="#fd995b"/><path d="m112.403 359.296c-.51-.137-5.348-1.059-9.612-2.79-.125.225-.246.457-.375.677-2.261 3.87-5.686 6.88-9.903 8.704-1.889.817-4.055.817-5.944 0-4.217-1.825-7.642-4.834-9.903-8.704-.141-.241-.273-.494-.41-.741-4.371 1.801-9.767 2.848-9.79 2.854-.923.177-2.363.579-3.886 1.454 6.576 7.409 16.169 12.079 26.854 12.079s20.278-4.67 26.854-12.079c-1.522-.875-2.961-1.277-3.885-1.454z" fill="#fc90ce"/><path d="m101.263 325.459c-.007-.224-.021-.494-.047-.796-.079-.113-.172-.217-.283-.306-.334-.269-.768-.377-1.189-.298-9.229 1.732-13.556-2.05-15.562-5.527-.366-.635-1.001-1.018-1.674-1.08-.57.158-1.093.395-1.568.711-2.704 1.801-3.107 5.703-3.154 7.297-.012.419-.181.823-.489 1.169-1.693 1.908-1.323 7.483-.928 9.778.875 3.862 2.142 7.229 3.766 10.009 1.649 2.822 4.146 5.016 7.221 6.347 1.377.596 2.957.596 4.334 0 3.075-1.331 5.572-3.525 7.221-6.347 1.624-2.779 2.891-6.146 3.768-10.016.379-2.413.784-7.841-.929-9.772-.306-.346-.475-.751-.487-1.169z" fill="#f9ba8f"/><path d="m91.455 346.415c-1.624-2.78-2.892-6.147-3.766-10.009-.395-2.295-.766-7.87.928-9.778.307-.346.476-.75.489-1.169.016-.526.071-1.304.234-2.174-2.533-1.162-4.142-2.996-5.156-4.754-.366-.635-1.001-1.018-1.674-1.08-.57.158-1.093.395-1.568.711-2.704 1.801-3.107 5.703-3.154 7.297-.012.419-.181.823-.489 1.169-1.693 1.908-1.323 7.483-.928 9.778.875 3.862 2.142 7.229 3.766 10.009 1.649 2.822 4.146 5.016 7.221 6.347 1.377.596 2.957.596 4.334 0 1.27-.549 2.439-1.248 3.492-2.075-1.498-1.177-2.761-2.615-3.729-4.272z" fill="#fcad6d"/><path d="m384.437 472.162c-2.515-3.403-5.116-6.323-7.568-8.764-4.415-4.394-11.952-1.197-11.952 5.032v15.244c6.696-3.544 13.211-7.383 19.52-11.512z" fill="#e80054"/><path d="m80.343 281.297c-1.254-.974-2.563-2.176-3.821-3.604-2.729.831-5.284 1.963-7.735 3.345-1.286.725-1.866 1.148-2.957 1.237-1.148.094-2.193.299-3.147.595 2.815 3.144 6.178 5.784 9.935 7.781 1.404-1.156 3.368-2.206 6.121-2.962 2.881-.792 4.997-2.21 6.554-3.885-1.784-.517-3.468-1.356-4.95-2.507z" fill="#2a428c"/><path d="m80.363 365.815c1.103-.493 2.07-1.069 2.929-1.698-2.725-1.778-4.985-4.126-6.626-6.934-.141-.241-.274-.494-.41-.741-4.371 1.801-9.767 2.848-9.79 2.854-.923.177-2.363.579-3.886 1.454 3.245 3.656 7.227 6.641 11.71 8.732 1.393-1.191 3.34-2.446 6.073-3.667z" fill="#f964b2"/><path d="m80.343 437.284c-1.254-.974-2.563-2.176-3.82-3.605-1.42.433-2.792.95-4.128 1.539 2.968 3.141 6.026 6.195 9.153 9.177 1.876-1.198 3.264-2.75 4.287-4.446-1.986-.496-3.859-1.397-5.492-2.665z" fill="#2a428c"/></g></svg>