<svg id="Capa_1" enable-background="new 0 0 512 512" height="512" viewBox="0 0 512 512" width="512" xmlns="http://www.w3.org/2000/svg"><g><g><path clip-rule="evenodd" d="m349.272 413.396c0 42.525 34.185 76.99 76.364 76.99s76.364-34.465 76.364-76.99c0-33.808-21.656-62.53-51.731-72.875-7.738-2.658-16.015-4.087-24.633-4.087-36.084 0-66.301 25.206-74.295 59.1-1.36 5.745-2.069 11.718-2.069 17.862z" fill="#a0e5a5" fill-rule="evenodd"/></g><g><path clip-rule="evenodd" d="m10 116.609h440.269v-75.076c0-10.946-8.901-19.919-19.757-19.919h-400.755c-10.856 0-19.757 8.973-19.757 19.919z" fill="#ff7d95" fill-rule="evenodd"/></g><g><path clip-rule="evenodd" d="m271.463 309.742h97.85c0-35.895-13.578-71.789-40.733-99.167s-62.73-41.067-98.304-41.096c-35.631-.029-71.262 13.689-98.445 41.096-27.184 27.378-40.761 63.273-40.761 99.167h97.878c-1.191-7.63-.312-15.69 3.005-23.291 9.212-21.32 33.845-31.036 54.963-21.72 17.744 7.83 27.381 26.578 24.547 45.011z" fill="#cbf4fb" fill-rule="evenodd"/></g><g><path clip-rule="evenodd" d="m188.948 309.742h82.515c2.835-18.433-6.803-37.181-24.548-45.011-21.118-9.317-45.75.4-54.963 21.72-3.316 7.601-4.195 15.66-3.004 23.291z" fill="#ffec80" fill-rule="evenodd"/></g><g><path clip-rule="evenodd" d="m328.58 210.575c27.155 27.378 40.733 63.273 40.733 99.167h-97.85-82.515-97.879c0-35.895 13.578-71.789 40.761-99.167 27.184-27.407 62.815-41.124 98.445-41.096 35.575.028 71.149 13.717 98.305 41.096zm-298.823 184.959h321.584c7.994-33.894 38.21-59.1 74.295-59.1 8.617 0 16.894 1.429 24.633 4.087v-223.912h-440.269v259.007c0 10.945 8.901 19.918 19.757 19.918z" fill="#fff" fill-rule="evenodd"/></g><g><path d="m460.269 333.741v-292.208c0-16.498-13.349-29.919-29.757-29.919h-265.942c-5.523 0-10 4.477-10 10s4.477 10 10 10h265.941c5.289 0 9.757 4.542 9.757 9.919v65.076h-420.268v-65.076c0-5.376 4.468-9.919 9.757-9.919h45.013c5.523 0 10-4.477 10-10s-4.477-10-10-10h-45.013c-16.408 0-29.757 13.421-29.757 29.919v334.083c0 16.498 13.349 29.919 29.757 29.919h309.872c-.232 2.591-.357 5.212-.357 7.862 0 47.967 38.742 86.99 86.363 86.99s86.365-39.024 86.365-86.991c0-35.555-21.304-66.189-51.731-79.655zm-430.512 51.793c-5.289 0-9.757-4.542-9.757-9.919v-249.007h420.269v201.08c-4.758-.821-9.646-1.254-14.633-1.254-37.948 0-70.258 24.772-81.818 59.1zm395.879 94.852c-36.593 0-66.363-30.052-66.363-66.99 0-36.923 29.771-66.962 66.363-66.962 36.594 0 66.364 30.039 66.364 66.962 0 36.938-29.771 66.99-66.364 66.99z"/><path d="m358.025 69.111c0-5.523-4.478-10-10-10h-.028c-5.522 0-9.986 4.477-9.986 10s4.492 10 10.015 10 9.999-4.477 9.999-10z"/><path d="m406.326 69.111c0-5.523-4.478-10-10-10h-.057c-5.522 0-9.972 4.477-9.972 10s4.506 10 10.028 10 10.001-4.477 10.001-10z"/><path d="m309.752 69.111c0-5.523-4.478-10-10-10h-.057c-5.522 0-9.972 4.477-9.972 10s4.506 10 10.028 10 10.001-4.477 10.001-10z"/><path d="m53.942 69.111c0 5.523 4.477 10 10 10h134.444c5.523 0 10-4.477 10-10s-4.477-10-10-10h-134.444c-5.523 0-10 4.477-10 10z"/><path d="m379.312 309.742c0-40.123-15.496-77.841-43.633-106.209-.013-.013-.026-.026-.04-.039-.004-.004-.007-.009-.011-.012-.005-.005-.01-.009-.015-.014-28.097-28.293-65.411-43.9-105.12-43.978-.073-.002-.144-.011-.218-.011-.054 0-.106.007-.159.008-39.792.021-77.191 15.64-105.319 43.98-.003.003-.006.005-.01.009-.003.003-.005.005-.007.008-.015.015-.031.03-.046.046-28.158 28.359-43.665 66.08-43.665 106.213 0 5.523 4.477 10 10 10h278.243c5.523-.001 10-4.478 10-10.001zm-180.674-10c.353-3.192 1.188-6.332 2.494-9.325 3.404-7.879 9.649-13.932 17.583-17.042 7.859-3.081 16.439-2.902 24.163.505 10.596 4.676 17.639 14.672 18.881 25.862zm83.186 0c-1.079-15.731-9.243-30.233-22.167-39.252l12.617-29.073c2.198-5.066-.126-10.956-5.192-13.154-5.068-2.199-10.957.126-13.155 5.192l-12.569 28.963c-9.916-2.228-20.265-1.459-29.944 2.337-12.934 5.072-23.105 14.919-28.626 27.696-2.406 5.514-3.819 11.358-4.219 17.291h-77.126c2.07-27.692 12.727-53.638 30.661-74.692l8.53 8.6c1.955 1.971 4.527 2.958 7.1 2.958 2.545 0 5.092-.966 7.042-2.9 3.921-3.889 3.947-10.221.057-14.142l-8.656-8.726c20.883-18.119 46.63-28.881 74.099-30.973v12.305c0 5.523 4.477 10 10 10s10-4.477 10-10v-12.291c27.407 2.122 53.098 12.873 73.949 30.955l-8.669 8.725c-3.893 3.917-3.872 10.249.045 14.142 1.951 1.938 4.5 2.907 7.049 2.907 2.569 0 5.139-.984 7.094-2.952l8.555-8.61c17.922 21.058 28.573 47.006 30.642 74.696h-77.117z"/><path d="m461.505 382.526c-4.248-3.528-10.553-2.943-14.081 1.304l-32.043 38.581-12.756-10.901c-4.201-3.589-10.511-3.093-14.1 1.105-3.588 4.198-3.093 10.511 1.105 14.099l20.466 17.49c1.818 1.554 4.124 2.398 6.497 2.398.283 0 .567-.012.852-.036 2.667-.228 5.131-1.516 6.841-3.575l38.522-46.383c3.53-4.249 2.946-10.553-1.303-14.082z"/><path d="m119.67 31.614c5.523 0 10-4.477 10-10s-4.477-10-10-10h-.057c-5.523 0-9.972 4.477-9.972 10s4.506 10 10.029 10z"/></g></g></svg>