<svg height="512pt" viewBox="0 -11 512 512" width="512pt" xmlns="http://www.w3.org/2000/svg"><path d="m245 0c-42.203125 0-81.914062 10.671875-116.582031 29.464844l-51.195313 394.054687c34.554688 32.492188 78.542969 55.054688 127.417969 63.160157l101.25-4.308594c105.851563-27.070313 184.113281-123.082032 184.113281-237.371094 0-135.308594-109.691406-245-245.003906-245zm0 0" fill="#06daf7"/><path d="m195.789062 485.054688c15.898438 3.242187 32.355469 4.949218 49.210938 4.949218 24.117188 0 47.410156-3.503906 69.421875-9.996094-4.234375-13.179687-8.851563-32.800781-8.851563-56.515624h-99.140624c0 26.242187-6.042969 48.371093-10.640626 61.5625zm0 0" fill="#b7dbf6"/><path d="m247.171875 489.980469c3.652344-16.71875 7.125-39.941407 6.433594-66.492188h-47.175781c0 26.246094-6.042969 48.375-10.640626 61.566407 15.898438 3.242187 32.355469 4.949218 49.210938 4.949218.726562 0 1.449219-.015625 2.171875-.023437zm0 0" fill="#97cbef"/><path d="m484.894531 28.332031h-354.328125c-32.527344 17.214844-60.707031 41.539063-82.484375 70.898438l-19.75 31.335937-.003906-.007812c-18.082031 34.160156-28.328125 73.101562-28.328125 114.441406 0 42.726562 10.945312 82.886719 30.171875 117.855469h481.828125v-307.417969c0-14.90625-12.199219-27.105469-27.105469-27.105469zm0 0" fill="#284cb2"/><path d="m47.984375 99.386719-19.613281 31.113281c-18.101563 34.171875-28.371094 73.132812-28.371094 114.5 0 42.726562 10.945312 82.886719 30.171875 117.855469h47.589844v-296.875c-10.910157 10.195312-20.875 21.382812-29.777344 33.40625zm0 0" fill="#1d3ba8"/><path d="m79.007812 425.183594h405.886719c14.90625 0 27.105469-12.199219 27.105469-27.109375v-37.277344h-482.949219c12.992188 24.183594 29.933594 45.929687 49.957031 64.386719zm0 0" fill="#d6eafc"/><path d="m77.761719 424.011719v-63.214844h-48.710938c12.722657 23.675781 29.234375 45.007813 48.710938 63.214844zm0 0" fill="#b7dbf6"/><path d="m28.332031 130.566406v197.757813c0 2.285156 1.855469 4.140625 4.140625 4.140625h447.054688c2.285156 0 4.140625-1.855469 4.140625-4.140625v-231.222657h-433.988281c-7.980469 10.523438-15.125 21.710938-21.347657 33.464844zm0 0" fill="#d6eafc"/><path d="m77.761719 97.101562h-28.082031c-7.980469 10.523438-15.125 21.710938-21.347657 33.464844v197.757813c0 2.285156 1.855469 4.140625 4.140625 4.140625h45.289063zm0 0" fill="#b7dbf6"/><path d="m479.527344 56.664062h-391.21875c-15.019532 12.511719-28.519532 26.78125-40.179688 42.496094h435.539063v-38.355468c0-2.285157-1.855469-4.140626-4.140625-4.140626zm0 0" fill="#1d3ba8"/><path d="m48.125 99.160156h29.636719v-33.179687c-10.84375 10.136719-20.773438 21.238281-29.636719 33.179687zm0 0" fill="#122894"/><g fill="#406bcc"><path d="m85.503906 85.644531c-4.304687 0-7.742187-3.5-7.742187-7.730469 0-4.816406 4.453125-8.5625 9.246093-7.574218 3.542969.664062 6.214844 3.867187 6.214844 7.574218 0 4.199219-3.40625 7.730469-7.71875 7.730469zm0 0"/><path d="m110.945312 85.644531c-4.390624 0-7.738281-3.59375-7.738281-7.730469 0-4.792968 4.445313-8.566406 9.242188-7.574218 3.683593.691406 6.226562 4.023437 6.226562 7.574218 0 4.300782-3.511719 7.730469-7.730469 7.730469zm0 0"/><path d="m450.136719 85.644531h-76.265625c-4.269532 0-7.726563-3.460937-7.726563-7.730469 0-4.269531 3.457031-7.730468 7.726563-7.730468h76.265625c4.265625 0 7.726562 3.460937 7.726562 7.730468 0 4.269532-3.460937 7.730469-7.726562 7.730469zm0 0"/></g><path d="m409.78125 77.914062c0-4.269531 3.460938-7.730468 7.730469-7.730468h-43.640625c-4.269532 0-7.730469 3.460937-7.730469 7.730468 0 4.269532 3.460937 7.726563 7.730469 7.726563h43.640625c-4.269531.003906-7.730469-3.457031-7.730469-7.726563zm0 0" fill="#284cb2"/><path d="m151.867188 287.070312c0-4.265624-3.460938-7.726562-7.730469-7.726562h-30.402344c-4.265625 0-7.726563 3.460938-7.726563 7.726562 0 4.273438 3.460938 7.730469 7.726563 7.730469h30.402344c4.269531 0 7.730469-3.457031 7.730469-7.730469zm0 0" fill="#b7dbf6"/><path d="m256 406.894531c-7.824219 0-14.164062-6.34375-14.164062-14.167969 0-7.824218 6.339843-14.164062 14.164062-14.164062s14.164062 6.339844 14.164062 14.164062c0 7.824219-6.339843 14.167969-14.164062 14.167969zm0 0" fill="#b7dbf6"/><path d="m178.363281 194.085938-45.207031-45.207032c-2.332031-2.332031-6.109375-2.332031-8.4375 0l-45.207031 45.207032c-1.121094 1.117187-1.75 2.636718-1.75 4.21875v59.613281c0 3.296875 2.671875 5.96875 5.96875 5.96875h90.414062c3.296875 0 5.964844-2.671875 5.964844-5.96875v-59.613281c0-1.582032-.628906-3.101563-1.746094-4.21875zm0 0" fill="#06daf7"/><path d="m112.035156 207.578125c0-1.582031.628906-3.097656 1.746094-4.21875l36.929688-36.925781-17.554688-17.554688c-2.332031-2.332031-6.109375-2.332031-8.441406 0l-45.203125 45.207032c-1.121094 1.117187-1.75 2.636718-1.75 4.21875v59.613281c0 3.296875 2.671875 5.96875 5.96875 5.96875h28.308593v-56.308594zm0 0" fill="#05b8e2"/><path d="m144.476562 263.839844c.5625 0 1.117188.015625 1.671876.042968v-28.023437c0-9.421875-7.636719-17.058594-17.054688-17.058594-9.421875 0-17.058594 7.636719-17.058594 17.058594v27.980469zm0 0" fill="#07a3d3"/><path d="m271.152344 195.90625v-28.195312c0-2.757813-2.238282-4.996094-4.992188-4.996094h-28.199218c-2.757813 0-4.992188 2.234375-4.992188 4.996094v28.195312c0 2.757812 2.234375 4.992188 4.992188 4.992188h28.199218c2.753906 0 4.992188-2.234376 4.992188-4.992188zm0 0" fill="#f95d95"/><path d="m347.515625 195.90625v-28.195312c0-2.757813-2.234375-4.996094-4.992187-4.996094h-28.199219c-2.753907 0-4.988281 2.234375-4.988281 4.996094v28.195312c0 2.757812 2.234374 4.992188 4.988281 4.992188h28.199219c2.757812 0 4.992187-2.234376 4.992187-4.992188zm0 0" fill="#60d882"/><path d="m271.152344 272.273438v-28.199219c0-2.757813-2.238282-4.992188-4.992188-4.992188h-28.199218c-2.757813 0-4.992188 2.234375-4.992188 4.992188v28.199219c0 2.753906 2.234375 4.992187 4.992188 4.992187h28.199218c2.753906 0 4.992188-2.238281 4.992188-4.992187zm0 0" fill="#f9ce00"/><path d="m347.515625 272.273438v-28.199219c0-2.757813-2.234375-4.992188-4.992187-4.992188h-28.199219c-2.753907 0-4.988281 2.234375-4.988281 4.992188v28.199219c0 2.753906 2.234374 4.992187 4.988281 4.992187h28.199219c2.757812 0 4.992187-2.238281 4.992187-4.992187zm0 0" fill="#06daf7"/><path d="m252.058594 195.90625v-28.195312c0-2.757813 2.234375-4.996094 4.992187-4.996094h-19.089843c-2.757813 0-4.992188 2.234375-4.992188 4.996094v28.195312c0 2.757812 2.234375 4.992188 4.992188 4.992188h19.089843c-2.757812 0-4.992187-2.234376-4.992187-4.992188zm0 0" fill="#e5387f"/><path d="m328.425781 195.90625v-28.195312c0-2.757813 2.234375-4.996094 4.988281-4.996094h-19.089843c-2.757813 0-4.992188 2.234375-4.992188 4.996094v28.195312c0 2.757812 2.234375 4.992188 4.992188 4.992188h19.089843c-2.753906 0-4.988281-2.234376-4.988281-4.992188zm0 0" fill="#37c47a"/><path d="m252.058594 272.273438v-28.199219c0-2.757813 2.234375-4.992188 4.992187-4.992188h-19.089843c-2.757813 0-4.992188 2.234375-4.992188 4.992188v28.199219c0 2.753906 2.234375 4.992187 4.992188 4.992187h19.089843c-2.757812 0-4.992187-2.238281-4.992187-4.992187zm0 0" fill="#f4b500"/><path d="m328.425781 272.273438v-28.199219c0-2.757813 2.234375-4.992188 4.988281-4.992188h-19.089843c-2.757813 0-4.992188 2.234375-4.992188 4.992188v28.199219c0 2.753906 2.234375 4.992187 4.992188 4.992187h19.089843c-2.753906 0-4.988281-2.238281-4.988281-4.992187zm0 0" fill="#05b8e2"/><path d="m423.878906 195.90625v-28.195312c0-2.757813-2.234375-4.996094-4.992187-4.996094h-28.195313c-2.757812 0-4.992187 2.234375-4.992187 4.996094v28.195312c0 2.757812 2.234375 4.992188 4.992187 4.992188h28.195313c2.757812 0 4.992187-2.234376 4.992187-4.992188zm0 0" fill="#406bcc"/><path d="m423.878906 272.273438v-28.199219c0-2.757813-2.234375-4.992188-4.992187-4.992188h-28.195313c-2.757812 0-4.992187 2.234375-4.992187 4.992188v28.199219c0 2.753906 2.234375 4.992187 4.992187 4.992187h28.195313c2.757812 0 4.992187-2.238281 4.992187-4.992187zm0 0" fill="#f4b500"/><path d="m404.789062 195.90625v-28.195312c0-2.757813 2.234376-4.996094 4.992188-4.996094h-19.089844c-2.757812 0-4.996094 2.234375-4.996094 4.996094v28.195312c0 2.757812 2.238282 4.992188 4.996094 4.992188h19.089844c-2.757812 0-4.992188-2.234376-4.992188-4.992188zm0 0" fill="#284cb2"/><path d="m404.789062 272.273438v-28.199219c0-2.757813 2.234376-4.992188 4.992188-4.992188h-19.089844c-2.757812 0-4.996094 2.234375-4.996094 4.992188v28.199219c0 2.753906 2.238282 4.992187 4.996094 4.992187h19.089844c-2.757812 0-4.992188-2.238281-4.992188-4.992187zm0 0" fill="#f29b00"/></svg>