<svg id="flat" height="512" viewBox="0 0 512 512" width="512" xmlns="http://www.w3.org/2000/svg"><path d="m344 488v-200a32 32 0 0 0 -15.87613-27.64092l-104.12387-60.73893h-80l-104.12387 60.73893a32 32 0 0 0 -15.87613 27.64092v200z" fill="#548aff"/><path d="m176 240h16v176h-16z" fill="#4976f2"/><path d="m184 248 32 40 58.766-58.766-50.766-29.614h-40z" fill="#7dafff"/><path d="m112 488a88 88 0 0 1 -88-88v88z" fill="#4976f2"/><path d="m488 192v280a15.99568 15.99568 0 0 1 -16 16h-208v-225.03a16.0077 16.0077 0 0 1 1.6-6.97 15.802 15.802 0 0 1 3.51-4.75l76.34-70.97a15.81907 15.81907 0 0 1 4.61-2.99 16.04675 16.04675 0 0 1 6.29-1.29h115.65a15.99552 15.99552 0 0 1 16 16z" fill="#ffb401"/><path d="m350.06 177.29v62.71a15.99568 15.99568 0 0 1 -16 16h-68.46a15.802 15.802 0 0 1 3.51-4.75l76.34-70.97a15.81907 15.81907 0 0 1 4.61-2.99z" fill="#ffcc4d"/><g fill="#f78e00"><path d="m297.941 296h16v16h-16z"/><path d="m328 296h57.941v16h-57.941z"/><path d="m401.941 296h54.059v16h-54.059z"/><path d="m297.941 328h38.059v16h-38.059z"/><path d="m352 328h73.941v16h-73.941z"/><path d="m441.941 328h14.059v16h-14.059z"/><path d="m328 360h56v16h-56z"/><path d="m400 360h56v16h-56z"/><path d="m408 440h48v16h-48z"/><path d="m400 408h56v16h-56z"/><path d="m368 408h16v16h-16z"/><path d="m392 208h16v16h-16z"/><path d="m424 208h32v16h-32z"/><path d="m440 240h16v16h-16z"/><path d="m392 240h32v16h-32z"/></g><path d="m264 440h-24a7.99183 7.99183 0 0 1 -1.39014-.12207l-109.561-19.334a39.9443 39.9443 0 0 1 -33.04886-39.39159v-45.15234h16v45.15234a23.96785 23.96785 0 0 0 19.82959 23.63575l108.87109 19.21191h23.29932z" fill="#4976f2"/><path d="m240 432 49.58347-35.41676a13.09672 13.09672 0 0 1 13.46935-1.05683 13.09675 13.09675 0 0 1 6.98537 14.28255l-6.03819 30.19104 13.38539 6.6927a64.0001 64.0001 0 0 0 39.14321 5.88587l19.97546-3.32925a10.2892 10.2892 0 0 1 10.89447 5.54773 10.28919 10.28919 0 0 1 -4.60146 13.8044l-25.28375 12.64187a64 64 0 0 1 -28.62167 6.75668h-88.89165z" fill="#ffceb6"/><path d="m184 248-32 40-58.766-58.766 50.766-29.614h40z" fill="#7dafff"/><path d="m256 64v112.00007a71.99993 71.99993 0 0 1 -71.99993 71.99993h-.00014a71.99993 71.99993 0 0 1 -71.99993-71.99993v-88.00007l24-24z" fill="#ffceb6"/><path d="m216 40h16a24 24 0 0 1 24 24v32h-6.7018a35.09937 35.09937 0 0 1 -33.2982-24z" fill="#91591c"/><path d="m224 48a24 24 0 0 0 -24-24h-32a56 56 0 0 0 -56 56v16h64.00007a47.99993 47.99993 0 0 0 47.99993-47.99993z" fill="#b1712c"/><path d="m136 120h32v16h-32z" fill="#b1712c"/><path d="m176 208h-8v-16h8a8.00917 8.00917 0 0 0 8-8v-16h16v16a24.02718 24.02718 0 0 1 -24 24z" fill="#c78869"/><circle cx="152" cy="152" fill="#c78869" r="8"/><path d="m200 120h32v16h-32z" fill="#b1712c"/><circle cx="216" cy="152" fill="#c78869" r="8"/></svg>