<svg id="Filled" height="512" viewBox="0 0 512 512" width="512" xmlns="http://www.w3.org/2000/svg"><rect fill="#9aa3a8" height="368" rx="16" width="192" x="280" y="24"/><path d="m296 352h160a16 16 0 0 1 16 16v24a0 0 0 0 1 0 0h-192a0 0 0 0 1 0 0v-24a16 16 0 0 1 16-16z" fill="#6a7073" transform="matrix(-1 0 0 -1 752 744)"/><circle cx="376" cy="184" fill="#ffd33a" r="48"/><rect fill="#9aa3a8" height="368" rx="16" transform="matrix(-1 0 0 -1 272 608)" width="192" x="40" y="120"/><path d="m56 120h160a16 16 0 0 1 16 16v24a0 0 0 0 1 0 0h-192a0 0 0 0 1 0 0v-24a16 16 0 0 1 16-16z" fill="#6a7073"/><circle cx="136" cy="328" fill="#ffd33a" r="48"/><path d="m96 456h80a16 16 0 0 1 16 16v16a0 0 0 0 1 0 0h-112a0 0 0 0 1 0 0v-16a16 16 0 0 1 16-16z" fill="#6a7073"/><path d="m280 272v-16h-80v-32h80v-16l40 32z" fill="#3dc285"/><path d="m232 272v16h80v32h-80v16l-40-32z" fill="#3dc285"/><path d="m336 24h80a16 16 0 0 1 16 16v16a0 0 0 0 1 0 0h-112a0 0 0 0 1 0 0v-16a16 16 0 0 1 16-16z" fill="#6a7073" transform="matrix(-1 0 0 -1 752 80)"/><path d="m472 448v-56l16-96-56-72c-2.708-6.093-9.332-8-16-8-16 3-18.342 13.462-16 24l24 72a64 64 0 0 0 -64 64v16h-56v56z" fill="#f0c6a4"/><path d="m296 424h184v64h-184z" fill="#2d85cc"/><path d="m40 64v56l-16 96 56 72c2.708 6.093 9.332 8 16 8 16-3 18.342-13.462 16-24l-24-72a64 64 0 0 0 64-64v-16h56v-56z" fill="#f0c6a4"/><path d="m32 24h184v64h-184z" fill="#eb423f" transform="matrix(-1 0 0 -1 248 112)"/><path d="m392 168a8 8 0 0 0 -8-8 8 8 0 0 0 -16 0v2.165a15.986 15.986 0 0 0 8 29.835h-8a8 8 0 0 0 0 16 8 8 0 0 0 16 0v-2.165a15.986 15.986 0 0 0 -8-29.835h8a8 8 0 0 0 8-8z"/><path d="m480 273.009v-233.009a24.028 24.028 0 0 0 -24-24h-160a24.028 24.028 0 0 0 -24 24v176h-32v-80a24.028 24.028 0 0 0 -24-24v-16a8 8 0 0 0 8-8v-64a8 8 0 0 0 -8-8h-184a8 8 0 0 0 -8 8v64a8 8 0 0 0 8 8v23.337l-15.892 95.348a8 8 0 0 0 1.62 6.281l14.272 18.025v233.009a24.028 24.028 0 0 0 24 24h160a24.028 24.028 0 0 0 24-24v-144h32v48a24.028 24.028 0 0 0 24 24v16a8 8 0 0 0 -8 8v64a8 8 0 0 0 8 8h184a8 8 0 0 0 8-8v-64a8 8 0 0 0 -8-8v-23.337l15.892-95.348a8 8 0 0 0 -1.62-6.281zm-152-241.009h96v8a8.009 8.009 0 0 1 -8 8h-80a8.009 8.009 0 0 1 -8-8zm-40 8a8.009 8.009 0 0 1 8-8h16v8a24.028 24.028 0 0 0 24 24h80a24.028 24.028 0 0 0 24-24v-8h16a8.009 8.009 0 0 1 8 8v212.8l-28.442-35.92a25.109 25.109 0 0 0 -2.906-3.083 64.019 64.019 0 1 0 -38.985 31.717l19.539 59.294a72.2 72.2 0 0 0 -53.683 39.192h-71.523v-16h24a8 8 0 0 0 8-8v-32a8 8 0 0 0 -8-8h-24v-4.155l37-29.6a8 8 0 0 0 0-12.494l-37-29.6zm136 144a47.772 47.772 0 0 1 -6.117 23.459 25.086 25.086 0 0 0 -27.031 22.2 48.01 48.01 0 1 1 33.148-45.659zm-144 48a8 8 0 0 0 7.976-7.374l19.217 15.374-19.217 15.374a8 8 0 0 0 -7.976-7.374h-72v-16zm-44.534 32.79a7.993 7.993 0 0 0 -8.464.963l-36.302 29.047a63.977 63.977 0 0 0 -72.362-28.312l-19.544-59.296a72.2 72.2 0 0 0 53.683-39.192h71.523v48h-24a8 8 0 0 0 -8 8v32a8 8 0 0 0 8 8h72v16h-32v-8a8 8 0 0 0 -4.534-7.21zm-51.466 63.21a48 48 0 1 1 -89.89-23.447c.69.057 1.381.1 2.075.1a25.139 25.139 0 0 0 24.963-22.31 48.047 48.047 0 0 1 62.852 45.657zm40-192v16h-65.8a71.944 71.944 0 0 0 1.8-16v-8h56a8.009 8.009 0 0 1 8 8zm-184-104h168v48h-168zm-7.525 181.815 15.417-92.5a8.045 8.045 0 0 0 .108-1.315v-24h152v16h-48a8 8 0 0 0 -8 8v16a56.063 56.063 0 0 1 -56 56 8 8 0 0 0 -7.6 10.5l24.436 74.148a9.142 9.142 0 0 1 -15.851 8.536zm151.525 266.185h-96v-8a8.009 8.009 0 0 1 8-8h80a8.009 8.009 0 0 1 8 8zm40-8a8.009 8.009 0 0 1 -8 8h-16v-8a24.028 24.028 0 0 0 -24-24h-80a24.028 24.028 0 0 0 -24 24v8h-16a8.009 8.009 0 0 1 -8-8v-212.8l28.442 35.92a25.131 25.131 0 0 0 2.9 3.087 64.036 64.036 0 1 0 120.169 22.051l24.489 19.587zm8-160a8 8 0 0 0 -7.976 7.374l-19.217-15.374 19.217-15.374a8 8 0 0 0 7.976 7.374h72v16zm56 64v-16h65.8a71.944 71.944 0 0 0 -1.8 16v8h-56a8.009 8.009 0 0 1 -8-8zm184 104h-168v-48h168zm-7.892-89.314a8.045 8.045 0 0 0 -.108 1.314v24h-152v-16h48a8 8 0 0 0 8-8v-16a56.063 56.063 0 0 1 56-56 8 8 0 0 0 7.6-10.5l-24.436-74.148a9.142 9.142 0 0 1 15.851-8.536l56.512 71.373z"/><path d="m152 312a8 8 0 0 0 -8-8 8 8 0 0 0 -16 0v2.165a15.986 15.986 0 0 0 8 29.835h-8a8 8 0 0 0 0 16 8 8 0 0 0 16 0v-2.165a15.986 15.986 0 0 0 -8-29.835h8a8 8 0 0 0 8-8z"/></svg>