<svg height="512" viewBox="0 0 58 32" width="512" xmlns="http://www.w3.org/2000/svg"><g id="Page-1" fill="none" fill-rule="evenodd"><g id="042---Winning-Percentage" transform="translate(0 -1)"><path id="Path" d="m28.89 26.18c.04.05.07.11.11.16-4.0549037 5.6399348-11.2856618 8.0192382-17.8973105 5.8891655-6.61164875-2.1300727-11.0936248-8.2828637-11.0936248-15.2291655s4.48197605-13.09909284 11.0936248-15.22916552c6.6116487-2.13007268 13.8424068.24923068 17.8973105 5.88916552-.04.05-.07.11-.11.16z" fill="#ff5364"/><g fill="#fff"><circle id="Oval" cx="20.5" cy="21.5" r="2.5"/><circle id="Oval" cx="11.5" cy="12.5" r="2.5"/><path id="Path" d="m10 24c-.4043959-.0000863-.76893405-.2437275-.92367798-.6173454-.15474393-.373618-.06922994-.8036603.21667798-1.0896546l12-12c.3923789-.37897221 1.0160848-.37355237 1.4018186.0121814.3857338.3857338.3911536 1.0094397.0121814 1.4018186l-12 12c-.1874927.1875494-.4418052.2929434-.707.293z"/></g><path id="Path" d="m35.69 26.01-2.87 4.1c-1.4731942-1.0366048-2.7640763-2.3105906-3.82-3.77-.04-.05-.07-.11-.11-.16l4.1-2.87c.7328883 1.0528894 1.6471106 1.9671117 2.7 2.7z" fill="#ecf0f1"/><path id="Path" d="m35.69 7.99c-1.0528894.73288828-1.9671117 1.6471106-2.7 2.7l-4.1-2.87c.04-.05.07-.11.11-.16 1.0559237-1.45940943 2.3468058-2.73339519 3.82-3.77z" fill="#ecf0f1"/><path id="Path" d="m40.09 6.17c-1.5838025.27177002-3.0869984.89354653-4.4 1.82l-2.87-4.1c1.9120495-1.3440482 4.0974877-2.24895623 6.4-2.65z" fill="#4482c3"/><path id="Path" d="m44.78 1.24-.87 4.93c-1.2632466-.2266604-2.5567534-.2266604-3.82 0l-.87-4.93c1.8395207-.31999666 3.7204793-.31999666 5.56 0z" fill="#ecf0f1"/><path id="Path" d="m51.18 3.89-2.87 4.1c-1.3130016-.92645347-2.8161975-1.54822998-4.4-1.82l.87-4.93c2.3025123.40104377 4.4879505 1.3059518 6.4 2.65z" fill="#4482c3"/><path id="Path" d="m55.11 7.82-4.1 2.87c-.7328883-1.0528894-1.6471106-1.96711172-2.7-2.7l2.87-4.1c1.5299018 1.06990788 2.8600921 2.40009819 3.93 3.93z" fill="#ecf0f1"/><path id="Path" d="m57.76 14.22-4.93.87c-.27177-1.5838025-.8935465-3.0869984-1.82-4.4l4.1-2.87c1.3440482 1.91204949 2.2489562 4.0974877 2.65 6.4z" fill="#4482c3"/><path id="Path" d="m58 17c.0017114.9319131-.0785985 1.8621686-.24 2.78l-4.93-.87c.2266604-1.2632466.2266604-2.5567534 0-3.82l4.93-.87c.1614015.9178314.2417114 1.8480869.24 2.78z" fill="#ecf0f1"/><path id="Path" d="m57.76 19.78c-.4010438 2.3025123-1.3059518 4.4879505-2.65 6.4l-4.1-2.87c.9264535-1.3130016 1.54823-2.8161975 1.82-4.4z" fill="#4482c3"/><path id="Path" d="m55.11 26.18c-1.0699079 1.5299018-2.4000982 2.8600921-3.93 3.93l-2.87-4.1c1.0528894-.7328883 1.9671117-1.6471106 2.7-2.7z" fill="#ecf0f1"/><path id="Path" d="m51.18 30.11c-1.9120495 1.3440482-4.0974877 2.2489562-6.4 2.65l-.87-4.93c1.5838025-.27177 3.0869984-.8935465 4.4-1.82z" fill="#4482c3"/><path id="Path" d="m44.78 32.76c-1.8395207.3199967-3.7204793.3199967-5.56 0l.87-4.93c1.2632466.2266604 2.5567534.2266604 3.82 0z" fill="#ecf0f1"/><path id="Path" d="m40.09 27.83-.87 4.93c-2.3025123-.4010438-4.4879505-1.3059518-6.4-2.65l2.87-4.1c1.3130016.9264535 2.8161975 1.54823 4.4 1.82z" fill="#4482c3"/><path id="Path" d="m53 17c-.0006631.6404148-.0575481 1.279535-.17 1.91-.7993112 4.5545196-4.3654804 8.1206888-8.92 8.92-1.2632466.2266604-2.5567534.2266604-3.82 0-4.5545196-.7993112-8.1206888-4.3654804-8.92-8.92-.2266604-1.2632466-.2266604-2.5567534 0-3.82.7993112-4.5545196 4.3654804-8.12068885 8.92-8.92 1.2632466-.2266604 2.5567534-.2266604 3.82 0 4.5545196.79931115 8.1206888 4.3654804 8.92 8.92.1124519.630465.1693369 1.2695852.17 1.91z" fill="#285680"/><path id="Path" d="m32.99 23.31-4.1 2.87c-1.3440482-1.9120495-2.2489562-4.0974877-2.65-6.4l4.93-.87c.27177 1.5838025.8935465 3.0869984 1.82 4.4z" fill="#4482c3"/><path id="Path" d="m31 17c.0006631.6404148.0575481 1.279535.17 1.91l-4.93.87c-.3199967-1.8395207-.3199967-3.7204793 0-5.56l4.93.87c-.1124519.630465-.1693369 1.2695852-.17 1.91z" fill="#ecf0f1"/><path id="Path" d="m32.99 10.69c-.9264535 1.3130016-1.54823 2.8161975-1.82 4.4l-4.93-.87c.4010438-2.3025123 1.3059518-4.48795051 2.65-6.4z" fill="#4482c3"/><path id="Path" d="m48 18.65c-.241296.9044557-.8665238 1.6579046-1.7109698 2.0618537-.8444459.4039491-1.8234254.4178886-2.6790302.0381463l.794 1.857c.1319971.3088457.100134.663328-.0848243.9436837-.1849584.2803558-.4983053.4491355-.8341757.4493163h-2.97c-.3358704-.0001808-.6492173-.1689605-.8341757-.4493163-.1849583-.2803557-.2168214-.634838-.0848243-.9436837l.794-1.857c-.8556048.3797423-1.8345843.3658028-2.6790302-.0381463-.844446-.4039491-1.4696738-1.157398-1.7109698-2.0618537-.824-2.933 3.783-7.316 5.431-8.47.3413404-.24009972.7966596-.24009972 1.138 0 1.648 1.154 6.255 5.537 5.431 8.47z" fill="#ecf0f1"/></g></g></svg>