<svg height="512pt" viewBox="0 0 512 512" width="512pt" xmlns="http://www.w3.org/2000/svg"><path d="m0 370.875c0-3.203125 1.734375-6.152344 4.53125-7.710938 2.796875-1.554687 6.21875-1.476562 8.941406.207032 27.769532 17.0625 59.871094 25.757812 92.457032 25.042968 70.621093 0 70.4375-33.976562 149.886718-33.976562 79.445313 0 79.632813 33.976562 150.253906 33.976562 32.585938.714844 64.6875-7.980468 92.457032-25.042968 2.722656-1.683594 6.144531-1.761719 8.941406-.207032 2.796875 1.558594 4.53125 4.507813 4.53125 7.710938v101.84375c0 2.644531-1.183594 5.152344-3.230469 6.832031-10.1875 8.402344-44.4375 32.449219-102.699219 32.449219-70.621093 0-70.621093-26.484375-150.070312-26.484375s-79.449219 26.484375-150.070312 26.484375c-58.261719 0-92.511719-24.046875-102.699219-32.449219-2.046875-1.679687-3.230469-4.1875-3.230469-6.832031zm0 0" fill="#faedbd"/><path d="m395.378906 176.550781c-.003906 6.21875-.4375 12.425781-1.296875 18.582031-3.164062 23.988282-12.605469 46.714844-27.367187 65.882813-7.507813 9.9375-16.359375 18.785156-26.296875 26.296875-19.167969 14.761719-41.894531 24.203125-65.878907 27.363281-6.144531.859375-12.335937 1.292969-18.539062 1.300781h-1.296875c-5.785156-.054687-11.558594-.488281-17.285156-1.300781-23.992188-3.140625-46.722657-12.582031-65.878907-27.363281-9.960937-7.488281-18.8125-16.339844-26.296874-26.296875-14.730469-19.183594-24.15625-41.90625-27.324219-65.882813-1.730469-12.328124-1.730469-24.835937 0-37.164062 3.152343-23.757812 12.402343-46.296875 26.855469-65.421875 7.800781-10.261719 16.957031-19.421875 27.222656-27.222656 19.113281-14.492188 41.679687-23.75 65.464844-26.855469 6.144531-.855469 12.335937-1.289062 18.539062-1.296875h.925781c5.910157.003906 11.808594.4375 17.65625 1.296875 23.984375 3.164062 46.710938 12.605469 65.878907 27.367188h.097656c9.925781 7.492187 18.746094 16.34375 26.199218 26.296874 14.765626 19.167969 24.203126 41.894532 27.367188 65.882813.84375 6.140625 1.261719 12.335937 1.253906 18.535156zm0 0" fill="#5dc382"/><path d="m325.886719 264.828125c-3.539063 0-6.738281-2.117187-8.125-5.375-1.382813-3.257813-.6875-7.03125 1.769531-9.578125 11.601562-12.03125 19.558594-27.097656 22.953125-43.460938.992187-4.773437 5.667969-7.835937 10.441406-6.839843 4.773438.996093 7.835938 5.671875 6.84375 10.441406-4.066406 19.609375-13.597656 37.664063-27.492187 52.085937-1.667969 1.742188-3.976563 2.730469-6.390625 2.726563zm0 0" fill="#8ed7ae"/><path d="m211.863281 90.042969c-4.078125 0-7.625-2.792969-8.582031-6.757813s.925781-8.070312 4.554688-9.929687c14.921874-7.59375 31.421874-11.554688 48.164062-11.5625 4.875 0 8.828125 3.953125 8.828125 8.828125s-3.953125 8.828125-8.828125 8.828125c-13.949219-.042969-27.707031 3.257812-40.121094 9.621093-1.242187.636719-2.621094.96875-4.015625.972657zm0 0" fill="#8ed7ae"/><path d="m165.515625 132.414062c-1.097656-.003906-2.1875-.210937-3.210937-.609374-2.191407-.851563-3.953126-2.539063-4.894532-4.695313-.941406-2.152344-.984375-4.59375-.121094-6.78125 2.636719-6.742187 5.960938-13.199219 9.921876-19.261719 2.664062-4.082031 8.136718-5.234375 12.21875-2.566406 4.082031 2.664062 5.234374 8.132812 2.570312 12.214844-3.296875 5.050781-6.0625 10.425781-8.253906 16.039062-1.3125 3.40625-4.582032 5.65625-8.230469 5.660156zm0 0" fill="#8ed7ae"/><path d="m256 241.742188c-14.488281-.460938-28.539062-5.058594-40.5-13.238282-3.945312-2.867187-4.820312-8.390625-1.953125-12.332031 2.867187-3.945313 8.390625-4.820313 12.332031-1.953125 8.945313 5.992188 19.367188 9.40625 30.121094 9.871094 14.910156 0 26.484375-7.671875 26.484375-14.265625 0-14.503907-7.628906-17.039063-27.816406-20.136719-17.046875-2.605469-42.804688-6.550781-42.804688-37.578125 0-21.363281 23.257813-36.246094 44.136719-36.246094 31.3125 0 42.558594 19.570313 43.027344 20.40625 2.261718 4.230469.738281 9.488281-3.433594 11.851563-4.171875 2.363281-9.46875.960937-11.929688-3.15625-6.671874-8.273438-17.09375-12.585938-27.664062-11.449219-11.996094 0-26.484375 8.289063-26.484375 18.59375 0 14.503906 7.628906 17.035156 27.816406 20.132813 17.046875 2.605468 42.804688 6.550781 42.804688 37.582031 0 17.601562-19.800781 31.917969-44.136719 31.917969zm0 0" fill="#639085"/><path d="m256 264.828125c-4.875 0-8.828125-3.953125-8.828125-8.828125v-18.757812c0-4.875 3.953125-8.828126 8.828125-8.828126s8.828125 3.953126 8.828125 8.828126v18.757812c0 4.875-3.953125 8.828125-8.828125 8.828125zm0 0" fill="#639085"/><path d="m256 133.515625c-4.875 0-8.828125-3.949219-8.828125-8.824219v-18.761718c0-4.875 3.953125-8.828126 8.828125-8.828126s8.828125 3.953126 8.828125 8.828126v18.761718c0 4.875-3.953125 8.824219-8.828125 8.824219zm0 0" fill="#639085"/><path d="m366.855469 39.398438-26.296875 26.394531h-.097656c-19.183594-14.753907-41.925782-24.179688-65.921876-27.324219v-37.171875c9.414063.9375 18.738282 2.648437 27.875 5.113281h.097657l2.78125.835938c.75.1875 1.492187.46875 2.144531.65625 1.667969.554687 3.25 1.109375 4.828125 1.578125 4.832031 1.667969 9.570313 3.53125 14.222656 5.480469 1.199219.558593 2.507813 1.113281 3.714844 1.671874.460937.183594.832031.367188 1.203125.554688v.097656c.882812.273438 1.492188.652344 2.230469.882813l.097656.097656c.441406.085937.851563.273437 1.203125.554687 1.207031.554688 2.417969 1.210938 3.53125 1.855469 1.859375.933594 3.625 1.859375 5.390625 2.886719.347656.109375.667969.300781.929687.554688 1.207032.652343 2.417969 1.394531 3.625 2.136718l.832032.554688c.628906.304687 1.21875.679687 1.765625 1.113281.347656.117187.667969.308594.933593.566406.273438.183594.644532.367188.882813.554688.136719.148437.292969.273437.46875.371093.1875.183594.460937.273438.644531.457032.097656 0 .097656 0 .1875.097656.253906.21875.535156.40625.835938.558594l.1875.183594c.246094.066406.46875.195312.652344.371093.089843 0 .089843.097657.089843.097657.023438-.003907.046875.003906.066407.023437.019531.015625.027343.039063.027343.0625.484375.285156.949219.597656 1.398438.9375.738281.457031 1.480469 1.015625 2.222656 1.578125.488281.304688.957031.644531 1.394531 1.015625l.097656.097656c.597657.398438 1.167969.832031 1.710938 1.296875h.089844c.316406.183594.609375.402344.882812.644532.304688.222656.582032.476562.839844.75.546875.375 1.074219.773437 1.578125 1.203124h.089844c.167969.222657.355469.425782.5625.609376zm0 0" fill="#23b972"/><path d="m237.578125 1.015625v37.289063c-23.667969 3.097656-46.121094 12.3125-65.140625 26.738281l-26.738281-25.8125c.828125-.742188 1.765625-1.484375 2.648437-2.214844.882813-.734375 2.03125-1.671875 3.046875-2.410156.292969-.238281.601563-.453125.925781-.644531 1.851563-1.394532 3.796876-2.78125 5.835938-4.078126.34375-.277343.714844-.519531 1.101562-.734374 0-.097657 0-.097657.097657-.097657 1.121093-.824219 2.300781-1.5625 3.53125-2.214843 1.875-1.285157 3.820312-2.460938 5.824219-3.53125 1.164062-.75 2.367187-1.429688 3.613281-2.03125 2.410156-1.296876 4.808593-2.496094 7.308593-3.792969.097657 0 .097657 0 .183594-.089844 2.3125-1.113281 4.722656-2.136719 7.125-3.238281.097656 0 .097656-.097656.1875-.097656.085938 0 .367188-.089844.554688-.1875.371094-.183594.742187-.273438 1.113281-.457032 1.382813-.558594 2.867187-1.203125 4.351563-1.765625.632812-.195312 1.25-.441406 1.84375-.742187.1875 0 .28125-.097656.371093-.097656.695313-.285157 1.40625-.535157 2.128907-.742188.464843-.175781.882812-.273438 1.296874-.457031 1.359376-.546875 2.75-1.011719 4.164063-1.386719l.832031-.28125c2.402344-.734375 4.898438-1.476562 7.308594-2.128906.460938-.089844.925781-.183594 1.296875-.273438 2.402344-.652344 4.714844-1.199218 7.125-1.667968.460937-.089844.828125-.1875 1.296875-.273438 2.214844-.46875 4.625-.882812 6.9375-1.296875h.1875c.183594 0 .273438-.089844.457031-.089844.28125.015625.5625-.015625.832031-.097656 1.023438-.183594 2.039063-.273437 3.152344-.457031.824219-.171875 1.65625-.296875 2.496094-.371094h.1875c.421875-.105469.851562-.164062 1.289062-.1875.410157.023438.820313-.003906 1.226563-.078125zm0 0" fill="#23b972"/><path d="m171.996094 65.324219c-10.265625 7.800781-19.421875 16.960937-27.222656 27.222656l-25.925782-26.851563c.464844-.652343.925782-1.296874 1.488282-1.953124 2.324218-2.789063 4.734374-5.480469 7.152343-8.085938 2.417969-2.601562 4.738281-4.828125 7.246094-7.246094l.285156-.273437h.085938c0-.183594 0-.183594.097656-.183594.550781-.632813 1.171875-1.195313 1.855469-1.679687.554687-.554688 1.207031-1.113282 1.765625-1.578126.183593-.1875.28125-.371093.464843-.460937.890626-.914063 1.855469-1.753906 2.878907-2.515625l1.863281-1.578125c.347656-.277344.722656-.527344 1.113281-.742187zm0 0" fill="#ebeced"/><path d="m144.773438 92.546875c-14.457032 19.136719-23.710938 41.691406-26.855469 65.46875h-37.445313c2.769532-27.332031 12.003906-53.609375 26.941406-76.660156h.097657c1.949219-3.074219 4-6.046875 6.179687-9.023438 1.667969-2.222656 3.34375-4.457031 5.199219-6.59375zm0 0" fill="#23b972"/><path d="m116.621094 176.550781c.003906 6.21875.4375 12.425781 1.296875 18.582031h-37.445313c-1.367187-12.347656-1.367187-24.8125 0-37.164062h37.445313c-.859375 6.15625-1.292969 12.367188-1.296875 18.582031zm0 0" fill="#ebeced"/><path d="m145.242188 261.015625-26.484376 26.480469c-21.484374-26.402344-34.789062-58.503906-38.285156-92.363282h37.445313c3.167969 23.976563 12.59375 46.699219 27.324219 65.882813zm0 0" fill="#23b972"/><path d="m171.539062 287.3125-26.484374 26.480469c-9.671876-7.808594-18.488282-16.625-26.296876-26.296875l26.484376-26.480469c7.484374 9.957031 16.335937 18.808594 26.296874 26.296875zm0 0" fill="#ebeced"/><path d="m237.460938 314.632812v37.445313c-33.851563-3.511719-65.949219-16.816406-92.363282-38.285156l26.484375-26.480469c19.160157 14.765625 41.890625 24.191406 65.878907 27.320312zm0 0" fill="#23b972"/><path d="m274.539062 314.632812v37.445313c-12.351562 1.367187-24.816406 1.367187-37.164062 0v-37.445313c5.726562.8125 11.5 1.246094 17.285156 1.296876h1.339844c6.203125-.007813 12.394531-.441407 18.539062-1.296876zm0 0" fill="#ebeced"/><path d="m366.945312 313.792969c-26.414062 21.492187-58.53125 34.800781-92.40625 38.285156v-37.445313c23.984376-3.164062 46.710938-12.601562 65.878907-27.367187zm0 0" fill="#23b972"/><path d="m393.242188 287.496094c-7.808594 9.671875-16.625 18.488281-26.296876 26.296875l-26.484374-26.480469c9.9375-7.511719 18.789062-16.359375 26.296874-26.296875zm0 0" fill="#ebeced"/><path d="m431.527344 195.132812c-.089844.558594-.089844 1.121094-.183594 1.679688-3.753906 33.253906-16.976562 64.730469-38.101562 90.683594l-26.484376-26.480469c14.765626-19.167969 24.203126-41.894531 27.367188-65.882813zm0 0" fill="#23b972"/><path d="m432.550781 176.550781c-.007812 6.207031-.351562 12.410157-1.023437 18.582031h-37.445313c1.730469-12.328124 1.730469-24.835937 0-37.164062h37.445313c.078125.175781.113281.367188.097656.558594.273438 2.230468.457031 4.457031.554688 6.777344.273437 3.71875.371093 7.433593.371093 11.246093zm0 0" fill="#ebeced"/><path d="m393.152344 65.695312v.097657l-26.394532 26.296875c-7.453124-9.953125-16.273437-18.808594-26.199218-26.296875l26.296875-26.394531c.191406.070312.355469.199218.46875.371093h.089843c.097657 0 .097657 0 .183594.183594l.097656.097656c.089844 0 .273438.183594.371094.273438.273438.1875.554688.46875.828125.652343l.46875.46875c.265625.160157.511719.347657.742188.554688.300781.222656.582031.46875.839843.742188.226563.097656.417969.261718.554688.46875.789062.597656 1.535156 1.25 2.234375 1.949218.652344.644532 1.296875 1.210938 2.039063 1.855469.097656.097656.183593.097656.28125.28125l.097656.089844c.089844 0 .089844 0 .089844.097656s.09375 0 .09375.085937l.089843.097657c.097657 0 .097657.097656.183594.1875.207031.128906.394531.285156.558594.464843.550781.46875 1.078125.964844 1.578125 1.484376.386718.292968.734375.636718 1.027344 1.023437 0 0 .09375 0 .09375.089844.351562.265625.664062.582031.929687.933593.738281.644532 1.480469 1.484376 2.222656 2.226563l.378907.371094c.644531.652343 1.300781 1.394531 1.855468 2.046875.183594.089844.28125.1875.28125.28125l1.015625 1.113281c.378907.460937.75.839844 1.121094 1.296875.289063.203125.539063.453125.742187.742188.371094.46875.839844.9375 1.210938 1.394531l.273438.285156c.1875.191406.34375.410156.464843.652344.289063.175781.515625.433593.65625.742187.261719.199219.480469.453125.644531.738282.339844.347656.652344.71875.933594 1.113281zm0 0" fill="#ebeced"/><path d="m274.539062 1.296875v37.007813c-5.820312-.855469-11.695312-1.285157-17.578124-1.289063h-.925782c-6.203125.003906-12.394531.433594-18.539062 1.289063v-37.289063h.089844c2.496093-.273437 4.996093-.460937 7.496093-.644531h.09375c.613281-.082032 1.230469-.113282 1.847657-.097656 1.851562-.1835942 3.792968-.1835942 5.648437-.1835942h1.289063v-.0898438h2.039062c2.222656 0 4.414062.273438 6.664062.371094 4.050782.183594 8.035157.457031 11.875.925781zm0 0" fill="#ebeced"/><path d="m431.527344 158.015625h-37.445313c-3.164062-23.988281-12.605469-46.714844-27.367187-65.882813l26.394531-26.296874c.1875 0 .273437.1875.371094.273437l.371093.371094c.148438.136719.273438.292969.371094.46875l.882813 1.113281c.820312.898438 1.570312 1.863281 2.234375 2.886719.085937.183593.273437.367187.371094.554687.09375.183594.273437.273438.367187.457032l.558594.882812c.46875.65625.882812 1.210938 1.394531 1.863281.554688.832031 1.113281 1.582031 1.667969 2.410157.554687.832031 1.304687 1.953124 1.949219 2.886718.285156.558594.65625 1.015625.9375 1.484375.050781.046875.082031.113281.089843.183594.050781.046875.085938.113281.09375.1875l.1875.183594c.007813.070312.039063.136719.089844.1875 1.394531 2.230469 2.789063 4.464843 4.085937 6.785156 1.023438 1.671875 1.949219 3.4375 2.886719 5.203125l.828125 1.675781c0 .085938.097656.085938.097656.183594.261719.574219.554688 1.132813.882813 1.667969.195313.550781.441406 1.082031.742187 1.582031 0 .183594.097657.183594.195313.28125.371094 1.015625.828125 2.039063 1.296875 3.0625.15625.230469.28125.480469.371094.742187 2.320312 5.023438 4.367187 10.222657 6.179687 15.519532h.226563c.371094 1.023437.644531 1.953125 1.027344 2.976562.265624.59375.449218 1.21875.554687 1.863282.089844.085937.089844.085937.089844.183593 0 .097657.09375.089844.09375.183594.644531 1.953125 1.210937 3.902344 1.667969 5.941406.65625 2.136719 1.210937 4.371094 1.679687 6.605469.46875 2.230469.925781 4.359375 1.394531 6.59375.066406.078125.101563.179688.089844.28125.09375.460938.183594 1.015625.28125 1.582031.167969.703125.289062 1.414063.371094 2.136719.085937.457031.183594 1.011719.273437 1.480469v.285156c.371094 2.503906.75 5.109375 1.023438 7.617187.09375.445313.140625.894532.140625 1.351563zm0 0" fill="#23b972"/><g fill="#928170"><path d="m61.792969 485.515625c-4.875 0-8.828125-3.949219-8.828125-8.824219v-31.65625l-2.585938 2.585938c-3.464844 3.34375-8.96875 3.296875-12.375-.109375-3.40625-3.402344-3.453125-8.910157-.105468-12.375l17.652343-17.652344c2.527344-2.523437 6.320313-3.28125 9.621094-1.914063 3.296875 1.367188 5.449219 4.585938 5.449219 8.152344v52.96875c0 4.875-3.953125 8.824219-8.828125 8.824219zm0 0"/><path d="m114.757812 485.515625c-14.625 0-26.480468-11.855469-26.480468-26.480469v-17.65625c0-14.625 11.855468-26.480468 26.480468-26.480468s26.484376 11.855468 26.484376 26.480468v17.65625c0 14.625-11.859376 26.480469-26.484376 26.480469zm0-52.964844c-4.875 0-8.828124 3.953125-8.828124 8.828125v17.65625c0 4.875 3.953124 8.828125 8.828124 8.828125s8.828126-3.953125 8.828126-8.828125v-17.65625c0-4.875-3.953126-8.828125-8.828126-8.828125zm0 0"/><path d="m397.242188 485.515625c-14.625 0-26.484376-11.855469-26.484376-26.480469v-17.65625c0-14.625 11.859376-26.480468 26.484376-26.480468s26.480468 11.855468 26.480468 26.480468v17.65625c0 14.625-11.855468 26.480469-26.480468 26.480469zm0-52.964844c-4.875 0-8.828126 3.953125-8.828126 8.828125v17.65625c0 4.875 3.953126 8.828125 8.828126 8.828125s8.828124-3.953125 8.828124-8.828125v-17.65625c0-4.875-3.953124-8.828125-8.828124-8.828125zm0 0"/><path d="m185.378906 467.863281c-14.625 0-26.480468-11.859375-26.480468-26.484375v-17.65625c0-14.625 11.855468-26.480468 26.480468-26.480468s26.484375 11.855468 26.484375 26.480468v17.65625c0 14.625-11.859375 26.484375-26.484375 26.484375zm0-52.964843c-4.875 0-8.828125 3.949218-8.828125 8.824218v17.65625c0 4.875 3.953125 8.828125 8.828125 8.828125s8.828125-3.953125 8.828125-8.828125v-17.65625c0-4.875-3.953125-8.824218-8.828125-8.824218zm0 0"/><path d="m326.621094 467.863281c-14.625 0-26.484375-11.859375-26.484375-26.484375v-17.65625c0-14.625 11.859375-26.480468 26.484375-26.480468s26.480468 11.855468 26.480468 26.480468v17.65625c0 14.625-11.855468 26.484375-26.480468 26.484375zm0-52.964843c-4.875 0-8.828125 3.949218-8.828125 8.824218v17.65625c0 4.875 3.953125 8.828125 8.828125 8.828125s8.828125-3.953125 8.828125-8.828125v-17.65625c0-4.875-3.953125-8.824218-8.828125-8.824218zm0 0"/><path d="m256 459.035156c-14.625 0-26.484375-11.855468-26.484375-26.484375v-17.652343c0-14.628907 11.859375-26.484376 26.484375-26.484376s26.484375 11.855469 26.484375 26.484376v17.652343c0 14.628907-11.859375 26.484375-26.484375 26.484375zm0-52.964844c-4.875 0-8.828125 3.949219-8.828125 8.828126v17.652343c0 4.875 3.953125 8.828125 8.828125 8.828125s8.828125-3.953125 8.828125-8.828125v-17.652343c0-4.878907-3.953125-8.828126-8.828125-8.828126zm0 0"/><path d="m467.863281 467.863281c0 4.875-3.953125 8.828125-8.828125 8.828125s-8.828125-3.953125-8.828125-8.828125 3.953125-8.828125 8.828125-8.828125 8.828125 3.953125 8.828125 8.828125zm0 0"/><path d="m459.035156 441.378906c-4.875 0-8.828125-3.953125-8.828125-8.828125v-17.652343c0-4.878907 3.953125-8.828126 8.828125-8.828126s8.828125 3.949219 8.828125 8.828126v17.652343c0 4.875-3.953125 8.828125-8.828125 8.828125zm0 0"/></g><path d="m423.722656 326.621094c-3.394531 0-6.488281-1.945313-7.957031-5.003906-1.472656-3.058594-1.058594-6.691407 1.0625-9.339844l35.3125-44.140625c1.96875-2.460938 5.105469-3.6875 8.226563-3.210938 3.117187.476563 5.746093 2.578125 6.890624 5.515625 1.148438 2.941406.640626 6.269532-1.328124 8.730469l-35.3125 44.136719c-1.675782 2.09375-4.210938 3.3125-6.894532 3.3125zm0 0" fill="#f4cd1e"/><path d="m441.730469 352.421875c-4.320313-.003906-8.003907-3.140625-8.699219-7.40625-.695312-4.269531 1.804688-8.410156 5.902344-9.789063l26.535156-8.828124c2.996094-.996094 6.296875-.320313 8.660156 1.773437 2.363282 2.097656 3.429688 5.292969 2.792969 8.386719-.632813 3.09375-2.867187 5.617187-5.863281 6.613281l-26.535156 8.828125c-.902344.289062-1.84375.433594-2.792969.421875zm0 0" fill="#f4cd1e"/><path d="m87.96875 325.886719c-2.683594.003906-5.21875-1.214844-6.894531-3.308594l-35.382813-44.226563c-2.023437-2.457031-2.570312-5.8125-1.425781-8.785156 1.144531-2.96875 3.796875-5.09375 6.945313-5.5625 3.148437-.464844 6.304687.800782 8.261718 3.3125l35.378906 44.226563c2.121094 2.648437 2.535157 6.277343 1.066407 9.335937-1.464844 3.058594-4.558594 5.007813-7.949219 5.007813zm0 0" fill="#f4cd1e"/><path d="m70.269531 352.421875c-.949219 0-1.890625-.15625-2.792969-.457031l-26.535156-8.828125c-2.996094-.996094-5.230468-3.519531-5.863281-6.613281-.636719-3.09375.429687-6.289063 2.792969-8.386719 2.363281-2.09375 5.664062-2.769531 8.660156-1.773438l26.535156 8.828125c4.097656 1.378906 6.597656 5.519532 5.902344 9.789063-.695312 4.265625-4.378906 7.402343-8.699219 7.40625zm0 0" fill="#f4cd1e"/></svg>