<svg height="480pt" viewBox="0 0 480 480" width="480pt" xmlns="http://www.w3.org/2000/svg"><path d="m24 120h176c8.835938 0 16 7.164062 16 16v256h-208v-256c0-8.835938 7.164062-16 16-16zm0 0" fill="#75c1ff"/><path d="m8 392h208v64c0 8.835938-7.164062 16-16 16h-176c-8.835938 0-16-7.164062-16-16zm0 0" fill="#efefef"/><path d="m456 160h-120c-8.835938 0-16-7.164062-16-16v-120c0-8.835938 7.164062-16 16-16h120c8.835938 0 16 7.164062 16 16v120c0 8.835938-7.164062 16-16 16zm0 0" fill="#ffbf75"/><path d="m432 128h-72c-4.417969 0-8-3.582031-8-8v-72c0-4.417969 3.582031-8 8-8h72c4.417969 0 8 3.582031 8 8v72c0 4.417969-3.582031 8-8 8zm0 0" fill="#cc995e"/><path d="m200 112h-176c-13.25.015625-23.984375 10.75-24 24v320c.015625 13.25 10.75 23.984375 24 24h176c13.25-.015625 23.984375-10.75 24-24v-320c-.015625-13.25-10.75-23.984375-24-24zm-176 16h176c4.414062.003906 7.996094 3.585938 8 8v248h-192v-248c.003906-4.414062 3.585938-7.996094 8-8zm176 336h-176c-4.414062-.003906-7.996094-3.585938-8-8v-56h192v56c-.003906 4.414062-3.585938 7.996094-8 8zm0 0"/><path d="m128 432c0 8.835938-7.164062 16-16 16s-16-7.164062-16-16 7.164062-16 16-16 16 7.164062 16 16zm0 0"/><path d="m48 424h24v16h-24zm0 0"/><path d="m152 424h24v16h-24zm0 0"/><path d="m96 144h32v16h-32zm0 0"/><path d="m360 136h72c8.832031-.007812 15.992188-7.167969 16-16v-72c-.007812-8.832031-7.167969-15.992188-16-16h-72c-8.832031.007812-15.992188 7.167969-16 16v72c.007812 8.832031 7.167969 15.992188 16 16zm0-88h72v72h-72zm0 0"/><path d="m464 296h16v16h-16zm0 0"/><path d="m464 360h-16c-8.832031.007812-15.992188 7.167969-16 16v40h16v-40h16c8.832031-.007812 15.992188-7.167969 16-16v-32h-16zm0 0"/><path d="m464 392h16v24h-16zm0 0"/><path d="m376 432h40v16h-40zm0 0"/><path d="m400 368h16v48h-16zm0 0"/><path d="m464 200h-24v-16h-16v16c.007812 8.832031 7.167969 15.992188 16 16h24v64h16v-64c-.007812-8.832031-7.167969-15.992188-16-16zm0 0"/><path d="m392 184v48c.007812 8.832031 7.167969 15.992188 16 16h24v96h16v-96c-.007812-8.832031-7.167969-15.992188-16-16h-24v-48zm0 0"/><path d="m384 280v24c.007812 8.832031 7.167969 15.992188 16 16h16v-16h-16v-24h16v-16h-16c-8.832031.007812-15.992188 7.167969-16 16zm0 0"/><path d="m376 336h40v16h-40zm0 0"/><path d="m240 224h48v16h-48zm0 0"/><path d="m360 448c-.007812-8.832031-7.167969-15.992188-16-16h-24v16h24v16c.007812 8.832031 7.167969 15.992188 16 16h56v-16h-56zm0 0"/><path d="m304 448c-.007812-8.832031-7.167969-15.992188-16-16h-16v16h16v16c.007812 8.832031 7.167969 15.992188 16 16h24v-16h-24zm0 0"/><path d="m384 400v-16c-.007812-8.832031-7.167969-15.992188-16-16h-24v16h24v16h-96v16h96c8.832031-.007812 15.992188-7.167969 16-16zm0 0"/><path d="m288 368h40v16h-40zm0 0"/><path d="m320 336h40v16h-40zm0 0"/><path d="m240 288h16v16h-16zm0 0"/><path d="m272 288h32v16h-32zm0 0"/><path d="m240 272h80v48h16v-48c-.007812-8.832031-7.167969-15.992188-16-16h-80zm0 0"/><path d="m352 256h16v64h-16zm0 0"/><path d="m360 184h16v16h-16zm0 0"/><path d="m360 216h16v24h-16zm0 0"/><path d="m240 208h16v-32h24c8.832031-.007812 15.992188-7.167969 16-16v-32h-16v32h-24c-8.832031.007812-15.992188 7.167969-16 16zm0 0"/><path d="m280 96h16v16h-16zm0 0"/><path d="m256 48h24v32h16v-32c-.007812-8.832031-7.167969-15.992188-16-16h-24zm0 0"/><path d="m240 80h24v-16h-24c-8.832031.007812-15.992188 7.167969-16 16v16h16zm0 0"/><path d="m224 32h16v16h-16zm0 0"/><path d="m280 0h16v16h-16zm0 0"/><path d="m208 16h56v-16h-56c-8.832031.0078125-15.992188 7.167969-16 16v16h16zm0 0"/><path d="m0 80h32v16h-32zm0 0"/><path d="m176 64h16v32h16v-32c-.007812-8.832031-7.167969-15.992188-16-16h-16v-48h-16v48c.007812 8.832031 7.167969 15.992188 16 16zm0 0"/><path d="m112 48v32c.007812 8.832031 7.167969 15.992188 16 16h48v-16h-48v-32zm0 0"/><path d="m128 0h16v32h-16zm0 0"/><path d="m48 80h16v16h-16zm0 0"/><path d="m16 16h40v-16h-40c-8.832031.0078125-15.9921875 7.167969-16 16v48h16zm0 0"/><path d="m96 32h16v-16c-.007812-8.832031-7.167969-15.9921875-16-16h-24v16h24zm0 0"/><path d="m432 448v32h16v-32h32v-16h-32c-8.832031.007812-15.992188 7.167969-16 16zm0 0"/><path d="m464 464h16v16h-16zm0 0"/><path d="m328 224h-24v16h24c8.832031-.007812 15.992188-7.167969 16-16v-40h-16zm0 0"/><path d="m272 192h40v16h-40zm0 0"/><path d="m240 352h16v-16h32v16h16v-16c-.007812-8.832031-7.167969-15.992188-16-16h-32c-8.832031.007812-15.992188 7.167969-16 16zm0 0"/><path d="m240 464h32v16h-32zm0 0"/><path d="m240 432h16v16h-16zm0 0"/><path d="m256 384h16v-16h-16c-8.832031.007812-15.992188 7.167969-16 16v32h16zm0 0"/><path d="m256 112h8v-16h-8c-8.832031.007812-15.992188 7.167969-16 16v32h16zm0 0"/><path d="m32 32h16v32h-16zm0 0"/><path d="m80 64v32h16v-32c-.007812-8.832031-7.167969-15.992188-16-16v-16h-16v16c.007812 8.832031 7.167969 15.992188 16 16zm0 0"/><path d="m456 168h-120c-13.25-.015625-23.984375-10.75-24-24v-120c.015625-13.25 10.75-23.984375 24-24h120c13.25.015625 23.984375 10.75 24 24v120c-.015625 13.25-10.75 23.984375-24 24zm-120-152c-4.414062.003906-7.996094 3.585938-8 8v120c.003906 4.414062 3.585938 7.996094 8 8h120c4.414062-.003906 7.996094-3.585938 8-8v-120c-.003906-4.414062-3.585938-7.996094-8-8zm0 0"/></svg>