<svg id="Layer_1" enable-background="new 0 0 256 256" height="512" viewBox="0 0 256 256" width="512" xmlns="http://www.w3.org/2000/svg"><g><g><path d="m177.947 149.666c0-15.715 12.739-28.454 28.454-28.454s28.454 12.739 28.454 28.454z" fill="#f8af23"/><circle cx="206.401" cy="106.023" fill="#f8af23" r="15.189"/><g fill="#f8d323"><path d="m206.401 121.212c-1.665 0-3.293.151-4.88.426 13.388 2.315 23.574 13.979 23.574 28.029h9.76c0-15.715-12.739-28.455-28.454-28.455z"/><path d="m206.401 90.834c-1.709 0-3.346.295-4.88.816 5.992 2.034 10.31 7.694 10.31 14.374 0 6.679-4.318 12.339-10.31 14.374 1.533.521 3.171.816 4.88.816 8.389 0 15.189-6.801 15.189-15.189 0-8.391-6.8-15.191-15.189-15.191z"/></g></g><g><path d="m177.947 220.844c0-15.715 12.739-28.454 28.454-28.454s28.454 12.739 28.454 28.454z" fill="#f8af23"/><circle cx="206.401" cy="177.2" fill="#f8af23" r="15.189"/><g fill="#f8d323"><path d="m206.401 192.39c-1.665 0-3.293.151-4.88.426 13.388 2.315 23.574 13.979 23.574 28.029h9.76c0-15.716-12.739-28.455-28.454-28.455z"/><path d="m206.401 162.011c-1.709 0-3.346.295-4.88.816 5.992 2.034 10.31 7.694 10.31 14.374 0 6.679-4.318 12.339-10.31 14.374 1.533.521 3.171.816 4.88.816 8.389 0 15.189-6.801 15.189-15.189 0-8.39-6.8-15.191-15.189-15.191z"/></g></g><path d="m21.145 163.166c0-22.926 18.585-41.512 41.512-41.512s41.512 18.585 41.512 41.512z" fill="#63bce7"/><path d="m67.537 121.949c-1.602-.188-3.228-.295-4.88-.295-22.926 0-41.512 18.585-41.512 41.512h9.76c0-21.275 16.007-38.8 36.632-41.217z" fill="#6377e7"/><circle cx="62.657" cy="99.494" fill="#63bce7" r="22.16"/><path d="m50.257 99.494c0-10.561 7.39-19.39 17.28-21.614-1.571-.353-3.202-.546-4.88-.546-12.238 0-22.16 9.921-22.16 22.16 0 12.238 9.921 22.16 22.16 22.16 1.677 0 3.309-.193 4.88-.546-9.89-2.224-17.28-11.053-17.28-21.614z" fill="#6377e7"/><g><path d="m177.947 78.489c0-15.715 12.739-28.454 28.454-28.454s28.454 12.739 28.454 28.454z" fill="#f46275"/><circle cx="206.401" cy="34.845" fill="#f46275" r="15.189"/><path d="m206.401 50.035c-1.665 0-3.293.151-4.88.426 13.388 2.315 23.574 13.979 23.574 28.029h9.76c0-15.716-12.739-28.455-28.454-28.455z" fill="#f48875"/><path d="m206.401 19.656c-1.709 0-3.346.295-4.88.816 5.992 2.034 10.31 7.694 10.31 14.374 0 6.679-4.318 12.339-10.31 14.374 1.533.521 3.171.816 4.88.816 8.389 0 15.189-6.801 15.189-15.189 0-8.39-6.8-15.191-15.189-15.191z" fill="#f48875"/><g fill="#321f7a"><path d="m27.323 234.844h-18.003c-.829 0-1.5.671-1.5 1.5s.671 1.5 1.5 1.5h18.003c.829 0 1.5-.671 1.5-1.5s-.671-1.5-1.5-1.5z"/><path d="m246.68 234.844h-18.003c-.828 0-1.5.671-1.5 1.5s.672 1.5 1.5 1.5h18.003c.828 0 1.5-.671 1.5-1.5s-.672-1.5-1.5-1.5z"/><path d="m218.48 234.844h-180.959c-.829 0-1.5.671-1.5 1.5s.671 1.5 1.5 1.5h180.959c.828 0 1.5-.671 1.5-1.5s-.672-1.5-1.5-1.5z"/><path d="m9.32 222.344h168.626 56.908 11.825c.828 0 1.5-.671 1.5-1.5s-.672-1.5-1.5-1.5h-10.363c-.652-13.148-9.823-24.087-22.093-27.411 5.269-2.809 8.866-8.356 8.866-14.733 0-9.202-7.487-16.689-16.689-16.689-8.696 0-15.85 6.688-16.612 15.189h-30.433v-68.177h30.433c.514 5.738 3.939 10.646 8.789 13.233-12.734 3.449-22.131 15.101-22.131 28.911 0 .829.672 1.5 1.5 1.5h56.908c.828 0 1.5-.671 1.5-1.5 0-13.81-9.397-25.461-22.131-28.911 5.269-2.809 8.866-8.356 8.866-14.733 0-9.203-7.487-16.689-16.689-16.689-8.696 0-15.851 6.688-16.612 15.189h-30.433v-68.178h30.433c.514 5.738 3.939 10.646 8.789 13.233-12.734 3.449-22.131 15.101-22.131 28.911 0 .829.672 1.5 1.5 1.5h56.908c.828 0 1.5-.671 1.5-1.5 0-13.81-9.397-25.461-22.131-28.911 5.269-2.809 8.866-8.356 8.866-14.733 0-9.202-7.487-16.689-16.689-16.689-8.696 0-15.85 6.688-16.612 15.189h-31.933c-.828 0-1.5.671-1.5 1.5v69.678h-52.186c-.829 0-1.5.671-1.5 1.5s.671 1.5 1.5 1.5h52.186v69.677c0 .829.672 1.5 1.5 1.5h31.933c.514 5.738 3.939 10.646 8.789 13.233-12.27 3.324-21.441 14.263-22.093 27.411h-167.164c-.829 0-1.5.671-1.5 1.5s.671 1.5 1.5 1.5zm223.994-74.177h-53.826c.781-14.167 12.554-25.454 26.913-25.454s26.131 11.286 26.913 25.454zm-26.913-55.834c7.549 0 13.689 6.141 13.689 13.689s-6.141 13.689-13.689 13.689-13.688-6.141-13.688-13.689 6.14-13.689 13.688-13.689zm26.913-15.344h-53.826c.781-14.167 12.554-25.454 26.913-25.454s26.131 11.286 26.913 25.454zm-26.913-55.833c7.549 0 13.689 6.141 13.689 13.689s-6.141 13.689-13.689 13.689-13.688-6.141-13.688-13.689 6.14-13.689 13.688-13.689zm-13.689 156.044c0-7.548 6.141-13.689 13.688-13.689 7.549 0 13.689 6.141 13.689 13.689s-6.141 13.689-13.689 13.689c-7.547.001-13.688-6.14-13.688-13.689zm13.689 16.69c14.359 0 26.132 11.287 26.913 25.454h-53.826c.781-14.168 12.553-25.454 26.913-25.454z"/><path d="m21.145 164.666h83.023c.829 0 1.5-.671 1.5-1.5 0-20.487-14.402-37.664-33.611-41.964 8.381-3.644 14.259-12 14.259-21.707 0-13.046-10.614-23.66-23.66-23.66s-23.66 10.614-23.66 23.66c0 9.707 5.878 18.063 14.259 21.707-19.209 4.301-33.611 21.477-33.611 41.964.001.828.673 1.5 1.501 1.5zm20.852-65.172c0-11.392 9.268-20.66 20.66-20.66s20.66 9.268 20.66 20.66-9.268 20.66-20.66 20.66-20.66-9.268-20.66-20.66zm20.66 23.66c21.56 0 39.192 17.142 39.984 38.512h-79.968c.792-21.371 18.424-38.512 39.984-38.512z"/></g></g></g></svg>