<?xml version="1.0" encoding="iso-8859-1"?>
<!-- Generator: Adobe Illustrator 19.0.0, SVG Export Plug-In . SVG Version: 6.00 Build 0)  -->
<svg version="1.1" id="Capa_1" xmlns="http://www.w3.org/2000/svg" xmlns:xlink="http://www.w3.org/1999/xlink" x="0px" y="0px"
	 viewBox="0 0 512.001 512.001" style="enable-background:new 0 0 512.001 512.001;" xml:space="preserve">
<circle style="fill:#FFE169;" cx="256" cy="256" r="100"/>
<path style="fill:#6DC992;" d="M249.5,30.09l-0.38,0.61L216,10v23.64l-0.01,0.01C113.72,52.51,30,148.35,30,256
	c0,121.31,104.69,226,226,226c2.6,0,5.2-0.05,7.78-0.14L296,502v-23.64C398.28,459.49,482,363.65,482,256
	C482,132.53,373.76,26.49,249.5,30.09z M296,416.94V402l-31.66,19.79c-2.76,0.14-5.54,0.21-8.34,0.21c-88.22,0-166-77.78-166-166
	c0-74.42,57.07-143.13,126-160.94V110l31.66-19.79C339.65,85.52,422,165.01,422,256C422,330.42,364.93,399.13,296,416.94z"/>
<path d="M250.974,20.067L221.3,1.52c-3.082-1.927-6.968-2.029-10.147-0.267C207.973,3.016,206,6.365,206,10v15.5
	c-49.093,11.018-94.634,39.038-128.984,79.563C40.249,148.439,20,202.043,20,256c0,128.771,112.146,238.801,241.03,235.936
	l29.67,18.544c3.029,1.894,6.913,2.059,10.148,0.267c3.179-1.762,5.152-5.111,5.152-8.747v-15.48
	C409.874,463.195,492,364.992,492,256C492,128.641,381.206,17.3,250.974,20.067z M40,256c0-100.781,78.101-194.129,177.804-212.516
	c0.059-0.011,0.115-0.029,0.173-0.041c0.068-0.014,0.133-0.033,0.2-0.047c4.597-1.029,7.823-5.108,7.823-9.755v-5.598L277.132,60
	L242.49,81.651c-0.031,0.019-0.061,0.038-0.091,0.057L225.59,92.214c-1.524-5.141-6.904-8.178-12.09-6.835
	C139.597,104.473,80,177.566,80,256c0,85.663,68.659,161.7,152.024,174.193L210.7,443.52c-2.924,1.827-4.7,5.032-4.7,8.48
	s1.776,6.653,4.7,8.48l14.573,9.108C123.549,453.664,40,360.686,40,256z M412,256c0,63.342-45.64,125.626-106,147.394V402
	c0-3.635-1.973-6.984-5.152-8.747c-3.181-1.763-7.066-1.66-10.148,0.267l-29.406,18.378c-1.758,0.06-3.526,0.101-5.294,0.101
	c-83.103,0-156-72.897-156-156c0-63.343,45.638-125.625,106-147.391V110c0,3.635,1.973,6.984,5.152,8.747
	c3.139,1.739,7.025,1.686,10.148-0.267l29.403-18.377C335.863,97.33,412,171.439,412,256z M294.186,468.526
	c-4.743,0.875-8.186,5.011-8.186,9.834v5.597c-12.482-7.801-37.637-23.523-51.131-31.957c12.263-7.664,38.337-23.96,51.544-32.215
	c0.59,1.986,1.789,3.764,3.464,5.061c2.446,1.894,5.629,2.55,8.625,1.776C372.404,407.527,432,334.435,432,256
	c0-84.761-67.301-161.174-152.179-174.096L301.3,68.48c2.924-1.827,4.7-5.032,4.7-8.48c0-3.448-1.776-6.652-4.7-8.48l-14.464-9.04
	C391.604,58.982,472,152.825,472,256C472,356.778,393.895,450.131,294.186,468.526z"/>
<path d="M257,285.29c-4.272,0-8.884-2.687-12.986-7.565c-3.553-4.228-9.862-4.774-14.089-1.219
	c-4.228,3.554-4.773,9.862-1.219,14.089c5.346,6.359,11.632,10.79,18.294,13.024v11.671c0,5.523,4.477,10,10,10
	c5.523,0,10-4.477,10-10v-11.72c11.639-4.128,20-15.243,20-28.28c0-16.542-13.458-30-30-30c-5.514,0-10-4.486-10-10s4.486-10,10-10
	c3.542,0,7.283,1.807,10.816,5.227c3.97,3.841,10.3,3.737,14.14-0.233c3.84-3.969,3.736-10.3-0.233-14.14
	c-5.075-4.911-10.153-7.688-14.724-9.205V195.29c0-5.523-4.477-10-10-10s-10,4.477-10,10v11.72c-11.639,4.128-20,15.243-20,28.28
	c0,16.542,13.458,30,30,30c5.514,0,10,4.486,10,10S262.514,285.29,257,285.29z"/>
<path d="M146,256c0,60.654,49.346,110,110,110s110-49.346,110-110s-49.346-110-110-110S146,195.346,146,256z M256,166
	c49.626,0,90,40.374,90,90s-40.374,90-90,90s-90-40.374-90-90S206.374,166,256,166z"/>
<g>
</g>
<g>
</g>
<g>
</g>
<g>
</g>
<g>
</g>
<g>
</g>
<g>
</g>
<g>
</g>
<g>
</g>
<g>
</g>
<g>
</g>
<g>
</g>
<g>
</g>
<g>
</g>
<g>
</g>
</svg>
