<?xml version="1.0" encoding="iso-8859-1"?>
<!-- Generator: Adobe Illustrator 19.0.0, SVG Export Plug-In . SVG Version: 6.00 Build 0)  -->
<svg version="1.1" id="Capa_1" xmlns="http://www.w3.org/2000/svg" xmlns:xlink="http://www.w3.org/1999/xlink" x="0px" y="0px"
	 viewBox="0 0 511.999 511.999" style="enable-background:new 0 0 511.999 511.999;" xml:space="preserve">
<circle style="fill:#FF5D5D;" cx="193.544" cy="194.755" r="183.357"/>
<circle style="fill:#98E3FF;" cx="193.544" cy="195.071" r="127.25"/>
<polyline style="fill:#FEE4BB;" points="338.478,307.09 412.33,380.626 381.444,411.879 307.592,338.342 "/>
<path style="fill:#FDCF84;" d="M489.32,488.093c-8.333,8.333-19.263,12.509-30.183,12.509c-10.9,0-21.789-4.146-30.111-12.438
	l-62.433-61.252l14.852-15.035l30.886-31.252l14.251-14.424l62.667,61.476C505.975,444.333,506.005,471.408,489.32,488.093z"/>
<path d="M193.544,57.626c-38.788,0-75.96,16.513-101.985,45.305c-3.773,4.174-3.448,10.615,0.725,14.388
	c4.175,3.77,10.615,3.447,14.387-0.726c22.17-24.527,53.834-38.594,86.873-38.594c64.551,0,117.067,52.516,117.067,117.067
	s-52.516,117.067-117.067,117.067S76.477,259.617,76.477,195.066c0-5.625-4.562-10.187-10.187-10.187s-10.187,4.562-10.187,10.187
	c0,75.784,61.655,137.44,137.44,137.44s137.44-61.655,137.44-137.44S269.328,57.626,193.544,57.626z"/>
<path d="M496.382,420.406l-62.668-61.476c-4.007-3.93-10.436-3.88-14.379,0.112l-7.063,7.149l-60.445-60.185
	c22.204-31.495,35.262-69.875,35.262-111.253c0-106.721-86.823-193.544-193.544-193.544S0,88.032,0,194.753
	s86.823,193.544,193.544,193.544c42.175,0,81.236-13.569,113.066-36.558l60.459,60.201l-7.723,7.816
	c-1.903,1.926-2.96,4.53-2.94,7.238c0.021,2.708,1.121,5.295,3.053,7.193l62.377,61.196c9.973,9.936,23.22,15.408,37.301,15.408
	c14.118,0,27.396-5.502,37.385-15.493c9.996-9.996,15.493-23.287,15.477-37.429C511.985,443.724,506.459,430.439,496.382,420.406z
	 M20.373,194.753c0-95.486,77.684-173.171,173.171-173.171s173.171,77.684,173.171,173.171S289.03,367.924,193.544,367.924
	S20.373,290.239,20.373,194.753z M322.57,338.881c5.855-5.247,11.391-10.843,16.57-16.757l58.811,58.559l-16.564,16.764
	L322.57,338.881z M482.116,480.89L482.116,480.89c-6.141,6.142-14.303,9.526-22.979,9.526c-8.653,0-16.794-3.363-22.979-9.523
	L381.022,426.8l45.67-46.218l55.368,54.314c6.16,6.133,9.557,14.299,9.566,22.993C491.636,466.579,488.258,474.749,482.116,480.89z"
	/>
<path d="M74.243,157.063h0.104c5.625,0,10.187-4.562,10.187-10.187s-4.562-10.187-10.187-10.187h-0.104
	c-5.625,0-10.187,4.562-10.187,10.187S68.617,157.063,74.243,157.063z"/>
<g>
</g>
<g>
</g>
<g>
</g>
<g>
</g>
<g>
</g>
<g>
</g>
<g>
</g>
<g>
</g>
<g>
</g>
<g>
</g>
<g>
</g>
<g>
</g>
<g>
</g>
<g>
</g>
<g>
</g>
</svg>
