<svg id="Layer_1" enable-background="new 0 0 512 512" height="512" viewBox="0 0 512 512" width="512" xmlns="http://www.w3.org/2000/svg"><g><g><g><path d="m464.024 377.333h-432v-208c0-17.673 14.327-32 32-32h368c17.673 0 32 14.327 32 32z" fill="#463c4b"/></g><g><path d="m432.024 377.333h-400v-208c0-17.673 14.327-32 32-32h336c17.673 0 32 14.327 32 32z" fill="#555a6e"/></g><g><path d="m64.024 417.333h368c17.673 0 32-14.327 32-32v-8h-432v8c0 17.673 14.327 32 32 32z" fill="#a5c3dc"/></g><g><path d="m400.024 417.333h-336c-17.673 0-32-14.327-32-32v-8h400v8c0 17.673-14.327 32-32 32z" fill="#d7e6f0"/></g><g><path d="m200.024 417.333h72v32h-72z" fill="#a5c3dc"/></g><g><path d="m200.024 433.333h48v16h-48z" fill="#d7e6f0"/></g><g><path d="m312.024 473.333h-160v-8c0-8.837 7.163-16 16-16h128c8.837 0 16 7.163 16 16z" fill="#d7e6f0"/></g><g><path d="m312.024 473.333h-48v-8c0-8.837 7.163-16 16-16h16c8.837 0 16 7.163 16 16z" fill="#a5c3dc"/></g></g><path d="m476.024 42.667c-2.561-2.562-6.035-4-9.657-4h-47.029c-2.122 0-4.157.843-5.657 2.343-3.124 3.124-3.124 8.189 0 11.313l15.03 15.03-68.687 68.687-52.687-52.687c-6.248-6.248-16.379-6.248-22.627 0l-112 112c-6.249 6.248-6.249 16.379 0 22.627 3.124 3.124 7.219 4.687 11.313 4.687s8.189-1.563 11.313-4.687l100.687-100.687 52.687 52.687c6.248 6.248 16.379 6.248 22.627 0l80-80 15.03 15.029c3.124 3.124 8.19 3.124 11.314 0 1.5-1.5 2.343-3.535 2.343-5.657v-47.029c0-3.622-1.439-7.096-4-9.656z" fill="#ff6e91"/><g><g><circle cx="144.024" cy="441.333" fill="#d7e6f0" r="16"/></g><g><path d="m144.024 425.333v32c8.837 0 16-7.163 16-16s-7.163-16-16-16z" fill="#a5c3dc"/></g><g><path d="m160.024 329.333h-32c-61.856 0-112-50.144-112-112 0-61.856 50.144-112 112-112h32c61.856 0 112 50.144 112 112 0 61.856-50.144 112-112 112z" fill="#289bc3"/></g><g><circle cx="128.024" cy="217.333" fill="#00d2d2" r="112"/></g><g><circle cx="128.024" cy="217.333" fill="#d7e6f0" r="77.333"/></g><g><circle cx="96.024" cy="185.333" fill="#fff" r="16"/></g><g><path d="m128.024 329.333h32v16h-32z" fill="#d7e6f0"/></g><g><path d="m128.024 329.333v8h8c4.418 0 8 3.582 8 8h16v-16z" fill="#a5c3dc"/></g><g><path d="m160.024 441.333h-32c-4.418 0-8-3.582-8-8v-80c0-4.418 3.582-8 8-8h32c4.418 0 8 3.582 8 8v80c0 4.418-3.582 8-8 8z" fill="#00d2d2"/></g><g><path d="m160.024 441.333h-16v-96h16c4.418 0 8 3.582 8 8v80c0 4.418-3.582 8-8 8z" fill="#289bc3"/></g></g><g><g><path d="m383.976 457.333h16c53.019 0 96-42.981 96-96 0-53.019-42.981-96-96-96h-16c-53.019 0-96 42.981-96 96 0 53.02 42.981 96 96 96z" fill="#e64178"/></g><g><circle cx="383.976" cy="361.333" fill="#ff6e91" r="96"/></g><g><circle cx="383.976" cy="361.333" fill="#d7e6f0" r="64"/></g><g><circle cx="383.976" cy="361.333" fill="#ff6e91" r="32"/></g><g><g><path d="m383.976 345.333h-87.952l-11.25-16.875c-2.968-4.451-7.963-7.125-13.313-7.125h-42.593c-12.329 0-19.683 13.741-12.844 24v16h63.952 120c0-8.836-7.164-16-16-16z" fill="#00d2d2"/></g><g><path d="m279.976 361.333h-63.952v16c-6.839 10.259.515 24 12.844 24h42.593c5.35 0 10.345-2.674 13.313-7.125l11.25-16.875h87.952c8.837 0 16-7.164 16-16z" fill="#289bc3"/></g></g></g></g></svg>