<svg enable-background="new 0 0 256 256" height="512" viewBox="0 0 256 256" width="512" xmlns="http://www.w3.org/2000/svg"><circle cx="128" cy="126.343" fill="#f2c300" r="100.672"/><circle cx="128" cy="126.343" fill="#f9d335" r="79.587"/><path d="m135.5 205.58c-2.47.23-4.97.35-7.5.35-43.95 0-79.59-35.63-79.59-79.59 0-43.95 35.64-79.58 79.59-79.58 2.53 0 5.03.12 7.5.35-40.43 3.78-72.09 37.81-72.09 79.23 0 41.43 31.66 75.46 72.09 79.24z" fill="#f9e27d"/><path d="m207.59 126.34c0 43.96-35.64 79.59-79.59 79.59-2.53 0-5.03-.12-7.5-.35 40.43-3.78 72.09-37.81 72.09-79.24 0-41.42-31.66-75.45-72.09-79.23 2.47-.23 4.97-.35 7.5-.35 43.95 0 79.59 35.63 79.59 79.58z" fill="#f2c300"/><path d="m229.472 230.329h-202.944c-1.415 0-2.562-1.147-2.562-2.562v-40.723c0-1.415 1.147-2.562 2.562-2.562h202.944c1.415 0 2.562 1.147 2.562 2.562v40.723c0 1.415-1.147 2.562-2.562 2.562z" fill="#44c7b6"/><path d="m4.333 193.429 5.368 13.977-5.368 13.976h19.633v-9.176-9.6-9.177z" fill="#4bdbc3"/><path d="m251.667 221.382-5.368-13.976 5.368-13.977h-19.633v9.177 9.599 9.177z" fill="#3bb2a0"/><path d="m41.53 230.33h-15c-1.42 0-2.56-1.15-2.56-2.56v-40.73c0-1.41 1.14-2.56 2.56-2.56h15c-1.42 0-2.56 1.15-2.56 2.56v40.73c0 1.41 1.14 2.56 2.56 2.56z" fill="#4bdbc3"/><path d="m232.03 187.04v40.73c0 1.41-1.14 2.56-2.56 2.56h-15c1.42 0 2.56-1.15 2.56-2.56v-40.73c0-1.41-1.14-2.56-2.56-2.56h15c1.42 0 2.56 1.15 2.56 2.56z" fill="#3bb2a0"/><g fill="#5f266d"><path d="m250.584 207.406 4.817-12.543c1.006-2.618-.932-5.434-3.734-5.434h-15.633v-2.385c0-3.618-2.943-6.562-6.562-6.562h-11.887c42.049-69.324-8.114-158.811-89.585-158.811-81.424 0-131.664 89.438-89.586 158.813h-11.886c-3.618 0-6.562 2.943-6.562 6.562v2.385h-15.633c-2.805 0-4.739 2.818-3.734 5.434l4.817 12.543-4.817 12.543c-1.005 2.618.932 5.434 3.734 5.434h15.633v2.385c0 3.618 2.943 6.562 6.562 6.562h202.944c3.618 0 6.562-2.943 6.562-6.562v-2.385h15.633c2.805 0 4.739-2.818 3.734-5.434zm-230.618 9.977h-9.812l3.281-8.543c.354-.923.354-1.944 0-2.867l-3.281-8.543h9.812zm108.034-187.712c77.567 0 123.26 87.123 80.072 150.813h-16.426c46.083-54.245 7.359-137.723-63.646-137.723-71.152 0-109.606 83.623-63.647 137.723h-16.425c-43.176-63.673 2.488-150.813 80.072-150.813zm52.701 150.812h-105.402c-48.361-47.05-15.041-129.722 52.701-129.722 67.752 0 101.057 82.677 52.701 129.722zm47.333 45.846h-200.068c0-13.799 0-24.042 0-37.846h200.067c.001 13.8.001 24.042.001 37.846zm14.531-17.489 3.281 8.543h-9.812v-19.953h9.812l-3.281 8.543c-.354.923-.354 1.944 0 2.867z"/><path d="m35.656 219.637c.225.887 1.023 1.508 1.938 1.508h3.146c.901 0 1.691-.603 1.929-1.473l3.07-11.225 2.704 11.168c.217.897 1.021 1.529 1.944 1.529h3.146c.895 0 1.68-.594 1.924-1.455l6.604-23.305c.362-1.276-.599-2.545-1.924-2.545h-3.077c-.91 0-1.705.613-1.935 1.493l-2.926 11.173-2.669-11.133c-.216-.899-1.02-1.533-1.945-1.533h-3.145c-.908 0-1.701.611-1.934 1.488l-3.027 11.437-2.669-11.382c-.212-.903-1.019-1.543-1.947-1.543h-3.182c-1.302 0-2.259 1.227-1.938 2.492z"/><path d="m63.107 221.145h3.112c.863 0 1.628-.554 1.899-1.373l1.966-5.957h5.385l2.029 5.974c.275.811 1.037 1.356 1.894 1.356h3.216c1.372 0 2.335-1.352 1.893-2.646l-7.953-23.305c-.276-.811-1.037-1.354-1.893-1.354h-3.631c-.856 0-1.618.546-1.894 1.356l-7.918 23.305c-.438 1.294.523 2.644 1.895 2.644zm9.66-15.799.721 2.117h-1.438z"/><path d="m89.832 221.145h3.008c1.104 0 2-.896 2-2v-8.097h.76c1.426.054 2.198.21 2.793 2.971.949 4.202 1.37 5.43 1.776 6.13.358.616 1.017.996 1.73.996h3.111c.704 0 1.356-.37 1.717-.975.361-.604.378-1.354.044-1.973-.406-.756-1.132-3.854-1.609-5.895-.384-1.682-.994-3.046-1.823-4.086 1.802-1.521 2.842-3.722 2.842-6.223 0-2.391-.891-4.495-2.492-5.909-1.849-1.672-4.342-2.417-8.083-2.417-2.266 0-4.575.196-6.177.525-.93.19-1.598 1.01-1.598 1.959v22.992c.001 1.106.896 2.002 2.001 2.002zm5.008-21.136c2.336-.123 4.333.144 4.333 2.333 0 2.328-2.302 2.426-4.333 2.426z"/><path d="m112.234 221.145h3.008c1.104 0 2-.896 2-2v-8.097h.759c1.427.054 2.199.21 2.793 2.972.951 4.202 1.371 5.429 1.775 6.127.357.618 1.017.998 1.731.998h3.112c1.515 0 2.476-1.622 1.76-2.949-.405-.751-1.13-3.852-1.608-5.894-.385-1.681-.995-3.045-1.823-4.085 1.801-1.521 2.841-3.722 2.841-6.223 0-2.391-.89-4.494-2.491-5.909-1.849-1.672-4.342-2.417-8.084-2.417-2.267 0-4.576.196-6.176.525-.93.191-1.597 1.01-1.597 1.959v22.992c0 1.105.896 2.001 2 2.001zm5.008-21.136c.279-.015.597-.024.952-.024 3.381.037 3.381 1.604 3.381 2.357 0 2.189-2.277 2.426-3.256 2.426h-1.077z"/><path d="m133.046 221.145h3.111c.863 0 1.628-.554 1.899-1.373l1.968-5.957h5.385l2.029 5.974c.275.811 1.037 1.356 1.894 1.356h3.216c1.369 0 2.335-1.349 1.893-2.646l-7.952-23.305c-.276-.811-1.038-1.354-1.893-1.354h-3.631c-.856 0-1.618.546-1.894 1.356l-7.918 23.305c-.441 1.294.521 2.644 1.893 2.644zm9.659-15.801.721 2.119h-1.438z"/><path d="m159.769 221.145h2.835c1.104 0 2-.896 2-2 0-10.84.001-10.551-.004-11.612.417.675.015.028 7.927 12.673.366.585 1.006.939 1.695.939h3.043c1.104 0 2-.896 2-2v-23.305c0-1.104-.896-2-2-2h-2.836c-1.104 0-2 .896-2 2 0 9.682-.002 10.081.003 11.072-.18-.288-7.507-11.856-7.689-12.143-.367-.579-1.004-.93-1.689-.93h-3.285c-1.104 0-2 .896-2 2v23.305c0 1.105.896 2.001 2 2.001z"/><path d="m183.658 200.398h5.088v18.746c0 1.104.896 2 2 2h3.043c1.104 0 2-.896 2-2v-18.746h5.123c1.104 0 2-.896 2-2v-2.559c0-1.104-.896-2-2-2h-17.254c-1.104 0-2 .896-2 2v2.559c0 1.105.895 2 2 2z"/><path d="m211.46 209.769v9.376c0 1.104.896 2 2 2h3.043c1.104 0 2-.896 2-2v-9.383l7.542-12.913c.778-1.333-.186-3.009-1.727-3.009h-3.424c-.745 0-1.429.414-1.773 1.075-4.634 8.888-2.948 5.651-3.952 7.603-.434-.869-.583-1.154-3.868-7.587-.342-.67-1.03-1.091-1.781-1.091h-3.423c-1.522 0-2.482 1.635-1.753 2.962z"/><path d="m98.465 109.083h-8.251v-20.985c0-4.646-7.539-4.619-7.539 0v24.49c0 1.91 1.554 3.464 3.464 3.464h12.326c1.91 0 3.464-1.554 3.464-3.506 0-1.91-1.554-3.463-3.464-3.463z"/><path d="m110.419 88.098v24.49c0 1.91 1.554 3.464 3.464 3.464h.61c1.91 0 3.464-1.554 3.464-3.464v-24.49c.001-4.564-7.538-4.682-7.538 0z"/><path d="m132.15 84.634c-1.91 0-3.464 1.554-3.464 3.464v24.49c0 1.91 1.554 3.464 3.464 3.464h.61c1.91 0 3.464-1.554 3.464-3.464v-8.943h6.909c1.91 0 3.464-1.555 3.464-3.465s-1.554-3.464-3.464-3.464h-6.909v-5.112h7.763c1.91 0 3.464-1.554 3.464-3.506 0-1.91-1.554-3.464-3.464-3.464z"/><path d="m176.458 112.546c0-1.91-1.554-3.464-3.464-3.464h-8.414v-5.885h7.194c1.91 0 3.464-1.555 3.464-3.466 0-1.91-1.554-3.464-3.464-3.464h-7.194v-4.664h7.804c1.91 0 3.464-1.554 3.464-3.506 0-1.91-1.554-3.464-3.464-3.464h-11.879c-1.91 0-3.464 1.554-3.464 3.464v24.49c0 1.91 1.554 3.464 3.464 3.464h12.489c1.91.001 3.464-1.552 3.464-3.505z"/><path d="m93.42 124.634h-17.37c-1.91 0-3.464 1.554-3.464 3.546 0 1.91 1.554 3.464 3.464 3.464h4.875v20.944c0 4.64 7.58 4.628 7.58 0v-20.944h4.916c1.91 0 3.464-1.554 3.464-3.546 0-1.91-1.555-3.464-3.465-3.464z"/><path d="m104.48 128.098v24.49c0 4.647 7.539 4.619 7.539 0v-24.49c0-4.564-7.539-4.682-7.539 0z"/><path d="m148.917 124.634h-2.118c-1.445 0-2.751.911-3.251 2.269l-4.537 12.327c-.376 1.063-.716 2.052-1.025 2.978-.296-.928-.621-1.915-.979-2.977l-4.333-12.284c-.488-1.383-1.8-2.313-3.267-2.313h-2.114c-1.812 0-3.33 1.416-3.456 3.224l-1.708 24.488c-.328 4.686 7.061 5.027 7.344.457l.647-10.39c.01-.177.021-.354.031-.531l3.958 11.657c1.078 3.176 6.023 3.158 7.146.069l4.49-12.335c.02-.053.039-.105.058-.158.018.34.036.675.053 1.002l.613 10.669c.261 4.545 7.724 4.283 7.433-.414l-1.526-24.489c-.115-1.822-1.634-3.249-3.459-3.249z"/><path d="m179.34 131.604c1.91 0 3.464-1.554 3.464-3.506 0-1.91-1.554-3.464-3.464-3.464h-11.878c-1.91 0-3.464 1.554-3.464 3.464v24.49c0 1.91 1.554 3.464 3.464 3.464h12.489c1.91 0 3.464-1.554 3.464-3.506 0-1.91-1.554-3.464-3.464-3.464h-8.414v-5.885h7.194c1.91 0 3.464-1.555 3.464-3.466 0-1.91-1.554-3.464-3.464-3.464h-7.194v-4.664h7.803z"/><path d="m160.885 67.82c-.8-.545-1.645-1.07-2.512-1.562-1.922-1.087-4.362-.412-5.452 1.509-1.089 1.922-.413 4.363 1.509 5.452 2.097 1.188 2.574 1.906 4.199 1.906 3.92.001 5.504-5.091 2.256-7.305z"/><path d="m142.299 68.814c4.807 0 5.487-7.005.762-7.927-6.313-1.233-13.293-1.65-18.962-1.352-2.203.149-3.866 2.055-3.719 4.258.147 2.202 2.04 3.863 4.256 3.725 7.615-.662 16.663 1.296 17.663 1.296z"/></g></svg>