<?xml version="1.0" encoding="iso-8859-1"?>
<!-- Generator: Adobe Illustrator 19.0.0, SVG Export Plug-In . SVG Version: 6.00 Build 0)  -->
<svg version="1.1" id="Capa_1" xmlns="http://www.w3.org/2000/svg" xmlns:xlink="http://www.w3.org/1999/xlink" x="0px" y="0px"
	 viewBox="0 0 464 464" style="enable-background:new 0 0 464 464;" xml:space="preserve">
<rect x="112" y="392" style="fill:#DADDA4;" width="336" height="32"/>
<g>
	<rect x="96" y="424" style="fill:#D3D3D3;" width="368" height="32"/>
	<rect x="304" y="152" style="fill:#D3D3D3;" width="160" height="32"/>
</g>
<rect x="312" y="184" style="fill:#E9ECCF;" width="136" height="208"/>
<rect x="8" y="184" style="fill:#76B82B;" width="288" height="168"/>
<path style="fill:#B5D676;" d="M264,312.001v-80c-8.837,0-16-7.163-16-16H56c0,8.837-7.163,16-16,16v80c8.837,0,16,7.163,16,16h192
	C248,319.164,255.164,312.001,264,312.001z"/>
<g>
	<path style="fill:#FBF7ED;" d="M272,256.001v-24c0-4.422-3.582-8-8-8c-4.41,0-8-3.586-8-8c0-4.422-3.582-8-8-8h-24v16h17.371
		c2.414,6.813,7.82,12.219,14.629,14.633v17.367H272z"/>
	<path style="fill:#FBF7ED;" d="M272,312.001v-24h-16v17.367c-6.809,2.414-12.215,7.82-14.629,14.633H224v16h24c4.418,0,8-3.578,8-8
		c0-4.414,3.59-8,8-8C268.418,320.001,272,316.422,272,312.001z"/>
	<rect x="232" y="264" style="fill:#FBF7ED;" width="16" height="16"/>
	<path style="fill:#FBF7ED;" d="M32,256.001v-24c0-4.422,3.582-8,8-8c4.41,0,8-3.586,8-8c0-4.422,3.582-8,8-8h24v16H62.629
		c-2.414,6.813-7.82,12.219-14.629,14.633v17.367H32z"/>
	<path style="fill:#FBF7ED;" d="M32,312.001v-24h16v17.367c6.809,2.414,12.215,7.82,14.629,14.633H80v16H56c-4.418,0-8-3.578-8-8
		c0-4.414-3.59-8-8-8C35.582,320.001,32,316.422,32,312.001z"/>
	<rect x="56" y="264" style="fill:#FBF7ED;" width="16" height="16"/>
	<circle style="fill:#FBF7ED;" cx="152" cy="272" r="56"/>
</g>
<path style="fill:#4C7464;" d="M144,288.001h-16v16c0,4.422,3.582,8,8,8h8v8h16v-8h8c4.418,0,8-3.578,8-8v-32c0-4.422-3.582-8-8-8
	h-24v-16h16v8h16v-16c0-4.422-3.582-8-8-8h-8v-8h-16v8h-8c-4.418,0-8,3.578-8,8v32c0,4.422,3.582,8,8,8h24v16h-16V288.001z"/>
<g>
	<polygon style="fill:#E23923;" points="368,232 352,248 368,248 	"/>
	<polygon style="fill:#E23923;" points="424,264 424,296 384,296 384,328 400,344 400,312 440,312 440,264 	"/>
</g>
<polygon style="fill:#F3573B;" points="400,248 384,248 384,216 328,272 344,288 384,328 384,296 424,296 424,264 424,248 "/>
<rect x="304" y="184" style="fill:#DADDA4;" width="144" height="16"/>
<g>
	<rect x="400" y="328" style="fill:#FCEE21;" width="16" height="40"/>
	<rect x="368" y="352" style="fill:#FCEE21;" width="0" height="16"/>
	<rect x="328" y="336" style="fill:#FCEE21;" width="0" height="32"/>
</g>
<g>
	<polygon style="fill:#E6E6E6;" points="172.64,84.64 194.88,106.88 216,128 216,152 448,152 448,128 280,8 	"/>
	<polygon style="fill:#E6E6E6;" points="120,128 120,152 176,152 152,128 	"/>
</g>
<g>
	<path style="fill:#D3D3D3;" d="M304,120h80l-66.56-46.08c1.68,4.4,2.56,9.12,2.56,14.08C320,101.04,313.68,112.72,304,120z"/>
	<path style="fill:#D3D3D3;" d="M194.88,106.88L208,120h48c-9.68-7.28-16-18.96-16-32c0-4.96,0.88-9.68,2.56-14.08L194.88,106.88z"
		/>
</g>
<rect x="8" y="352" style="fill:#4C7464;" width="288" height="24"/>
<g>
	<polygon style="fill:#D89868;" points="128,200 144,200 144,216 112,216 48,152 0,152 0,112 40,112 	"/>
	<polygon style="fill:#D89868;" points="152,104 192,136 192,184 176,184 176,152 152,128 120,128 120,104 	"/>
</g>
<polygon style="fill:#DFB28B;" points="160,72 172.64,84.64 194.88,106.88 216,128 216,184 192,184 192,136 152,104 120,104 
	120,128 120,144 120,160 144,184 144,200 128,200 40,112 0,112 0,72 "/>
<polygon style="fill:#FBF7ED;" points="376,320 384,328 384,296 424,296 424,248 416,248 416,288 376,288 "/>
<g>
</g>
<g>
</g>
<g>
</g>
<g>
</g>
<g>
</g>
<g>
</g>
<g>
</g>
<g>
</g>
<g>
</g>
<g>
</g>
<g>
</g>
<g>
</g>
<g>
</g>
<g>
</g>
<g>
</g>
</svg>
